<?xml version="1.0" encoding="UTF-8" standalone="no"?>
<svg
   xmlns:dc="http://purl.org/dc/elements/1.1/"
   xmlns:cc="http://creativecommons.org/ns#"
   xmlns:rdf="http://www.w3.org/1999/02/22-rdf-syntax-ns#"
   xmlns:svg="http://www.w3.org/2000/svg"
   xmlns="http://www.w3.org/2000/svg"
   id="svg8"
   version="1.1"
   viewBox="0 0 135.46667 135.46675"
   height="512"
   width="512">
  <defs
     id="defs2" />
  <metadata
     id="metadata5">
    <rdf:RDF>
      <cc:Work
         rdf:about="">
        <dc:format>image/svg+xml</dc:format>
        <dc:type
           rdf:resource="http://purl.org/dc/dcmitype/StillImage" />
        <dc:title></dc:title>
      </cc:Work>
    </rdf:RDF>
  </metadata>
  <g
     transform="translate(0,-161.53324)"
     id="layer1">
    <g
       transform="translate(172.65611,11.241436)"
       id="g69">
      <path
         id="path83"
         d="m -156.41841,285.24491 c -7.19196,-1.20231 -14.0768,-8.13785 -15.34367,-15.45664 -0.58152,-3.35949 -0.58511,-100.01143 -0.004,-103.55805 1.04069,-6.34981 6.11463,-12.28242 12.61818,-14.75357 3.41197,-1.29645 2.28517,-1.27029 54.71996,-1.27029 51.792383,0 51.152293,-0.0136 54.453599,1.15998 4.965729,1.76532 9.389195,5.86434 11.732583,10.87204 1.594649,3.40769 1.545502,1.62769 1.541266,55.82385 -0.0044,55.6945 0.118864,52.15686 -1.962906,56.35625 -2.065716,4.167 -5.118518,7.22245 -9.276003,9.28405 -4.173892,2.06972 -0.7908,1.95504 -56.753119,1.92387 -40.08441,-0.0223 -50.01577,-0.0956 -51.72604,-0.38149 z m 42.33333,-28.71453 c 6.20724,-0.76068 10.82216,-3.06198 16.312439,-8.13446 0.968195,-0.89452 1.88205,-1.6264 2.030785,-1.6264 0.148736,0 1.039757,1.10133 1.980044,2.4474 1.820421,2.60602 5.246931,6.17667 6.507826,6.78158 1.445935,0.69369 2.289167,0.26105 6.258118,-3.21085 2.037125,-1.782 4.63618,-4.01107 5.775679,-4.95347 1.1395,-0.94241 2.171692,-1.97616 2.293763,-2.29723 0.346713,-0.91192 -0.114109,-2.02595 -1.815446,-4.3888 -0.864844,-1.20111 -1.946148,-2.92715 -2.402901,-3.83566 -1.753499,-3.48778 -1.698228,-2.79205 -1.886677,-23.74817 -0.165503,-18.40444 -0.190672,-19.12173 -0.742776,-21.16667 -0.74086,-2.74409 -2.38964,-6.01213 -3.910139,-7.75029 -4.286821,-4.90048 -11.867657,-7.88757 -21.404885,-8.43419 -3.14401,-0.1802 -8.59906,0.4195 -12.57646,1.38257 -10.70348,2.59172 -17.75437,9.25283 -19.93287,18.83097 -0.48377,2.12696 -0.3145,3.00767 0.68042,3.54013 0.51909,0.27781 7.5067,1.17553 13.48221,1.73211 1.63986,0.15274 1.80775,0.11795 2.429,-0.5033 0.36706,-0.36706 0.79675,-1.18708 0.95486,-1.82227 0.82686,-3.32176 2.78712,-5.82528 5.68114,-7.25558 5.65929,-2.79697 12.44885,-1.25317 14.776047,3.35975 0.976458,1.93551 1.252529,3.65358 1.252529,7.79482 0,4.13967 0.167013,3.9195 -3.174996,4.18559 -6.30363,0.5019 -14.38956,1.73142 -18.42054,2.80097 -5.96934,1.58385 -10.01872,3.78858 -13.59405,7.40141 -3.40397,3.43968 -5.29839,7.11158 -6.23546,12.086 -0.5977,3.17288 -0.40768,9.6443 0.36884,12.56116 1.66444,6.25215 5.86303,10.94199 11.67166,13.03728 3.8536,1.39007 8.60423,1.80295 13.64184,1.1856 z m -0.38032,-14.02945 c -2.51619,-0.99323 -4.59807,-3.60032 -5.29796,-6.63451 -0.66578,-2.88631 -0.17528,-7.306 1.1097,-9.99898 1.41009,-2.95518 5.38981,-5.75582 9.74089,-6.85493 2.30191,-0.58148 7.50266,-1.16486 9.24748,-1.03731 l 1.190625,0.087 0.07243,4.74151 c 0.05103,3.34022 -0.04646,5.43044 -0.329848,7.07262 -0.971169,5.62762 -3.985827,10.20147 -8.039027,12.19685 -2.27399,1.11948 -5.48906,1.29821 -7.6943,0.42772 z"
         style="fill:#9f9e9e;stroke-width:0.26458332" />
      <path
         id="path81"
         d="m -154.83091,285.39828 c -7.09577,-1.06721 -13.185,-5.93765 -15.93474,-12.7453 -1.4535,-3.59851 -1.41093,-1.8152 -1.3318,-55.79325 l 0.0731,-49.86208 0.57222,-1.77831 c 0.64211,-1.99553 1.8715,-4.52598 2.9856,-6.14526 1.35204,-1.96513 4.51573,-4.71696 6.75645,-5.87687 2.24512,-1.16219 5.28215,-2.20417 6.44402,-2.2109 0.56577,-0.003 0.62375,-0.0575 0.30286,-0.28333 -0.30379,-0.21377 -0.19245,-0.2542 0.47467,-0.17236 0.47935,0.0588 0.93286,0.008 1.0078,-0.11354 0.16612,-0.2688 97.569994,-0.29855 97.838657,-0.0299 0.10482,0.10482 0.630679,0.16766 1.168577,0.13964 0.537898,-0.028 0.805826,0.023 0.595397,0.11334 -0.210428,0.0904 0.68254,0.4212 1.984375,0.73522 3.697568,0.89189 6.402199,2.43837 9.256739,5.29291 2.585857,2.58586 4.119623,5.09419 5.237805,8.56595 l 0.567952,1.7634 0.0731,49.86208 c 0.07913,53.97805 0.121697,52.19474 -1.331804,55.79325 -2.088012,5.1694 -6.381657,9.50211 -11.412093,11.51593 -3.873965,1.55086 -1.855112,1.49737 -55.158865,1.46135 -26.86591,-0.0182 -49.44242,-0.12254 -50.17002,-0.23198 z m 40.85266,-28.58061 c 6.19936,-0.80468 10.95933,-3.1897 16.162995,-8.09857 1.008195,-0.95108 1.947153,-1.65873 2.086576,-1.57257 0.139422,0.0862 0.820123,0.95933 1.51267,1.94035 1.830364,2.5928 3.725227,4.73561 5.476242,6.19282 1.71027,1.4233 2.943138,1.66882 4.162999,0.82906 1.876055,-1.2915 11.711188,-10.03595 11.927438,-10.60472 0.367382,-0.96629 -0.0546,-1.97654 -1.902767,-4.55535 -0.886476,-1.23693 -1.911758,-2.83579 -2.278407,-3.55302 -1.590084,-3.11052 -1.496186,-1.87102 -1.685046,-22.24385 -0.185571,-20.0184 -0.213405,-20.45084 -1.579282,-24.53691 -1.007888,-3.01515 -2.464509,-5.2784 -4.837308,-7.51606 -4.045423,-3.81503 -9.079886,-5.8599 -16.87966,-6.85607 -4.12555,-0.52691 -7.63987,-0.41503 -12.5739,0.40032 -12.81517,2.11768 -20.92827,8.94194 -23.52032,19.78385 -0.5112,2.13825 -0.32322,3.0943 0.73884,3.75756 0.52551,0.32819 8.00507,1.31232 13.50089,1.77641 1.98976,0.16801 2.08615,0.14937 2.80934,-0.54349 0.4937,-0.473 0.90819,-1.30598 1.21638,-2.44453 0.95396,-3.52422 3.73857,-6.37679 7.24293,-7.41969 1.75946,-0.52363 5.7465,-0.5971 7.33127,-0.13512 0.59467,0.17336 1.78764,0.77178 2.65105,1.32983 1.24304,0.80342 1.74178,1.34075 2.39576,2.58114 1.123554,2.13104 1.412603,3.75113 1.412603,7.91754 v 3.54686 l -0.859896,0.13829 c -0.472942,0.0761 -2.229117,0.26851 -3.902607,0.42765 -16.43374,1.5628 -24.43649,4.16703 -30.12552,9.80336 -5.40335,5.35331 -7.91075,13.23859 -6.82574,21.46569 0.46116,3.4968 1.52719,6.89158 2.85566,9.09394 2.80095,4.64341 7.70015,7.91901 13.37954,8.94553 2.42172,0.43771 7.32864,0.51041 10.10727,0.14975 z m -0.0663,-14.4305 c -1.85732,-0.59542 -4.15469,-2.92773 -4.93532,-5.01036 -0.73363,-1.9572 -0.99992,-5.93431 -0.54429,-8.12904 1.03393,-4.98041 4.66337,-8.39389 10.5077,-9.88248 2.67811,-0.68212 9.179495,-1.39481 9.96707,-1.09258 0.389551,0.14948 0.441846,0.70084 0.437232,4.60986 -0.0058,4.94954 -0.267312,7.32062 -1.08775,9.86404 -1.301472,4.03465 -4.144782,7.61524 -7.224682,9.09805 -1.96575,0.94641 -5.11222,1.18616 -7.11996,0.54251 z"
         style="fill:#f4951b;stroke-width:0.26458332" />
      <path
         id="path79"
         d="m -154.83091,285.39828 c -7.09577,-1.06721 -13.185,-5.93765 -15.93474,-12.7453 -1.4535,-3.59851 -1.41093,-1.8152 -1.3318,-55.79325 l 0.0731,-49.86208 0.57222,-1.77831 c 0.64211,-1.99553 1.8715,-4.52598 2.9856,-6.14526 1.35204,-1.96513 4.51573,-4.71696 6.75645,-5.87687 2.24512,-1.16219 5.28215,-2.20417 6.44402,-2.2109 0.56577,-0.003 0.62375,-0.0575 0.30286,-0.28333 -0.30379,-0.21377 -0.19245,-0.2542 0.47467,-0.17236 0.47935,0.0588 0.93286,0.008 1.0078,-0.11354 0.16612,-0.2688 97.569994,-0.29855 97.838657,-0.0299 0.10482,0.10482 0.630679,0.16766 1.168577,0.13964 0.537898,-0.028 0.805826,0.023 0.595397,0.11334 -0.210428,0.0904 0.68254,0.4212 1.984375,0.73522 3.697568,0.89189 6.402199,2.43837 9.256739,5.29291 2.585857,2.58586 4.119623,5.09419 5.237805,8.56595 l 0.567952,1.7634 0.0731,49.86208 c 0.07913,53.97805 0.121697,52.19474 -1.331804,55.79325 -2.088012,5.1694 -6.381657,9.50211 -11.412093,11.51593 -3.873965,1.55086 -1.855112,1.49737 -55.158865,1.46135 -26.86591,-0.0182 -49.44242,-0.12254 -50.17002,-0.23198 z m 56.501795,-11.65877 c 12.299515,-0.975 25.965352,-5.13482 35.440906,-10.78807 5.085353,-3.03399 6.407248,-4.23828 5.832001,-5.31313 -0.552066,-1.03155 -1.412496,-0.9541 -4.979026,0.44816 -9.595482,3.77267 -20.502961,6.41569 -31.015473,7.51543 -4.900472,0.51266 -17.903763,0.42935 -22.862943,-0.14648 -16.06015,-1.86478 -31.67725,-6.84075 -44.63465,-14.22162 -0.87207,-0.49676 -1.66309,-0.77665 -1.91823,-0.67875 -0.97293,0.37335 -0.41749,1.22126 2.27781,3.47717 17.20277,14.39839 39.44444,21.48416 61.859605,19.70729 z m 45.369091,-6.13722 c 2.618811,-2.68399 4.584221,-6.52006 5.677852,-11.082 0.529633,-2.20928 0.716746,-6.14245 0.321784,-6.76394 -0.981205,-1.54398 -8.671115,-2.10336 -13.546571,-0.98542 -3.545281,0.81294 -7.164694,2.61741 -7.368053,3.67338 -0.0879,0.45641 0.04485,0.4783 1.850745,0.30526 8.433762,-0.80811 10.780082,-0.7868 12.860567,0.11685 1.380344,0.59954 1.75755,1.43087 1.555467,3.4281 -0.183253,1.81112 -1.348957,5.8479 -2.778099,9.62043 -1.501341,3.9631 -1.173085,4.35144 1.426308,1.68734 z m -61.018226,-10.78462 c 6.19936,-0.80468 10.95933,-3.1897 16.162995,-8.09857 1.008195,-0.95108 1.947153,-1.65873 2.086576,-1.57257 0.139422,0.0862 0.820123,0.95933 1.51267,1.94035 1.830364,2.5928 3.725227,4.73561 5.476242,6.19282 1.71027,1.4233 2.943138,1.66882 4.162999,0.82906 1.876055,-1.2915 11.711188,-10.03595 11.927438,-10.60472 0.367382,-0.96629 -0.0546,-1.97654 -1.902767,-4.55535 -0.886476,-1.23693 -1.911758,-2.83579 -2.278407,-3.55302 -1.590084,-3.11052 -1.496186,-1.87102 -1.685046,-22.24385 -0.185571,-20.0184 -0.213405,-20.45084 -1.579282,-24.53691 -1.007888,-3.01515 -2.464509,-5.2784 -4.837308,-7.51606 -4.045423,-3.81503 -9.079886,-5.8599 -16.87966,-6.85607 -4.12555,-0.52691 -7.63987,-0.41503 -12.5739,0.40032 -12.81517,2.11768 -20.92827,8.94194 -23.52032,19.78385 -0.5112,2.13825 -0.32322,3.0943 0.73884,3.75756 0.52551,0.32819 8.00507,1.31232 13.50089,1.77641 1.98976,0.16801 2.08615,0.14937 2.80934,-0.54349 0.4937,-0.473 0.90819,-1.30598 1.21638,-2.44453 0.95396,-3.52422 3.73857,-6.37679 7.24293,-7.41969 1.75946,-0.52363 5.7465,-0.5971 7.33127,-0.13512 0.59467,0.17336 1.78764,0.77178 2.65105,1.32983 1.24304,0.80342 1.74178,1.34075 2.39576,2.58114 1.123554,2.13104 1.412603,3.75113 1.412603,7.91754 v 3.54686 l -0.859896,0.13829 c -0.472942,0.0761 -2.229117,0.26851 -3.902607,0.42765 -16.43374,1.5628 -24.43649,4.16703 -30.12552,9.80336 -5.40335,5.35331 -7.91075,13.23859 -6.82574,21.46569 0.46116,3.4968 1.52719,6.89158 2.85566,9.09394 2.80095,4.64341 7.70015,7.91901 13.37954,8.94553 2.42172,0.43771 7.32864,0.51041 10.10727,0.14975 z m -0.0663,-14.4305 c -1.85732,-0.59542 -4.15469,-2.92773 -4.93532,-5.01036 -0.73363,-1.9572 -0.99992,-5.93431 -0.54429,-8.12904 1.03393,-4.98041 4.66337,-8.39389 10.5077,-9.88248 2.67811,-0.68212 9.179495,-1.39481 9.96707,-1.09258 0.389551,0.14948 0.441846,0.70084 0.437232,4.60986 -0.0058,4.94954 -0.267312,7.32062 -1.08775,9.86404 -1.301472,4.03465 -4.144782,7.61524 -7.224682,9.09805 -1.96575,0.94641 -5.11222,1.18616 -7.11996,0.54251 z"
         style="fill:#706d6d;stroke-width:0.26458332" />
      <path
         id="path77"
         d="m -154.48609,285.38071 c -0.82899,-0.12323 -2.43634,-0.53467 -3.57187,-0.91432 -6.4803,-2.16656 -11.08543,-6.95625 -13.22216,-13.75208 l -0.74871,-2.38125 v -50.40312 -50.40312 l 0.8729,-2.55324 c 1.42994,-4.18256 3.80431,-7.56877 6.70369,-9.56047 l 1.41924,-0.97494 1.32284,0.39999 c 1.18386,0.35797 1.61312,0.35686 4.08572,-0.0105 6.00148,-0.89161 10.31613,-0.95663 56.50394,-0.85156 41.526317,0.0945 46.006112,0.14564 48.286457,0.55152 3.18756,0.56736 5.358149,0.6269 6.211179,0.17037 0.615243,-0.32927 0.780248,-0.27872 2.134285,0.65384 2.915737,2.00815 5.319043,5.38315 6.829035,9.59014 l 0.832792,2.32023 v 50.53542 50.53541 l -0.748707,2.38125 c -2.167578,6.89394 -6.594808,11.44406 -13.496723,13.87137 l -2.687902,0.9453 -49.609376,0.0369 c -27.28515,0.0203 -50.28764,-0.0639 -51.11663,-0.18716 z m 56.156975,-11.6412 c 12.299515,-0.975 25.965352,-5.13482 35.440906,-10.78807 5.085353,-3.03399 6.407248,-4.23828 5.832001,-5.31313 -0.552066,-1.03155 -1.412496,-0.9541 -4.979026,0.44816 -9.595482,3.77267 -20.502961,6.41569 -31.015473,7.51543 -4.900472,0.51266 -17.903763,0.42935 -22.862943,-0.14648 -16.06015,-1.86478 -31.67725,-6.84075 -44.63465,-14.22162 -0.87207,-0.49676 -1.66309,-0.77665 -1.91823,-0.67875 -0.97293,0.37335 -0.41749,1.22126 2.27781,3.47717 17.20277,14.39839 39.44444,21.48416 61.859605,19.70729 z m 45.369091,-6.13722 c 2.618811,-2.68399 4.584221,-6.52006 5.677852,-11.082 0.529633,-2.20928 0.716746,-6.14245 0.321784,-6.76394 -0.981205,-1.54398 -8.671115,-2.10336 -13.546571,-0.98542 -3.545281,0.81294 -7.164694,2.61741 -7.368053,3.67338 -0.0879,0.45641 0.04485,0.4783 1.850745,0.30526 8.433762,-0.80811 10.780082,-0.7868 12.860567,0.11685 1.380344,0.59954 1.75755,1.43087 1.555467,3.4281 -0.183253,1.81112 -1.348957,5.8479 -2.778099,9.62043 -1.501341,3.9631 -1.173085,4.35144 1.426308,1.68734 z M -112.233,256.68122 c 5.32568,-0.93005 9.45553,-3.14623 14.460359,-7.75979 0.968195,-0.89251 1.879616,-1.62274 2.02538,-1.62274 0.145762,0 0.566039,0.50601 0.933947,1.12448 1.881225,3.16238 6.55552,7.92623 8.11285,8.26828 1.151361,0.25288 2.331442,-0.40472 5.040923,-2.80903 1.374796,-1.21996 3.95719,-3.44389 5.738656,-4.94207 2.01657,-1.6959 3.301471,-2.97276 3.404479,-3.38317 0.295243,-1.17635 -0.118647,-2.19347 -1.904304,-4.6797 -1.964748,-2.7356 -2.73885,-4.14899 -3.438843,-6.27879 -0.435964,-1.32647 -0.493784,-3.12882 -0.65355,-20.37292 -0.188827,-20.38093 -0.197479,-20.50778 -1.663819,-24.39365 -3.301147,-8.74822 -13.19206,-13.97093 -26.458538,-13.97093 -14.72698,0 -25.6338,5.8939 -29.9809,16.20129 -1.03941,2.46453 -1.6781,4.80463 -1.6781,6.1484 0,1.45792 1.08042,2.42643 2.93155,2.6279 0.78875,0.0858 3.45814,0.38704 5.932,0.66931 8.64088,0.98596 7.68011,0.98945 8.70107,-0.0315 0.66209,-0.66209 0.97703,-1.29012 1.2102,-2.41329 0.64227,-3.09378 3.40455,-6.05852 6.75748,-7.25277 2.05066,-0.73041 6.97715,-0.66092 8.68613,0.12251 4.113385,1.88566 5.661171,5.46988 5.414127,12.53751 l -0.07735,2.21273 -1.455207,0.18278 c -0.80036,0.10053 -3.30067,0.37697 -5.55625,0.6143 -14.7275,1.54964 -21.86875,3.97437 -27.59229,9.36863 -4.53658,4.27559 -6.96412,9.91113 -7.25792,16.84932 -0.55142,13.02183 6.17782,21.78568 17.93448,23.35704 2.37504,0.31744 7.53234,0.13251 10.43344,-0.37411 z m -0.4343,-14.14765 c -4.86145,-0.83086 -7.64836,-5.70177 -6.84857,-11.96978 0.99842,-7.82461 6.61012,-11.531 18.45861,-12.19143 1.424601,-0.0794 1.994328,-0.0116 2.223674,0.26477 0.427956,0.51566 0.0832,9.69789 -0.450276,11.99281 -0.913268,3.92868 -2.397648,6.75046 -4.693008,8.92132 -2.09019,1.97681 -3.67565,2.70099 -6.80092,3.1064 -0.3638,0.0472 -1.21408,-0.009 -1.88951,-0.12409 z"
         style="fill:#9b703b;stroke-width:0.26458332" />
      <path
         id="path75"
         d="m -154.48609,285.38071 c -0.82899,-0.12323 -2.43634,-0.53467 -3.57187,-0.91432 -6.4803,-2.16656 -11.08543,-6.95625 -13.22216,-13.75208 l -0.74871,-2.38125 v -50.40312 -50.40312 l 0.8729,-2.55324 c 1.42994,-4.18256 3.80431,-7.56877 6.70369,-9.56047 l 1.41924,-0.97494 1.32284,0.39999 c 1.18386,0.35797 1.61312,0.35686 4.08572,-0.0105 6.00148,-0.89161 10.31613,-0.95663 56.50394,-0.85156 41.526317,0.0945 46.006112,0.14564 48.286457,0.55152 3.18756,0.56736 5.358149,0.6269 6.211179,0.17037 0.615243,-0.32927 0.780248,-0.27872 2.134285,0.65384 2.915737,2.00815 5.319043,5.38315 6.829035,9.59014 l 0.832792,2.32023 v 50.53542 50.53541 l -0.748707,2.38125 c -2.167578,6.89394 -6.594808,11.44406 -13.496723,13.87137 l -2.687902,0.9453 -49.609376,0.0369 c -27.28515,0.0203 -50.28764,-0.0639 -51.11663,-0.18716 z m 56.805175,-11.36346 c 13.713954,-1.26516 27.568685,-5.85107 37.548516,-12.42855 2.672768,-1.76156 3.59419,-2.63775 3.59419,-3.41777 0,-0.62414 -1.096351,-1.61183 -1.789165,-1.61183 -0.351224,0 -1.990466,0.53469 -3.642757,1.18818 -9.356666,3.70067 -20.209088,6.35162 -30.51228,7.45333 -5.57366,0.59599 -16.888279,0.59955 -22.660999,0.007 -15.25285,-1.56529 -30.47318,-6.22392 -43.59614,-13.34387 -3.30067,-1.7908 -4.22854,-1.98109 -4.38174,-0.89862 -0.11041,0.78017 0.62286,1.57169 3.92858,4.24063 12.50923,10.09962 26.83304,16.24063 42.92728,18.40411 1.63575,0.21988 3.56941,0.44052 4.29702,0.4903 3.12132,0.21353 11.60728,0.1642 14.287495,-0.0831 z m 44.104237,-5.28935 c 3.18902,-2.62866 6.348907,-9.11817 7.09572,-14.57258 0.737489,-5.38632 -0.389257,-6.21976 -8.337459,-6.16715 -4.995476,0.0331 -7.174857,0.49813 -10.694964,2.2822 -2.343282,1.18764 -2.865469,1.68442 -2.572646,2.4475 0.161491,0.42084 0.417819,0.44266 2.754087,0.2344 1.416812,-0.12629 4.621355,-0.22962 7.121205,-0.22962 4.200612,0 4.60177,0.042 5.291666,0.55452 1.24469,0.92461 1.346851,2.03309 0.503473,5.46297 -0.402791,1.63809 -1.330039,4.55399 -2.060554,6.47979 -0.730512,1.9258 -1.258935,3.68198 -1.174268,3.90261 0.239474,0.62406 1.017503,0.476 2.07374,-0.39464 z M -112.233,256.68122 c 5.32568,-0.93005 9.45553,-3.14623 14.460359,-7.75979 0.968195,-0.89251 1.879616,-1.62274 2.02538,-1.62274 0.145762,0 0.566039,0.50601 0.933947,1.12448 1.881225,3.16238 6.55552,7.92623 8.11285,8.26828 1.151361,0.25288 2.331442,-0.40472 5.040923,-2.80903 1.374796,-1.21996 3.95719,-3.44389 5.738656,-4.94207 2.01657,-1.6959 3.301471,-2.97276 3.404479,-3.38317 0.295243,-1.17635 -0.118647,-2.19347 -1.904304,-4.6797 -1.964748,-2.7356 -2.73885,-4.14899 -3.438843,-6.27879 -0.435964,-1.32647 -0.493784,-3.12882 -0.65355,-20.37292 -0.188827,-20.38093 -0.197479,-20.50778 -1.663819,-24.39365 -3.301147,-8.74822 -13.19206,-13.97093 -26.458538,-13.97093 -14.72698,0 -25.6338,5.8939 -29.9809,16.20129 -1.03941,2.46453 -1.6781,4.80463 -1.6781,6.1484 0,1.45792 1.08042,2.42643 2.93155,2.6279 0.78875,0.0858 3.45814,0.38704 5.932,0.66931 8.64088,0.98596 7.68011,0.98945 8.70107,-0.0315 0.66209,-0.66209 0.97703,-1.29012 1.2102,-2.41329 0.64227,-3.09378 3.40455,-6.05852 6.75748,-7.25277 2.05066,-0.73041 6.97715,-0.66092 8.68613,0.12251 4.113385,1.88566 5.661171,5.46988 5.414127,12.53751 l -0.07735,2.21273 -1.455207,0.18278 c -0.80036,0.10053 -3.30067,0.37697 -5.55625,0.6143 -14.7275,1.54964 -21.86875,3.97437 -27.59229,9.36863 -4.53658,4.27559 -6.96412,9.91113 -7.25792,16.84932 -0.55142,13.02183 6.17782,21.78568 17.93448,23.35704 2.37504,0.31744 7.53234,0.13251 10.43344,-0.37411 z m -0.4343,-14.14765 c -4.86145,-0.83086 -7.64836,-5.70177 -6.84857,-11.96978 0.99842,-7.82461 6.61012,-11.531 18.45861,-12.19143 1.424601,-0.0794 1.994328,-0.0116 2.223674,0.26477 0.427956,0.51566 0.0832,9.69789 -0.450276,11.99281 -0.913268,3.92868 -2.397648,6.75046 -4.693008,8.92132 -2.09019,1.97681 -3.67565,2.70099 -6.80092,3.1064 -0.3638,0.0472 -1.21408,-0.009 -1.88951,-0.12409 z"
         style="fill:#514e4e;stroke-width:0.26458332" />
      <path
         id="path73"
         d="m -154.16945,285.3975 c -9.56719,-1.60554 -16.27579,-8.45859 -17.75509,-18.13737 -0.14538,-0.95121 -0.2163,-21.42887 -0.17457,-50.40313 l 0.0703,-48.80102 0.60244,-1.85208 c 0.68074,-2.09279 2.19912,-5.25579 2.95565,-6.15701 0.45753,-0.54504 0.61239,-0.57654 1.66961,-0.33962 1.38841,0.31115 3.1457,0.0593 5.35563,-0.76755 3.07191,-1.14937 5.51956,-1.84923 7.64379,-2.18561 3.05673,-0.48404 95.200722,-0.49718 98.690081,-0.0141 1.330061,0.18415 3.687569,0.80093 5.423958,1.41902 5.09991,1.81539 5.937168,1.9847 7.43929,1.50434 l 1.276051,-0.40806 0.781177,1.09303 c 1.110903,1.55439 2.098587,3.59643 2.464572,5.0955 0.173109,0.70906 0.446389,1.4563 0.607288,1.66055 0.371231,0.47123 0.559792,97.70612 0.194206,100.14598 -0.626387,4.1804 -2.205579,7.83305 -4.687382,10.84186 -2.640885,3.20167 -5.780351,5.22021 -10.427824,6.70465 l -2.248958,0.71834 -49.344789,0.041 c -27.13963,0.0226 -49.88057,-0.0489 -50.53541,-0.15878 z m 57.188106,-11.3921 c 11.894619,-1.21891 24.817262,-5.21542 33.69626,-10.42104 6.226154,-3.65029 7.613766,-5.10003 6.217708,-6.49609 -0.773692,-0.77369 -1.568209,-0.66595 -5.130207,0.69568 -10.293251,3.93475 -20.462638,6.38823 -30.720833,7.41175 -5.585936,0.55735 -16.038244,0.55486 -21.865024,-0.005 -10.35004,-0.99481 -21.58258,-3.68171 -31.31622,-7.49105 -4.04505,-1.58306 -11.45055,-5.08203 -13.88157,-6.55879 -1.6875,-1.0251 -2.76578,-1.18394 -3.15098,-0.46417 -0.48854,0.91283 0.38007,1.83986 5.37223,5.73357 10.42105,8.12805 22.77084,13.75106 35.7374,16.27167 2.18281,0.42433 5.09984,0.89944 6.48229,1.05581 1.38245,0.15636 2.87073,0.32594 3.30729,0.37684 1.91829,0.22363 12.762089,0.14615 15.251656,-0.10897 z m 44.303358,-6.17624 c 3.318854,-3.46907 5.923563,-9.49934 6.359141,-14.72231 0.229605,-2.75318 -0.125195,-3.77675 -1.499783,-4.32675 -2.672654,-1.06938 -9.379616,-1.21595 -13.205951,-0.28859 -3.535556,0.85688 -7.155296,2.86011 -7.155296,3.95986 0,0.82872 0.342307,0.87211 3.836392,0.48626 3.594518,-0.39694 8.930909,-0.43586 10.231498,-0.0746 0.534056,0.14833 1.246812,0.49302 1.583896,0.76597 1.2221,0.9896 0.565251,4.7267 -2.082302,11.84712 -0.660231,1.77566 -1.129697,3.41276 -1.043258,3.63802 0.330769,0.86197 1.337686,0.42716 2.975663,-1.28496 z m -61.267864,-10.7517 c 6.1075,-0.75023 11.14978,-3.25233 16.235931,-8.0567 1.002694,-0.94714 1.855986,-1.72207 1.896205,-1.72207 0.04022,0 0.759846,0.98226 1.599176,2.18281 1.724306,2.46639 3.861416,4.81531 5.751653,6.32169 1.566748,1.2486 2.78308,1.35489 4.234338,0.37004 0.527177,-0.35775 2.835746,-2.29419 5.130152,-4.30318 2.294405,-2.009 4.674044,-4.05504 5.288089,-4.54674 1.36036,-1.08934 1.797584,-2.20164 1.359453,-3.45846 -0.170455,-0.48897 -1.112232,-1.99676 -2.092836,-3.35063 -0.980604,-1.35388 -2.181976,-3.38756 -2.669722,-4.51929 l -0.886807,-2.0577 -0.162446,-18.78541 c -0.108156,-12.50732 -0.265591,-19.34123 -0.471085,-20.44851 -1.368079,-7.37182 -4.856491,-12.22949 -11.038115,-15.37077 -4.066717,-2.06655 -11.506966,-3.73107 -16.692896,-3.7345 -6.4533,-0.004 -14.16165,1.75419 -19.0207,4.33906 -6.76694,3.59981 -11.3803,9.72152 -12.81259,17.00172 -0.27,1.3724 -0.25415,1.71605 0.11181,2.42374 0.23454,0.45353 0.68556,0.96329 1.00228,1.1328 0.57955,0.31017 12.62032,1.79952 14.67801,1.81556 1.52516,0.0119 2.47792,-0.97356 3.09445,-3.20065 1.17502,-4.24447 4.40805,-7.00488 8.9855,-7.67195 4.53035,-0.6602 8.31698,0.80465 10.14548,3.92477 1.03605,1.76787 1.400217,3.75846 1.404847,7.679 0.0048,4.09089 0.549632,3.6004 -4.493787,4.04574 -16.18955,1.42957 -24.6144,4.21744 -30.48463,10.08766 -6.12349,6.1235 -8.36718,15.26866 -6.12467,24.96382 1.42338,6.15374 5.93256,11.36277 11.80034,13.63181 3.78405,1.46327 9.03293,1.94504 14.23257,1.30634 z m -0.10875,-14.95934 c -1.78819,-0.57072 -3.84918,-2.66374 -4.67681,-4.74951 -0.54544,-1.37458 -0.62697,-2.02516 -0.62897,-5.01888 -0.002,-3.19263 0.0522,-3.56975 0.75721,-5.25249 1.54342,-3.68411 5.18237,-6.44245 9.97837,-7.56366 2.33769,-0.54651 6.54002,-1.07447 8.55221,-1.07447 h 1.20105 l -0.0052,4.43177 c -0.0061,5.15989 -0.255778,7.21079 -1.2406,10.19056 -0.80478,2.43499 -2.766,5.57261 -4.25821,6.81239 -0.53803,0.44702 -1.73008,1.18502 -2.649,1.64001 -2.04348,1.0118 -4.93698,1.25229 -7.03,0.58428 z"
         style="fill:#302e2e;stroke-width:0.26458332" />
      <path
         id="path71"
         d="m -153.64029,285.39869 c -0.80036,-0.0981 -1.33614,-0.2043 -1.19062,-0.23603 0.14552,-0.0317 -0.62839,-0.29086 -1.71979,-0.57583 -7.22435,-1.88635 -12.68288,-7.34272 -14.53973,-14.53398 -0.28181,-1.0914 -0.53645,-1.80578 -0.56585,-1.5875 -0.33413,2.48012 -0.44781,-10.28738 -0.44996,-50.53541 -0.002,-40.35463 0.1156,-53.23627 0.45833,-50.13854 0.033,0.29825 0.19715,0.01 0.37618,-0.66146 0.2175,-0.81529 0.44016,-1.16221 0.70631,-1.10051 0.89547,0.20762 3.9109,0.0844 4.96236,-0.20281 0.74521,-0.20354 1.6525,-0.79636 2.64584,-1.72878 3.32988,-3.12568 4.77669,-3.96483 8.2923,-4.80958 1.82229,-0.43787 4.99809,-0.47345 48.25276,-0.54061 26.968372,-0.0419 47.42506,0.0305 48.991497,0.17336 5.172588,0.4717 7.571798,1.49958 10.959411,4.69529 2.337724,2.20528 3.936418,2.81475 6.721398,2.56238 l 1.942288,-0.176 0.258635,1.15894 c 0.193993,0.86929 0.27544,0.99363 0.325869,0.49749 0.342514,-3.3697 0.461169,9.56457 0.461169,50.27083 0,40.24605 -0.113064,53.0171 -0.447403,50.53541 -0.02941,-0.21828 -0.28404,0.4961 -0.565851,1.5875 -1.444439,5.59407 -5.28848,10.42887 -10.306396,12.96276 -1.710579,0.86379 -4.786812,1.8522 -5.782558,1.85796 -0.475411,0.003 -0.588365,0.0747 -0.352341,0.22435 0.212294,0.13463 -0.446328,0.28739 -1.693566,0.39283 -2.684676,0.22693 -95.853292,0.13918 -97.740282,-0.0921 z m 60.192708,-11.49201 c 4.069331,-0.66502 10.114287,-1.93029 12.170833,-2.54748 7.923632,-2.37794 15.586942,-5.7661 20.845093,-9.21618 4.222504,-2.77055 4.816078,-3.61765 3.60966,-5.15136 -0.678582,-0.86268 -1.857885,-0.92134 -3.635914,-0.18087 -9.731523,4.05278 -22.324557,7.17837 -32.592797,8.08952 -5.653225,0.50165 -15.841363,0.49478 -21.628573,-0.0145 -14.76497,-1.29951 -31.20386,-6.29468 -44.03562,-13.38082 -3.14265,-1.73548 -3.95504,-1.894 -4.60701,-0.89896 -0.3951,0.603 -0.39671,0.71747 -0.0181,1.29522 0.9544,1.45659 8.66753,7.36666 13.40394,10.27055 10.17166,6.23626 22.24333,10.37331 34.92585,11.96936 4.19755,0.52825 17.800743,0.38035 21.562687,-0.23443 z m 40.787725,-5.67883 c 3.736242,-3.77207 6.516489,-10.53281 6.554674,-15.93902 0.02146,-3.03862 -0.216702,-3.4365 -2.47595,-4.13639 -1.164402,-0.36072 -2.449253,-0.45535 -6.104993,-0.44963 -3.985193,0.006 -4.917781,0.0896 -6.694527,0.59829 -5.253079,1.50402 -8.521239,4.02287 -6.569656,5.06339 0.256018,0.13651 1.832538,0.0721 3.871475,-0.1582 3.963033,-0.4476 9.674886,-0.35549 10.774116,0.17374 1.00261,0.48271 1.339731,1.65081 0.997755,3.45714 -0.435012,2.29777 -1.294604,5.16928 -2.562162,8.55902 -1.330441,3.55791 -1.349584,4.39208 -0.100793,4.39208 0.581761,0 1.133838,-0.37292 2.310061,-1.56042 z m -61.425223,-10.90372 c 6.18737,-0.75824 10.7908,-3.00111 16.296516,-7.93993 l 2.009018,-1.80216 1.519211,2.21371 c 1.672831,2.43756 5.733682,6.5852 6.870618,7.01746 1.943312,0.73885 2.371458,0.49625 8.423613,-4.77312 7.48456,-6.5165 6.817479,-5.8225 6.817479,-7.09252 0,-1.33411 -0.148037,-1.64102 -2.120267,-4.39576 -1.796317,-2.50902 -2.749847,-4.33122 -3.355145,-6.4117 -0.388963,-1.33691 -0.465828,-3.86774 -0.620881,-20.4435 -0.189474,-20.2552 -0.183076,-20.15947 -1.600544,-23.94799 -0.972855,-2.60019 -2.338763,-4.6626 -4.466246,-6.74368 -3.254616,-3.18362 -7.751278,-5.39635 -13.543996,-6.66477 -2.388256,-0.52295 -3.491556,-0.5993 -8.688756,-0.60126 -6.82128,-0.003 -9.46092,0.35358 -14.02291,1.89205 -6.79588,2.29182 -11.41167,5.75577 -14.75613,11.07383 -1.6897,2.68681 -3.23554,7.19068 -3.23554,9.42687 0,2.10749 0.94346,2.85507 3.96875,3.14479 1.09141,0.10452 4.34028,0.45411 7.21971,0.77688 4.31666,0.48387 5.3741,0.52937 6.02613,0.25929 1.02839,-0.42598 1.74711,-1.46115 2.0963,-3.0193 1.13247,-5.05335 6.09853,-8.23344 12.03431,-7.70637 3.43298,0.30484 5.89803,1.92258 7.17111,4.70618 0.716231,1.56605 0.765218,1.90241 0.858979,5.89778 l 0.09943,4.23701 -4.589969,0.47395 c -7.18372,0.74179 -13.09752,1.69481 -16.78067,2.70425 -8.84984,2.42547 -14.59848,6.81996 -17.98415,13.74778 -1.82337,3.73103 -2.50118,6.8698 -2.50118,11.58242 0,9.00389 2.95861,15.19721 9.20909,19.27757 2.06407,1.34744 5.82471,2.72819 8.50573,3.12295 2.19219,0.32278 6.45107,0.31686 9.14039,-0.0127 z m 0.0656,-15.41464 c -2.2234,-0.8279 -4.05445,-2.93737 -4.83737,-5.57289 -0.22447,-0.75558 -0.38762,-2.38832 -0.38762,-3.87903 0,-4.15444 1.14356,-7.01581 3.73513,-9.34584 2.7716,-2.49191 7.43222,-3.98983 13.41082,-4.31023 l 3.016293,-0.16165 -0.111279,5.66432 c -0.10859,5.52738 -0.131873,5.72651 -0.963214,8.2371 -1.44896,4.37581 -3.83678,7.38148 -7.13106,8.97621 -1.54484,0.74785 -5.20386,0.96093 -6.7317,0.39201 z"
         style="fill:#000000;stroke-width:0.26458332" />
    </g>
  </g>
</svg>
