<?xml version="1.0" encoding="UTF-8" standalone="no"?>
<svg
   xmlns:dc="http://purl.org/dc/elements/1.1/"
   xmlns:cc="http://creativecommons.org/ns#"
   xmlns:rdf="http://www.w3.org/1999/02/22-rdf-syntax-ns#"
   xmlns:svg="http://www.w3.org/2000/svg"
   xmlns="http://www.w3.org/2000/svg"
   id="svg8"
   version="1.1"
   viewBox="0 0 54.768749 64.293752"
   height="243"
   width="207">
  <defs
     id="defs2" />
  <metadata
     id="metadata5">
    <rdf:RDF>
      <cc:Work
         rdf:about="">
        <dc:format>image/svg+xml</dc:format>
        <dc:type
           rdf:resource="http://purl.org/dc/dcmitype/StillImage" />
        <dc:title></dc:title>
      </cc:Work>
    </rdf:RDF>
  </metadata>
  <g
     transform="translate(0,-232.70623)"
     id="layer1">
    <g
       transform="matrix(1.0034426,0,0,1.0034426,-69.975857,2.2334841)"
       id="g21">
      <path
         id="path35"
         d="m 89.385733,292.76018 c -0.979857,-0.36818 -1.957423,-1.30114 -2.411867,-2.3018 -0.415618,-0.91516 -0.494591,-1.76839 -0.499495,-5.39651 l -0.0058,-4.30948 -1.259694,-0.006 c -2.941573,-0.0148 -4.892926,-1.22254 -5.381989,-3.33112 -0.132457,-0.57108 -0.243678,-6.48959 -0.247158,-13.15223 -0.0056,-10.66459 0.04353,-12.16376 0.410414,-12.53064 0.369945,-0.36994 2.273707,-0.41673 16.953778,-0.41673 14.680068,0 16.583828,0.0468 16.953768,0.41674 0.36689,0.36688 0.41599,1.86605 0.41042,12.53064 -0.003,6.66264 -0.1147,12.58115 -0.24716,13.15223 -0.48906,2.10858 -2.44041,3.31635 -5.38199,3.33112 l -1.25969,0.006 v 4.31959 c 0,3.95217 -0.0508,4.42023 -0.5967,5.50287 -0.79203,1.57065 -2.56526,2.51637 -4.20026,2.24013 -1.52529,-0.25769 -3.009895,-1.64295 -3.393502,-3.16639 -0.162742,-0.64631 -0.295896,-2.91235 -0.295896,-5.03565 v -3.86055 h -1.98899 -1.988991 l -0.0015,3.91168 c -8.22e-4,2.15143 -0.131024,4.38904 -0.289356,4.97248 -0.61351,2.26074 -3.316998,3.86062 -5.278333,3.12363 z M 72.409097,274.03977 c -1.731776,-1.2026 -1.719876,-1.12353 -1.719876,-11.42758 0,-10.38706 -0.04443,-10.12209 1.898672,-11.32299 0.744585,-0.46018 1.212535,-0.54439 2.505425,-0.45087 1.407402,0.1018 1.702398,0.22756 2.570848,1.09601 l 0.981018,0.98102 v 9.80351 9.80352 l -0.985793,0.98579 c -0.89377,0.89377 -1.141329,0.99481 -2.651987,1.08234 -1.427711,0.0827 -1.799609,0.004 -2.598307,-0.55075 z m 44.955103,0.35859 c -0.29172,-0.12146 -0.88841,-0.59908 -1.32599,-1.06139 l -0.7956,-0.84057 v -9.79052 -9.79052 l 0.98102,-0.98102 c 0.86845,-0.86845 1.16344,-0.99421 2.57085,-1.09601 1.29289,-0.0935 1.76084,-0.009 2.50542,0.45087 1.945,1.20207 1.89867,0.92319 1.89867,11.42967 0,10.47449 0.0393,10.23192 -1.84883,11.39888 -0.90626,0.5601 -2.96597,0.70512 -3.98554,0.28061 z M 79.913678,250.18823 c -0.682939,-0.88766 0.27361,-4.73768 1.836441,-7.39149 1.230463,-2.08943 3.852891,-4.86492 5.367114,-5.68038 1.10803,-0.59672 1.143731,-0.81129 0.333994,-2.00745 -0.990165,-1.46269 -1.842015,-3.40007 -1.680288,-3.82152 0.299915,-0.78157 1.133259,-0.40073 1.978938,0.90438 0.462143,0.7132 0.84026,1.42008 0.84026,1.57084 0,0.15076 0.303094,0.63431 0.673542,1.07456 0.651786,0.77461 0.705324,0.78927 1.657492,0.45398 0.541173,-0.19057 2.125205,-0.55169 3.520071,-0.8025 2.399758,-0.4315 2.670683,-0.43141 5.038775,0.002 1.376463,0.25175 2.966513,0.62032 3.533453,0.81903 1.1924,0.41795 1.40238,0.26251 2.28477,-1.6913 1.04737,-2.31909 2.39535,-3.43373 2.81862,-2.3307 0.16172,0.42145 -0.69013,2.35884 -1.68029,3.82152 -0.33468,0.4944 -0.60851,0.99586 -0.60851,1.11436 0,0.1185 0.54708,0.59186 1.21575,1.05191 1.89777,1.3057 3.85034,3.42496 5.09387,5.52873 1.56158,2.64185 2.52003,6.49581 1.83644,7.38433 -0.37253,0.48419 -33.687918,0.48419 -34.060442,0 z m 10.00897,-6.96932 c 0.413234,-0.49791 -0.04452,-1.71594 -0.644886,-1.71594 -0.469174,0 -1.218023,0.71275 -1.218023,1.1593 0,0.88561 1.273967,1.26627 1.862909,0.55664 z m 15.587172,0.0874 c 0.43221,-0.43221 0.39981,-0.8883 -0.0985,-1.38661 -0.60052,-0.60053 -1.14168,-0.51361 -1.48432,0.2384 -0.50178,1.10128 0.73359,1.99744 1.58283,1.14821 z"
         style="fill:#f4f8e8;stroke-width:0.26519877" />
      <path
         id="path33"
         d="m 88.6794,292.15585 c -1.684976,-1.11133 -1.79976,-1.51028 -1.945654,-6.76248 l -0.1326,-4.77358 -2.053345,-0.14566 c -2.187529,-0.15519 -2.977857,-0.53668 -4.02984,-1.94521 -0.531947,-0.71224 -0.548785,-1.07781 -0.620559,-13.47257 -0.05392,-9.31205 0.0083,-12.83941 0.231371,-13.10814 0.454947,-0.54818 33.175297,-0.54818 33.630247,0 0.22304,0.26873 0.2853,3.79609 0.23137,13.10814 -0.0718,12.39476 -0.0886,12.76033 -0.62056,13.47257 -1.05198,1.40853 -1.84231,1.79002 -4.02984,1.94521 l -2.05334,0.14566 -0.1326,4.77358 c -0.12214,4.39696 -0.17926,4.839 -0.72408,5.60278 -1.63217,2.28818 -4.73733,2.16133 -6.5525,-0.26767 -0.489989,-0.65569 -0.560558,-1.2187 -0.679383,-5.42019 l -0.1326,-4.6885 h -2.121589 -2.12159 l -0.1326,4.6885 c -0.118826,4.20149 -0.189395,4.7645 -0.679383,5.42019 -1.383343,1.85115 -3.734087,2.48057 -5.330925,1.42737 z M 74.246483,274.39379 c -1.537258,-0.19403 -2.431171,-0.77729 -2.987223,-1.94908 -0.379293,-0.7993 -0.437439,-2.09797 -0.437439,-9.77005 0,-8.12404 0.04044,-8.92385 0.49409,-9.77228 1.341407,-2.50872 4.943629,-2.64001 6.713465,-0.24467 0.438204,0.59307 0.479028,1.42008 0.493076,9.98877 0.009,5.46627 -0.08983,9.53724 -0.238123,9.81235 -0.383812,0.71207 -1.415868,1.60061 -2.158533,1.85837 -0.364649,0.12657 -1.21034,0.16103 -1.879313,0.0766 z m 43.308807,-0.15185 c -0.88414,-0.37175 -2.17844,-1.82984 -2.18398,-2.46036 -0.002,-0.24406 -0.005,-4.49861 -0.007,-9.45456 -0.003,-8.33348 0.0338,-9.05987 0.48439,-9.66337 0.90065,-1.20633 1.77424,-1.66905 3.17793,-1.68326 1.63522,-0.0166 2.86492,0.65015 3.54497,1.92199 0.45365,0.84843 0.49409,1.64824 0.49409,9.77228 0,9.63122 -0.0737,10.16695 -1.53058,11.12152 -0.90544,0.59326 -3.05637,0.83416 -3.9801,0.44576 z M 79.985859,249.925 c -0.274784,-0.89152 0.376259,-4.1969 1.110376,-5.63744 1.466727,-2.87812 3.969826,-5.68777 6.283201,-7.05269 0.520026,-0.30683 0.943539,-0.63558 0.94114,-0.73057 -0.0024,-0.095 -0.292333,-0.65006 -0.644297,-1.2335 -0.880379,-1.45937 -1.73813,-3.30823 -1.73813,-3.74649 0,-0.20025 0.208844,-0.36261 0.464098,-0.3608 0.491585,0.003 1.352048,1.16844 2.397096,3.2454 0.348608,0.69283 0.804361,1.25969 1.012785,1.25969 0.208424,0 1.301639,-0.25457 2.429367,-0.56572 2.659269,-0.7337 6.370932,-0.7842 8.945585,-0.12172 1.02101,0.26272 2.05695,0.5843 2.30207,0.71463 0.55294,0.29399 1.1805,-0.28165 1.78917,-1.64115 0.7044,-1.57333 1.7096,-2.89066 2.20723,-2.89261 0.83758,-0.003 0.64352,0.61015 -1.32931,4.20171 l -0.60002,1.09233 1.00427,0.73336 c 2.89216,2.11197 4.79431,4.27882 6.23107,7.09813 0.53983,1.0593 1.23545,4.04454 1.17413,5.03878 l -0.0491,0.79559 -16.913992,0.0683 c -13.400653,0.0541 -16.935338,-0.001 -17.016769,-0.2652 z m 10.029306,-6.52855 c 0.693202,-0.76597 0.169945,-1.89348 -0.878736,-1.89348 -1.084875,0 -1.546914,0.84099 -0.956825,1.74158 0.504502,0.76997 1.222453,0.82938 1.835561,0.1519 z m 15.693025,-0.1519 c 0.59009,-0.90059 0.12805,-1.74158 -0.95682,-1.74158 -1.04869,0 -1.57194,1.12751 -0.87874,1.89348 0.61311,0.67748 1.33106,0.61807 1.83556,-0.1519 z"
         style="fill:#e9f1d1;stroke-width:0.26519877" />
      <path
         id="path31"
         d="m 89.783531,292.49201 c -0.986384,-0.24697 -2.048357,-1.20643 -2.544467,-2.29883 -0.415617,-0.91516 -0.494591,-1.76839 -0.499494,-5.39651 l -0.0058,-4.30948 -1.259694,-0.006 c -2.941573,-0.0148 -4.892927,-1.22254 -5.381989,-3.33112 -0.132457,-0.57108 -0.243678,-6.37024 -0.247158,-12.88703 -0.0056,-10.4235 0.0438,-11.89883 0.410414,-12.26544 0.369799,-0.3698 2.249597,-0.41674 16.688579,-0.41674 14.438978,0 16.318778,0.0469 16.688578,0.41674 0.36661,0.36661 0.41598,1.84194 0.41041,12.26544 -0.003,6.51679 -0.1147,12.31595 -0.24716,12.88703 -0.48906,2.10858 -2.44041,3.31635 -5.38199,3.33112 l -1.25969,0.006 v 4.31959 c 0,3.95217 -0.0507,4.42023 -0.5967,5.50287 -0.44844,0.88929 -0.90736,1.33742 -1.84707,1.80363 -1.11579,0.55357 -1.35841,0.58581 -2.25419,0.29951 -2.560815,-0.81847 -3.257999,-2.55786 -3.257999,-8.12835 v -3.79725 h -2.254189 -2.25419 v 3.79725 c 0,4.32402 -0.36815,6.04927 -1.518658,7.11683 -0.644722,0.59824 -2.244187,1.34189 -2.697796,1.2543 -0.08763,-0.0169 -0.398004,-0.0905 -0.689723,-0.16356 z M 72.799462,273.9093 c -0.44382,-0.27931 -1.040517,-0.85282 -1.325994,-1.27446 -0.490421,-0.72433 -0.519048,-1.27122 -0.519048,-9.91597 v -9.14935 l 0.617605,-0.8659 c 0.890897,-1.24906 1.988705,-1.7381 3.562284,-1.5869 1.062862,0.10213 1.488769,0.30693 2.276571,1.09473 l 0.969105,0.96911 v 9.53831 9.53832 l -0.975523,0.97552 c -0.831677,0.83168 -1.183623,0.99093 -2.386789,1.07998 -1.065055,0.0788 -1.609224,-0.0201 -2.218211,-0.40339 z m 44.829938,0.22386 c -0.29172,-0.12145 -0.88842,-0.59908 -1.32599,-1.06139 l -0.7956,-0.84057 v -9.52532 -9.52532 l 0.96911,-0.96911 c 1.73846,-1.73846 4.40836,-1.51341 5.83885,0.49217 l 0.6176,0.8659 v 9.14935 9.14936 l -0.6176,0.8659 c -0.33968,0.47624 -0.96029,1.04311 -1.37912,1.25969 -0.82309,0.42564 -2.45454,0.49438 -3.30725,0.13934 z M 80.435275,250.0789 c -0.449395,-0.18134 -0.417138,-1.6715 0.0775,-3.58038 0.82818,-3.19605 4.050511,-7.45963 6.899876,-9.12947 1.057077,-0.61949 1.129959,-0.73012 0.892476,-1.35475 -0.14223,-0.37409 -0.473335,-0.99277 -0.735788,-1.37483 -0.968008,-1.40917 -1.663876,-3.02225 -1.412299,-3.27382 0.344829,-0.34483 1.185309,0.61078 2.0631,2.3457 1.176345,2.325 1.176613,2.3251 4.233017,1.53927 3.458013,-0.88908 5.395118,-0.88836 8.956403,0.003 3.2828,0.82197 3.03964,0.91206 4.24956,-1.57436 0.78594,-1.61514 1.72337,-2.66222 2.07163,-2.31396 0.26079,0.26079 -0.42114,1.79761 -1.55421,3.50262 -0.86957,1.30851 -0.77595,1.724 0.60207,2.67211 1.88803,1.29899 3.84848,3.42176 5.07152,5.49141 1.68296,2.84797 2.50509,6.68161 1.5144,7.06177 -0.50131,0.19237 -32.451432,0.17814 -32.929258,-0.0147 z m 9.421847,-6.33677 c 1.012923,-0.70948 0.586933,-2.50435 -0.594376,-2.50435 -1.38164,0 -1.98785,1.72754 -0.8788,2.50435 0.324174,0.22706 0.655638,0.41283 0.736588,0.41283 0.08095,0 0.412415,-0.18577 0.736588,-0.41283 z m 15.646728,0 c 1.10905,-0.77681 0.50284,-2.50435 -0.8788,-2.50435 -1.18131,0 -1.6073,1.79487 -0.59438,2.50435 0.32417,0.22706 0.65564,0.41283 0.73659,0.41283 0.081,0 0.41242,-0.18577 0.73659,-0.41283 z"
         style="fill:#d9e6ad;stroke-width:0.26519877" />
      <path
         id="path29"
         d="m 88.936045,291.90241 c -1.655932,-1.00969 -1.790804,-1.48045 -1.937101,-6.76134 l -0.132599,-4.78648 -2.084968,-0.16927 c -2.210924,-0.17951 -2.96927,-0.54397 -3.998217,-1.92154 -0.531418,-0.71147 -0.548928,-1.08254 -0.623082,-13.20433 -0.05611,-9.17162 0.0051,-12.57039 0.231372,-12.84301 0.459339,-0.55347 32.64556,-0.55347 33.1049,0 0.22624,0.27262 0.28747,3.67139 0.23137,12.84301 -0.0742,12.12179 -0.0917,12.49286 -0.62309,13.20433 -1.02894,1.37757 -1.78729,1.74203 -3.99821,1.92154 l -2.08497,0.16927 -0.1326,4.82145 c -0.11913,4.33186 -0.1882,4.89737 -0.68011,5.56917 -0.78869,1.0771 -2.31437,1.7702 -3.4342,1.56012 -1.06812,-0.20038 -2.43702,-1.27586 -2.860629,-2.24747 -0.164622,-0.37758 -0.363192,-2.71528 -0.441267,-5.19489 l -0.141958,-4.50838 h -2.386788 -2.386789 l -0.141957,4.50838 c -0.147418,4.68179 -0.308363,5.44368 -1.354799,6.41341 -1.300398,1.20507 -2.801069,1.43286 -4.124308,0.62603 z M 72.915106,273.72544 c -0.380216,-0.20666 -0.917244,-0.70907 -1.193395,-1.11647 -0.468641,-0.69139 -0.502092,-1.3503 -0.502092,-9.8901 0,-8.54865 0.03306,-9.19812 0.50348,-9.8922 0.686262,-1.01254 1.751413,-1.51134 3.227332,-1.51134 1.084209,0 1.365495,0.12773 2.26736,1.02959 l 1.029595,1.0296 v 9.34435 9.34436 l -1.029595,1.0296 c -0.919156,0.91915 -1.168063,1.02845 -2.320489,1.01897 -0.709992,-0.006 -1.60198,-0.1797 -1.982196,-0.38636 z m 43.754894,-0.63261 -1.02959,-1.0296 v -9.34436 -9.34435 l 1.02959,-1.0296 c 0.90187,-0.90186 1.18316,-1.02959 2.26736,-1.02959 1.47592,0 2.54107,0.4988 3.22734,1.51134 0.47042,0.69408 0.50348,1.34355 0.50348,9.8922 0,8.54865 -0.0331,9.19813 -0.50348,9.89221 -0.68627,1.01254 -1.75142,1.51134 -3.22734,1.51134 -1.0842,0 -1.36549,-0.12773 -2.26736,-1.02959 z M 80.43619,248.33184 c 0.169761,-2.01227 0.64993,-3.43973 1.826237,-5.42909 1.076263,-1.82016 3.868602,-4.66439 5.292422,-5.39077 1.197121,-0.61073 1.255575,-0.93325 0.438591,-2.41994 -1.277729,-2.32513 -1.725131,-3.27405 -1.603731,-3.40142 0.196903,-0.20659 1.36894,1.34342 1.905035,2.51939 0.265974,0.58344 0.720679,1.27102 1.010457,1.52796 0.473176,0.41955 0.632499,0.42996 1.563394,0.10213 0.57009,-0.20077 2.181388,-0.57089 3.580663,-0.8225 2.380983,-0.42813 2.693639,-0.42945 4.875403,-0.0206 1.282199,0.24026 2.863369,0.61749 3.513709,0.83829 1.09796,0.37277 1.2209,0.36694 1.72061,-0.0815 0.29599,-0.26562 0.83108,-1.09925 1.18909,-1.85249 0.60814,-1.27953 1.54578,-2.43449 1.77541,-2.18692 0.0555,0.0599 -0.15403,0.59606 -0.46572,1.19152 -0.31169,0.59545 -0.86433,1.65063 -1.22808,2.34484 l -0.66138,1.2622 0.71343,0.57234 c 0.39238,0.31479 1.33518,1.0497 2.0951,1.63314 3.09897,2.37926 5.52959,6.83071 5.53884,10.14385 l 0.003,1.12709 H 96.907589 80.296359 Z m 9.578751,-4.52391 c 0.655754,-0.52474 0.735821,-0.72792 0.575141,-1.45948 -0.21905,-0.99733 -0.92304,-1.45658 -1.868899,-1.21919 -1.280912,0.32149 -1.549325,1.63153 -0.540899,2.63996 0.797887,0.79789 0.883661,0.79969 1.834657,0.0387 z m 15.692569,-0.0387 c 1.00843,-1.00843 0.74001,-2.31847 -0.5409,-2.63996 -0.94586,-0.23739 -1.64985,0.22186 -1.8689,1.21919 -0.16068,0.73156 -0.0806,0.93474 0.57514,1.45948 0.951,0.76098 1.03677,0.75918 1.83466,-0.0387 z"
         style="fill:#c1d87a;stroke-width:0.26519877" />
      <path
         id="path27"
         d="m 88.421037,291.27964 -1.024294,-0.93805 -0.1326,-4.90606 c -0.07293,-2.69833 -0.230819,-5.00384 -0.350866,-5.12336 -0.120047,-0.11952 -1.171415,-0.28735 -2.336375,-0.37295 -1.999014,-0.14689 -2.173132,-0.21065 -3.096718,-1.13407 l -0.978609,-0.97843 -0.07365,-12.8579 -0.07365,-12.8579 h 16.58963 16.589635 l -0.0737,12.8579 -0.0737,12.8579 -0.97861,0.97843 c -0.92358,0.92342 -1.0977,0.98718 -3.09672,1.13407 -1.16496,0.0856 -2.21632,0.25343 -2.33637,0.37295 -0.12005,0.11952 -0.27794,2.4136 -0.35087,5.09796 l -0.1326,4.88065 -0.86699,0.86628 c -0.7649,0.76426 -1.03565,0.86628 -2.29913,0.86628 -1.15919,0 -1.56906,-0.12636 -2.15066,-0.663 -1.263173,-1.16552 -1.445789,-2.00069 -1.445789,-6.61212 0,-4.93933 0.08596,-4.79143 -2.784586,-4.79143 -2.870545,0 -2.784587,-0.1479 -2.784587,4.79143 0,4.58869 -0.185047,5.44924 -1.415761,6.58392 -0.466282,0.4299 -1.109697,0.67526 -1.99337,0.76017 -1.203875,0.11568 -1.384112,0.0528 -2.329143,-0.81267 z M 73.213068,273.68883 c -0.434285,-0.18261 -1.030192,-0.72661 -1.324238,-1.2089 -0.50795,-0.83314 -0.534629,-1.32024 -0.534629,-9.76106 0,-8.44081 0.02668,-8.92791 0.534629,-9.76105 1.091473,-1.79022 3.684133,-2.05389 5.208352,-0.52967 l 0.899149,0.89915 v 9.39157 9.39158 l -0.899149,0.89914 c -1.012864,1.01287 -2.480317,1.26949 -3.884114,0.67924 z m 44.681532,0.16232 c -0.29172,-0.11221 -0.86051,-0.55314 -1.26397,-0.97984 l -0.73357,-0.77583 -0.009,-9.37776 -0.009,-9.37776 0.90548,-0.90548 c 0.7041,-0.7041 1.1496,-0.91794 2.00315,-0.96152 1.47846,-0.0755 2.56708,0.42784 3.21153,1.48486 0.50795,0.83314 0.53463,1.32024 0.53463,9.76105 0,8.33014 -0.0321,8.93686 -0.51522,9.72913 -0.28337,0.46474 -0.75607,0.97388 -1.05045,1.13142 -0.70575,0.37771 -2.40682,0.52811 -3.07333,0.27173 z M 80.376697,248.99484 c 0.014,-1.32177 0.967837,-4.27498 1.880032,-5.82081 1.092187,-1.85086 4.117229,-4.92431 5.582485,-5.67183 0.985982,-0.50301 1.06087,-0.61536 0.910683,-1.3663 -0.161855,-0.80927 -0.157728,-0.81286 0.377386,-0.32859 0.526925,0.47686 0.604756,0.47322 2.985428,-0.13973 3.029834,-0.78008 6.404955,-0.83725 9.074369,-0.15371 1.02101,0.26145 2.05248,0.5796 2.29214,0.70701 0.30179,0.16042 0.6483,0.0644 1.1271,-0.31217 l 0.69134,-0.5438 v 0.81151 c 0,0.66116 0.20069,0.93821 1.08313,1.49528 1.58197,0.99865 4.21867,3.7643 5.25028,5.50706 0.91164,1.5401 1.86601,4.49254 1.88003,5.81608 l 0.008,0.7293 H 96.943898 80.368976 Z m 9.923021,-5.24773 c 0.442222,-0.40984 0.664793,-0.83318 0.569123,-1.08249 -0.08641,-0.22519 -0.157114,-0.51048 -0.157114,-0.634 0,-0.4623 -0.857518,-1.05804 -1.522954,-1.05804 -1.558679,0 -2.320004,2.15922 -1.070025,3.03474 0.825865,0.57846 1.342541,0.51682 2.18097,-0.26021 z m 15.469332,0.26021 c 1.22332,-0.85684 0.48848,-3.03474 -1.02395,-3.03474 -0.70348,0 -1.56903,0.58366 -1.56903,1.05804 0,0.12352 -0.0707,0.40881 -0.15712,0.634 -0.1839,0.47924 1.0724,1.75554 1.72803,1.75554 0.23796,0 0.6979,-0.18578 1.02207,-0.41284 z M 87.382009,233.69434 c -0.250201,-0.38185 -0.388612,-0.76058 -0.307579,-0.84161 0.08103,-0.081 0.352043,0.16509 0.602245,0.54695 0.250201,0.38185 0.388612,0.76058 0.307579,0.84161 -0.08103,0.081 -0.352043,-0.16509 -0.602245,-0.54695 z m 18.454871,0.5688 c -0.0118,-0.28345 0.76665,-1.77692 0.92618,-1.77692 0.0692,0 0.12579,0.16578 0.12579,0.36841 0,0.38722 -1.03671,1.77529 -1.05197,1.40851 z"
         style="fill:#bad36b;stroke-width:0.26519877" />
      <path
         id="path25"
         d="m 89.518333,291.90293 c -0.725884,-0.30025 -1.630467,-1.31772 -1.971326,-2.21735 -0.156737,-0.41367 -0.282864,-2.6072 -0.282864,-4.91943 0,-2.89197 -0.09769,-4.27057 -0.318238,-4.49112 -0.175032,-0.17503 -0.921691,-0.31824 -1.659243,-0.31824 -2.829179,0 -4.477494,-1.11968 -4.779988,-3.24698 -0.08828,-0.62084 -0.125543,-6.37973 -0.08281,-12.79754 l 0.07771,-11.66875 h 16.442323 16.442323 l 0.0777,11.66875 c 0.0427,6.41781 0.005,12.1767 -0.0828,12.79754 -0.30333,2.13318 -1.95005,3.24698 -4.80055,3.24698 -0.777,0 -1.48156,0.14457 -1.64103,0.33672 -0.16392,0.19751 -0.3144,2.2183 -0.36397,4.88771 -0.0768,4.13786 -0.13518,4.61887 -0.64264,5.29875 -1.31889,1.76706 -3.26861,2.09361 -4.6816,0.7841 -1.27072,-1.17767 -1.379775,-1.64607 -1.521179,-6.5337 l -0.134267,-4.64098 H 96.943898 94.29191 l -0.134267,4.64098 c -0.09058,3.1308 -0.248128,4.84168 -0.484172,5.25775 -0.996168,1.75593 -2.672083,2.52824 -4.155138,1.91481 z M 72.909256,273.45718 c -1.418592,-0.77081 -1.557038,-1.72562 -1.557038,-10.73831 0,-6.95801 0.06569,-8.37461 0.43067,-9.28677 0.515403,-1.28812 1.464844,-1.85157 3.119976,-1.85157 0.954238,0 1.364313,0.15903 2.06846,0.80217 l 0.878264,0.80217 v 9.534 9.53401 l -0.878264,0.80217 c -0.72168,0.65916 -1.099933,0.80028 -2.12159,0.79155 -0.683829,-0.006 -1.557044,-0.18108 -1.940478,-0.38942 z m 44.007214,-0.40213 -0.87826,-0.80217 v -9.53401 -9.534 l 0.87826,-0.80217 c 0.70415,-0.64314 1.11422,-0.80217 2.06846,-0.80217 1.65513,0 2.60457,0.56345 3.11998,1.85157 0.64083,1.60159 0.64083,16.97196 0,18.57355 -0.51541,1.28812 -1.46485,1.85157 -3.11998,1.85157 -0.95424,0 -1.36431,-0.15903 -2.06846,-0.80217 z M 80.722975,248.15163 c 0.0904,-0.86488 0.389006,-2.16373 0.663573,-2.88633 0.603698,-1.5888 3.031392,-5.16526 3.886491,-5.72554 0.33928,-0.22231 0.929336,-0.69378 1.311237,-1.04771 0.3819,-0.35393 1.04912,-0.79046 1.482712,-0.97006 0.482673,-0.19993 0.788348,-0.52168 0.788348,-0.82982 0,-0.38942 0.134989,-0.46945 0.596697,-0.35375 0.328183,0.0822 1.130134,-0.0388 1.782112,-0.26896 0.651979,-0.23017 2.188569,-0.59342 3.414645,-0.80723 2.49773,-0.43557 4.293804,-0.26773 7.65992,0.7158 1.48225,0.43309 2.00178,0.49001 2.28995,0.25085 0.29952,-0.24858 0.40447,-0.18284 0.53437,0.33472 0.0979,0.39019 0.63262,0.92005 1.35653,1.3443 0.65719,0.38513 1.19489,0.79439 1.19489,0.90945 0,0.11507 0.30796,0.37403 0.68437,0.57547 0.88599,0.47417 3.48207,4.16089 4.12914,5.86383 0.27637,0.72736 0.57646,2.0301 0.66686,2.89498 l 0.16436,1.57251 H 96.943898 80.558616 Z m 9.486656,-4.2099 c 0.722437,-0.6455 0.807439,-0.85666 0.644136,-1.60018 -0.369133,-1.68065 -2.297308,-2.1084 -3.211909,-0.71254 -0.583194,0.89006 -0.279117,2.15251 0.63849,2.65084 0.952168,0.5171 0.976995,0.51275 1.929283,-0.33812 z m 15.344309,0.35044 c 0.97164,-0.50245 1.29425,-1.74401 0.692,-2.66316 -0.9146,-1.39586 -2.84278,-0.96811 -3.21191,0.71254 -0.16331,0.74352 -0.0783,0.95468 0.64413,1.60018 0.97261,0.86902 0.89941,0.85534 1.87578,0.35044 z m 0.53931,-10.46431 c 0,-0.13725 0.11798,-0.32246 0.26217,-0.41157 0.15033,-0.0929 0.19479,0.0135 0.10422,0.24955 -0.1763,0.45943 -0.36639,0.54349 -0.36639,0.16202 z m -18.707412,-0.29849 c -0.09614,-0.15557 -0.11793,-0.33972 -0.04841,-0.40924 0.06952,-0.0695 0.197061,0.0578 0.283432,0.28284 0.179323,0.46731 0.02648,0.54951 -0.235018,0.1264 z"
         style="fill:#acca4c;stroke-width:0.26519877" />
      <path
         id="path23"
         d="m 88.686277,291.01448 -1.024336,-0.93809 -0.132599,-4.93752 c -0.149861,-5.58028 -0.09031,-5.43659 -2.25594,-5.44321 -1.723995,-0.005 -2.855583,-0.34201 -3.578433,-1.06486 -0.320271,-0.32027 -0.689969,-0.9577 -0.821552,-1.4165 -0.131584,-0.4588 -0.239243,-6.23509 -0.239243,-12.83618 v -12.002 h 16.309724 16.309722 v 12.002 c 0,6.60109 -0.10766,12.37738 -0.23924,12.83618 -0.48452,1.68942 -1.8751,2.47363 -4.39999,2.48136 -2.16467,0.007 -2.10607,-0.13411 -2.25594,5.4178 l -0.1326,4.91212 -0.86699,0.86628 c -1.62811,1.62676 -4.01603,0.99985 -5.00156,-1.31309 -0.25678,-0.60264 -0.363617,-2.08703 -0.363617,-5.05204 0,-2.91202 -0.09752,-4.29618 -0.318238,-4.5169 -0.431733,-0.43173 -5.031361,-0.43173 -5.463095,0 -0.220717,0.22072 -0.318238,1.60488 -0.318238,4.5169 0,4.52853 -0.188768,5.4092 -1.398348,6.52385 -0.369109,0.34014 -1.146767,0.68224 -1.728129,0.76021 -0.9363,0.12559 -1.17401,0.0346 -2.081358,-0.79631 z m -15.661253,-17.7393 c -1.261739,-0.60971 -1.407607,-1.70364 -1.407607,-10.55631 0,-6.80684 0.07046,-8.38653 0.412183,-9.24057 0.478424,-1.1957 1.253091,-1.63257 2.89488,-1.63257 0.942311,0 1.313943,0.15342 1.976512,0.81599 l 0.815996,0.816 v 9.24115 9.24116 l -0.815996,0.816 c -0.686746,0.68674 -1.012295,0.81315 -2.05529,0.79805 -0.681612,-0.01 -1.500917,-0.14438 -1.820678,-0.2989 z m 43.961776,-0.49915 -0.81599,-0.816 v -9.24116 -9.24115 l 0.81599,-0.816 c 0.66257,-0.66257 1.0342,-0.81599 1.97652,-0.81599 1.64178,0 2.41645,0.43687 2.89488,1.63257 0.60928,1.52274 0.60928,16.9584 0,18.48115 -0.47843,1.1957 -1.2531,1.63257 -2.89488,1.63257 -0.94232,0 -1.31395,-0.15342 -1.97652,-0.81599 z M 80.826959,248.94547 c -0.149568,-0.57195 0.576849,-3.49739 1.123682,-4.52531 0.560983,-1.05452 3.007004,-4.50838 3.192829,-4.50838 0.09281,0 0.5781,-0.36861 1.078413,-0.81913 0.500314,-0.45052 1.342465,-1.04213 1.871448,-1.3147 0.528983,-0.27256 1.035333,-0.68722 1.125221,-0.92147 0.08989,-0.23424 0.27091,-0.35948 0.402269,-0.27829 0.131358,0.0812 0.699063,-0.0145 1.261567,-0.21256 0.562503,-0.19809 2.167595,-0.56603 3.56687,-0.81763 2.368243,-0.42584 2.707443,-0.4279 4.906177,-0.0299 1.299125,0.23517 2.873015,0.61523 3.497545,0.84458 0.62453,0.22936 1.30891,0.35047 1.52085,0.26914 0.22134,-0.0849 0.50327,0.0725 0.66245,0.36991 0.1524,0.28477 0.65302,0.71217 1.11248,0.94976 1.22379,0.63285 4.18289,3.74914 5.21711,5.49425 0.97493,1.64507 1.90976,4.67835 1.69496,5.49973 -0.13092,0.50066 -0.53296,0.51347 -16.116932,0.51347 -15.583973,0 -15.986013,-0.0128 -16.116939,-0.51347 z m 9.243076,-4.53848 c 1.068482,-0.66035 1.304555,-1.30128 0.91456,-2.48298 -0.548879,-1.66312 -2.59556,-1.84009 -3.597422,-0.31105 -0.624645,0.95333 -0.292577,2.18113 0.764174,2.8255 1.0189,0.62128 0.858256,0.62392 1.918688,-0.0315 z m 15.666415,0.0315 c 1.05675,-0.64437 1.38882,-1.87217 0.76417,-2.8255 -1.00186,-1.52904 -3.04854,-1.35207 -3.59742,0.31105 -0.38626,1.17037 -0.15955,1.80638 0.88159,2.47325 1.03697,0.66421 0.93351,0.66202 1.95166,0.0412 z"
         style="fill:#a2c438;stroke-width:0.26519877" />
    </g>
  </g>
</svg>
