<?xml version="1.0" encoding="UTF-8" standalone="no"?>
<svg
   xmlns:dc="http://purl.org/dc/elements/1.1/"
   xmlns:cc="http://creativecommons.org/ns#"
   xmlns:rdf="http://www.w3.org/1999/02/22-rdf-syntax-ns#"
   xmlns:svg="http://www.w3.org/2000/svg"
   xmlns="http://www.w3.org/2000/svg"
   id="svg8"
   version="1.1"
   viewBox="0 0 100.80625 120.91466"
   height="457"
   width="381">
  <defs
     id="defs2" />
  <metadata
     id="metadata5">
    <rdf:RDF>
      <cc:Work
         rdf:about="">
        <dc:format>image/svg+xml</dc:format>
        <dc:type
           rdf:resource="http://purl.org/dc/dcmitype/StillImage" />
        <dc:title></dc:title>
      </cc:Work>
    </rdf:RDF>
  </metadata>
  <g
     transform="translate(0,-176.08532)"
     id="layer1">
    <g
       transform="matrix(0.77509193,0,0,0.8294648,47.852676,54.804135)"
       id="g117">
      <path
         id="path131"
         d="m -23.746146,291.72772 c -5.822657,-1.56811 -12.529135,-7.12305 -19.247354,-15.94246 -11.468187,-15.05498 -17.437129,-31.18362 -18.117055,-48.95398 -0.617868,-16.14845 3.637414,-28.15042 13.21982,-37.28636 7.786961,-7.42414 18.163943,-11.01648 30.048484,-10.40228 4.857641,0.25104 7.8485192,0.98192 13.8851541,3.39312 8.42596,3.36555 9.5136481,3.37762 18.2071649,0.20212 6.39873,-2.33728 8.760637,-2.90228 14.324416,-3.42664 9.593764,-0.90414 18.619908,1.08919 26.134707,5.7716 3.820904,2.38078 9.295289,7.55834 9.287605,8.78404 -0.0072,1.14642 -0.128083,1.29052 -2.99321,3.56762 -11.515129,9.15181 -15.728436,21.54973 -11.67069,34.34171 2.179161,6.86976 7.901408,13.50871 15.198468,17.63324 2.283626,1.29077 3.704167,2.60885 3.704167,3.43697 0,0.89877 -2.077025,5.84714 -4.375066,10.42329 -5.860485,11.67015 -15.889496,22.9206 -24.115078,27.05207 -5.60619,2.81583 -9.633688,2.58028 -20.473696,-1.19739 -7.250183,-2.52664 -9.7824823,-3.00547 -14.5784047,-2.75661 -4.16290502,0.21601 -7.374079,1.0041 -13.0890864,3.21231 -6.8278309,2.6382 -11.2377999,3.25518 -15.3503459,2.14763 z m 89.497423,-39.93741 c -0.0081,-0.14552 -1.626584,-1.29646 -3.596535,-2.55764 -2.468806,-1.58056 -4.723677,-3.44402 -7.256896,-5.99722 -2.285898,-2.30393 -3.47351,-3.3041 -3.141695,-2.64584 1.309811,2.59845 6.02989,6.8936 10.818715,9.84476 2.612764,1.61014 3.204785,1.86286 3.176411,1.35594 z M -53.221111,199.75559 c 7.602819,-12.0699 18.420215,-17.99322 32.909415,-18.02034 5.891157,-0.011 7.933179,0.42396 15.5383947,3.30987 5.09833062,1.93464 6.1797604,2.22303 8.8872241,2.37 3.6444839,0.19784 4.6905759,-0.0298 11.7654992,-2.55974 6.573976,-2.35084 10.404275,-3.04709 16.692331,-3.03425 10.884913,0.0222 18.104623,2.6727 26.121086,9.5894 1.72212,1.48586 2.680099,2.08469 3.085902,1.92897 0.472754,-0.18141 0.142198,-0.6791 -1.680834,-2.53066 -8.741396,-8.87819 -22.567686,-12.50658 -36.739818,-9.6415 -1.884327,0.38094 -6.011827,1.62827 -9.172223,2.77183 -8.7922382,3.18141 -9.6966229,3.16751 -18.3426528,-0.28187 -7.3179942,-2.91955 -9.4164052,-3.36036 -15.9785202,-3.35662 -10.944009,0.006 -18.718412,2.74147 -26.177971,9.21011 -3.796481,3.29215 -8.570642,9.9267 -8.570642,11.91043 0,0.86134 0.192598,0.66841 1.662809,-1.66563 z M 2.4424722,182.09155 c -0.6061357,-0.45907 -0.722496,-1.03093 -0.8257893,-4.05842 -0.2496997,-7.31878 2.6039869,-14.0307 8.7746911,-20.63823 5.74801,-6.15491 13.619414,-10.44545 20.273322,-11.05056 1.818291,-0.16536 2.225354,-0.0892 2.887687,0.54048 2.421181,2.30173 0.611128,12.88588 -3.34421,19.55502 -2.962688,4.99541 -8.998324,10.6753 -14.075904,13.24625 -4.471219,2.26393 -12.1054788,3.60536 -13.6897968,2.40546 z m 3.1937362,-11.42814 c 0.4904811,-1.10906 1.1480836,-2.29969 1.4613397,-2.64583 0.7507852,-0.82961 2.4502146,-0.81962 2.8979778,0.017 0.3124201,0.58376 0.9031461,0.64975 6.0978281,0.68112 5.527816,0.0334 5.829035,-0.002 7.731965,-0.9015 1.599025,-0.75607 2.2519,-1.3454 3.392611,-3.06237 0.776901,-1.16937 1.654235,-2.60238 1.94963,-3.18447 0.952877,-1.87765 1.986604,-5.91149 2.39571,-9.34861 0.301075,-2.5295 0.578997,-3.5457 1.133267,-4.14374 0.403903,-0.4358 0.645263,-0.88147 0.536353,-0.99038 -0.108906,-0.1089 -2.001301,0.20776 -4.205327,0.70369 -6.620852,1.48979 -11.757113,4.34175 -16.785051,9.32006 -4.7473022,4.70046 -7.4561665,9.34011 -7.7754339,13.31753 -0.099508,1.23967 -0.077816,2.25395 0.048211,2.25395 0.1260263,0 0.6304386,-0.90741 1.1209197,-2.01648 z"
         style="fill:#d8d6d7;stroke-width:0.35277778" />
      <path
         id="path129"
         d="m -23.751043,291.37369 c -6.642927,-1.78879 -14.178934,-8.62092 -21.858007,-19.81643 -9.38453,-13.68195 -14.147068,-27.5806 -15.084117,-44.02042 -0.368846,-6.47114 0.662298,-14.99418 2.364441,-19.54356 l 0.737002,-1.96982 0.401435,1.40808 0.401435,1.40807 1.393439,-2.64583 c 1.312201,-2.49158 1.485993,-2.66985 2.98094,-3.0577 1.170237,-0.30362 13.780848,-0.41422 47.9777802,-0.42078 25.5146538,-0.005 48.3293898,-0.018 50.6994118,-0.0291 l 4.309128,-0.0202 2.922816,-2.7839 c 4.208371,-4.00837 6.288914,-5.65164 7.623437,-6.02119 2.735965,-0.75765 2.917896,0.75335 0.32646,2.71138 -6.945185,5.24763 -11.665889,12.09778 -13.345199,19.36504 -0.659772,2.85518 -0.741363,3.99147 -0.57392,7.99309 0.128676,3.0751 0.442733,5.56639 0.921597,7.31058 0.39952,1.45521 0.729124,3.36873 0.732447,4.25227 0.0089,2.3715 1.494293,5.00217 4.723787,8.36609 4.438209,4.62294 10.63824,8.84361 12.35722,8.41217 0.517162,-0.1298 0.995843,-0.0172 1.25517,0.29528 0.332465,0.40059 0.151056,1.18454 -0.87677,3.78895 -5.184761,13.13769 -15.745587,26.8979 -24.922318,32.47249 -6.559597,3.98475 -10.827993,4.00798 -21.92567,0.11929 -7.65417,-2.68206 -10.0300297,-3.15177 -14.8252289,-2.93098 -4.4560528,0.20518 -7.436309,0.92134 -13.3614732,3.21075 -6.8304519,2.63921 -11.2373839,3.25522 -15.3552429,2.14638 z M 2.6125534,181.66813 c -0.8656355,-1.04303 -0.5446254,-9.01759 0.3409668,-8.47027 0.1644545,0.10164 0.4059485,1.33636 0.5366491,2.74383 0.1307042,1.40747 0.3163253,2.83685 0.4124961,3.1764 0.2372783,0.83776 2.0784644,0.80899 5.6271268,-0.0879 11.1521488,-2.81872 20.4181298,-13.1144 22.3836628,-24.8711 0.227069,-1.35819 0.520259,-3.10444 0.651535,-3.88055 0.131279,-0.77612 0.385907,-1.41112 0.565845,-1.41112 1.193994,0 0.732211,7.39973 -0.734865,11.7757 -3.796629,11.32452 -15.288306,20.65097 -26.4320275,21.45178 -2.440358,0.17537 -2.900285,0.1168 -3.3513891,-0.42674 z"
         style="fill:#c8c6c7;stroke-width:0.35277778" />
      <path
         id="path127"
         d="m -22.742924,291.559 c -4.144931,-0.8723 -8.862602,-3.93614 -13.649664,-8.86465 -10.156135,-10.45621 -18.004981,-24.28818 -21.49698,-37.88398 -1.941147,-7.55769 -2.450001,-11.7275 -2.452343,-20.09576 -0.0021,-7.46963 0.414545,-10.96918 1.637988,-13.75833 0.429247,-0.97858 0.477688,-0.76827 0.642812,2.79067 0.15663,3.3759 0.239729,3.77502 0.676072,3.24714 0.273621,-0.33103 0.728591,-0.51318 1.011044,-0.40479 0.379775,0.14573 95.161604,0.24484 99.385914,0.10393 0.388055,-0.0129 0.919187,0.0403 1.180292,0.11837 0.32645,0.0976 0.825652,-0.90682 1.598168,-3.21553 1.965833,-5.87503 4.860738,-10.38475 9.672402,-15.06782 3.020264,-2.93955 5.490683,-4.68169 6.638801,-4.68169 1.522939,0 1.377337,0.79902 -0.414422,2.2742 -5.858658,4.82354 -9.537316,9.20364 -11.760698,14.00324 -2.523546,5.44755 -3.322927,10.94728 -2.505301,17.23645 0.239635,1.84326 0.54888,4.62139 0.687215,6.17361 0.138331,1.55222 0.536596,3.37785 0.885028,4.05694 2.055657,4.00648 6.546222,8.78606 11.199629,11.92044 3.518962,2.37026 4.623979,2.89623 6.084701,2.89623 1.633591,0 1.631837,0.53231 -0.01489,4.51789 -4.146543,10.03594 -10.017679,18.77273 -17.48124,26.01368 -5.367271,5.20719 -8.942713,7.42247 -13.721684,8.50169 -3.618753,0.81722 -6.570201,0.30362 -15.507735,-2.6986 -7.797024,-2.61911 -11.7161067,-3.38537 -15.328075,-2.99694 -3.50993802,0.37745 -7.6664366,1.46843 -12.2615402,3.21835 -2.3852258,0.90834 -5.1305248,1.86335 -6.1006638,2.12223 -2.378502,0.63471 -6.706126,0.87261 -8.60484,0.47303 z M 2.8833245,181.59666 c -0.6707505,-0.74117 -0.8762718,-4.43377 -0.297628,-5.34741 0.3482869,-0.54991 0.5069064,-0.16699 0.9037673,2.18182 0.1246611,0.7378 0.4621883,1.43184 0.750055,1.54231 0.8152765,0.31285 6.1646402,-0.78272 8.5744052,-1.75606 9.965906,-4.02541 17.703582,-13.81336 19.498854,-24.66552 0.215742,-1.30413 0.528493,-2.28695 0.695004,-2.18404 0.548521,0.339 0.315585,4.9213 -0.39051,7.6821 -2.991912,11.69827 -14.755591,21.81373 -26.7415733,22.9948 -2.0776496,0.20473 -2.4524443,0.14862 -2.9923742,-0.448 z"
         style="fill:#c0bdbe;stroke-width:0.35277778" />
      <path
         id="path125"
         d="m -24.897807,290.76314 c -4.693421,-1.606 -10.433116,-6.31391 -15.760472,-12.92731 -10.443932,-12.96514 -16.892354,-27.36026 -18.976205,-42.36149 -0.923514,-6.6482 -0.625209,-19.41764 0.501553,-21.46984 0.144817,-0.26376 0.363428,2.59374 0.485803,6.35 0.122375,3.75626 0.320992,7.25409 0.441371,7.77297 0.206712,0.891 0.368764,0.95764 2.916882,1.19935 1.483906,0.14076 10.459132,0.159 19.944946,0.0405 11.319053,-0.14135 17.475096,-0.0933 17.910763,0.13989 0.365107,0.1954 0.854964,0.23714 1.08857,0.0928 0.481054,-0.2973 60.759942,-0.2783 61.241488,0.0193 0.171351,0.1059 0.829842,1.50629 1.463322,3.11197 2.477636,6.28012 6.372955,11.42796 11.664647,15.41537 4.364976,3.28911 6.942484,4.69031 8.142831,4.42667 1.542207,-0.33872 1.565607,0.44084 0.11834,3.94252 -6.460787,15.63195 -18.167528,29.74335 -28.178148,33.96618 -1.913036,0.80698 -2.620762,0.90679 -6.384855,0.90045 l -4.233333,-0.007 -7.408334,-2.52548 c -4.074584,-1.38901 -8.645984,-2.71845 -10.1586635,-2.95431 -5.0985599,-0.79498 -10.8008884,0.16174 -18.1860093,3.0512 -5.2834542,2.06717 -7.6459402,2.60972 -11.3428292,2.60492 -2.168754,-0.003 -3.633206,-0.22104 -5.291667,-0.78853 z M 46.36752,230.01736 c -1.415242,-3.72237 -1.600761,-11.0224 -0.394751,-15.5333 1.837626,-6.87337 6.112894,-13.21305 12.353509,-18.3187 1.500484,-1.22759 2.827704,-2.02936 3.430446,-2.07233 1.619981,-0.11548 1.406737,0.88743 -0.475946,2.23847 -2.443311,1.75334 -7.178111,6.59095 -8.820341,9.01186 -4.426614,6.52555 -6.140902,13.24808 -5.434584,21.31153 0.328577,3.75106 0.04333,5.20798 -0.658333,3.36247 z M 2.7606707,181.36005 c -0.1038542,-0.27064 -0.1325739,-1.10408 -0.063821,-1.85209 l 0.1249997,-1.36001 0.4380654,1.02043 c 0.4350315,1.01338 0.4544589,1.01904 2.8089191,0.81889 5.5789871,-0.47425 11.4094481,-3.2948 16.2776791,-7.87448 4.461736,-4.19728 7.352796,-8.73343 9.194194,-14.42595 1.388635,-4.29284 1.889414,-3.69892 0.883842,1.04821 -0.628703,2.968 -2.464548,6.94217 -4.553197,9.85659 -3.139663,4.38096 -8.847727,9.1042 -13.42927,11.1123 -4.272831,1.87278 -11.220299,2.85775 -11.6814113,1.65611 z"
         style="fill:#b0aeaf;stroke-width:0.35277778" />
      <path
         id="path123"
         d="m -23.140395,291.20028 c -12.05927,-2.86471 -29.188718,-25.81414 -34.352718,-46.02456 -1.828476,-7.15612 -2.784596,-15.92417 -2.34661,-21.51944 0.229891,-2.93685 0.708905,-1.99709 0.719278,1.41111 0.01421,4.66864 2.079574,15.45253 3.704228,19.34087 l 0.529993,1.26846 15.258792,0.0581 c 8.392336,0.032 32.8864561,0.078 54.431383,0.10229 l 39.172587,0.0442 2.535404,1.87956 c 1.39447,1.03376 3.82735,2.64798 5.406397,3.58717 2.376414,1.41345 3.076674,1.67424 4.064928,1.51387 1.522391,-0.24705 1.531895,0.0875 0.104578,3.68175 -2.585505,6.51083 -7.329033,14.58925 -11.8645,20.20571 -2.866344,3.54951 -8.566948,9.02623 -11.381123,10.93413 -6.972784,4.72729 -11.799634,4.94988 -22.584471,1.04148 -7.597712,-2.75338 -8.695853,-2.98144 -14.2875008,-2.96722 -5.61003129,0.0143 -6.87143769,0.28249 -14.1111119,3.0005 -2.5223613,0.94697 -5.6179863,1.96377 -6.8791673,2.25955 -2.46356,0.57778 -6.111293,0.65976 -8.120366,0.1825 z m 68.901786,-71.86553 c 0.245653,-4.09696 0.910368,-6.78357 2.52608,-10.20977 2.290882,-4.85793 5.713515,-9.11677 10.277129,-12.78801 2.551727,-2.05276 4.026486,-2.66379 4.026486,-1.66827 0,0.25815 -0.754062,1.00888 -1.675694,1.66828 -2.847549,2.03735 -7.573296,7.15098 -9.575529,10.36147 -2.260812,3.62512 -4.052154,8.59115 -4.667645,12.93984 -0.601543,4.25016 -1.172457,4.0599 -0.910827,-0.30354 z M 3.4126111,181.63691 c -0.2425347,-0.108 -0.4409546,-0.46095 -0.4409299,-0.78433 3.53e-5,-0.48236 0.3960531,-0.59417 2.2048613,-0.62252 9.5368225,-0.14945 20.1319665,-8.00782 25.2081215,-18.69676 1.369904,-2.88463 1.789399,-3.17791 1.150215,-0.80417 -1.042815,3.87272 -4.189491,8.69892 -8.15182,12.50283 -3.113705,2.98921 -5.155954,4.42021 -8.531751,5.97819 -3.792048,1.75008 -10.0004535,3.06722 -11.4386969,2.42676 z"
         style="fill:#979797;stroke-width:0.35277778" />
      <path
         id="path121"
         d="m -22.604751,291.15315 c -4.431623,-0.83898 -10.342166,-4.9249 -15.393735,-10.64157 -9.501646,-10.75266 -16.453152,-23.68893 -19.556981,-36.39419 -0.865534,-3.54299 -2.054692,-11.79552 -1.744401,-12.10581 0.239569,-0.23957 0.382028,0.30248 1.420002,5.40303 0.513307,2.52236 1.644317,6.72924 2.513356,9.34861 1.771941,5.34082 5.873836,13.90633 7.686773,16.05139 l 1.192626,1.41111 8.76618,0.0396 c 11.986265,0.0541 57.493447,0.0567 60.977293,0.004 1.552222,-0.0237 3.854098,0.0247 5.115278,0.10758 1.261181,0.0829 8.624313,0.12257 16.362512,0.0882 l 14.069459,-0.0625 1.099986,-1.17553 c 0.604996,-0.64654 2.030924,-3.06748 3.168735,-5.37986 1.911561,-3.88488 2.730412,-5.08627 3.466736,-5.08627 1.522529,0 -3.530981,11.06817 -8.377269,18.34787 -4.799405,7.20926 -11.593439,14.2315 -16.740774,17.30308 -6.493225,3.87471 -11.271261,3.8778 -21.557969,0.0139 -11.5360456,-4.33313 -16.139443,-4.22695 -29.4236013,0.67867 -2.6259407,0.96972 -5.7734347,1.8607 -7.3456667,2.07938 -3.104381,0.43177 -3.262637,0.43093 -5.698539,-0.0302 z M 46.55288,215.4542 c 1.169765,-6.98511 5.99519,-14.24377 13.159469,-19.79518 1.03607,-0.80283 2.028257,-1.45968 2.204861,-1.45968 0.796989,0 0.188302,1.03409 -1.192279,2.02555 -2.27159,1.63133 -6.302284,5.683 -8.192542,8.23518 -1.907197,2.57505 -4.526481,7.72124 -5.326401,10.46496 -0.628639,2.15622 -0.972199,2.43459 -0.653108,0.52917 z M 3.3244167,180.97017 c 0,-0.41046 0.4659842,-0.52917 2.0772015,-0.52917 2.5042637,0 7.5540698,-1.40195 10.2605348,-2.84858 4.710991,-2.51806 9.346502,-6.83132 12.650235,-11.77081 1.960873,-2.93175 2.261566,-3.15576 1.074614,-0.80058 -2.966809,5.88682 -9.741924,12.08499 -15.856932,14.5066 -4.5567918,1.80454 -10.2056533,2.60299 -10.2056533,1.44254 z"
         style="fill:#878787;stroke-width:0.35277778" />
      <path
         id="path119"
         d="m -24.408391,290.48993 c -11.200596,-3.55101 -27.180301,-25.17882 -32.046821,-43.37393 -1.314724,-4.91553 -1.067985,-4.98175 0.657227,-0.17639 3.582809,9.97948 7.507788,17.40103 13.199754,24.95879 6.577833,8.73401 12.295954,13.90444 17.876813,16.16457 1.747058,0.70751 2.701883,0.85342 5.468056,0.83556 2.950506,-0.019 3.794471,-0.18022 7.055556,-1.34743 10.4756234,-3.74941 14.4144016,-4.61898 19.5791673,-4.32253 3.4953327,0.20063 9.8139957,1.62678 12.7386577,2.87518 2.360578,1.00761 5.476985,1.93406 8.511361,2.53027 6.33029,1.24379 11.573546,-0.99125 19.017083,-8.1064 4.095281,-3.91461 6.755166,-7.11871 10.241775,-12.33723 2.448517,-3.66477 5.923827,-10.14823 7.278098,-13.57786 0.631522,-1.5993 1.912088,-2.21316 1.471842,-0.70556 -0.650713,2.22835 -3.85367,9.16102 -5.818145,12.59314 -6.165381,10.77151 -16.172329,20.9925 -23.171042,23.66667 -4.57659,1.74868 -8.587949,1.3118 -17.905914,-1.95015 -7.603946,-2.66193 -10.0270179,-3.13682 -14.7967042,-2.89996 -4.52993497,0.22495 -7.5866487,0.97252 -13.9925537,3.4221 -6.8820461,2.63166 -11.0783521,3.10994 -15.3642101,1.75116 z m 74.344484,-83.23782 c 1.58617,-3.39384 8.193677,-10.5941 11.067493,-12.06034 0.388056,-0.19799 0.07056,0.16797 -0.705555,0.81323 -4.057548,3.37347 -7.082635,6.73494 -10.325955,11.47417 -0.376339,0.54992 -0.382107,0.51353 -0.03598,-0.22706 z"
         style="fill:#6d6d6d;stroke-width:0.35277778" />
    </g>
  </g>
</svg>
