<?xml version="1.0" encoding="UTF-8" standalone="no"?>
<svg
   xmlns:dc="http://purl.org/dc/elements/1.1/"
   xmlns:cc="http://creativecommons.org/ns#"
   xmlns:rdf="http://www.w3.org/1999/02/22-rdf-syntax-ns#"
   xmlns:svg="http://www.w3.org/2000/svg"
   xmlns="http://www.w3.org/2000/svg"
   id="svg8"
   version="1.1"
   viewBox="0 0 158.75 158.7501"
   height="600"
   width="600">
  <defs
     id="defs2" />
  <metadata
     id="metadata5">
    <rdf:RDF>
      <cc:Work
         rdf:about="">
        <dc:format>image/svg+xml</dc:format>
        <dc:type
           rdf:resource="http://purl.org/dc/dcmitype/StillImage" />
        <dc:title></dc:title>
      </cc:Work>
    </rdf:RDF>
  </metadata>
  <g
     transform="translate(0,-138.2499)"
     id="layer1">
    <g
       transform="matrix(0.78882317,0,0,0.78882317,84.715625,19.751504)"
       id="g163">
      <path
         id="path177"
         d="m -24.277607,350.95459 c -25.338217,-4.78353 -47.49376,-18.55988 -62.875512,-39.0961 -10.320501,-13.77893 -16.941441,-29.95391 -19.234521,-46.99 -0.70886,-5.26638 -0.81712,-7.49739 -0.7354,-15.15533 0.0809,-7.57736 0.26604,-9.92415 1.23384,-15.63712 2.33142,-13.76245 7.718302,-27.32624 15.478131,-38.97288 3.872207,-5.81175 7.181605,-9.87513 12.184819,-14.96087 8.360957,-8.49888 16.860242,-14.66394 27.447977,-19.90972 10.621987,-5.26275 21.072923,-8.35605 33.27813,-9.84976 2.551746,-0.31229 4.193716,-0.38479 10.1558697,-0.44842 7.65794418,-0.0817 9.8889532,0.0265 15.1553333,0.7354 40.076299,5.39432 73.229639,34.3621 84.09029,73.47403 1.492453,5.37472 2.511806,10.8724 3.12718,16.86589 0.320006,3.11678 0.347608,4.2231 0.282651,11.32811 -0.07588,8.29812 -0.207128,10.08252 -1.152211,15.66334 -4.310228,25.45244 -18.013223,48.12673 -38.59591,63.86449 -11.489837,8.78526 -25.114155,15.14803 -39.080535,18.25123 -4.001242,0.88904 -6.219762,1.25509 -6.5355621,1.07835 -0.2500613,-0.13993 -0.2732362,-3.14376 -0.2732362,-35.41662 0,-27.20156 0.046457,-35.31018 0.2032,-35.46692 0.1540763,-0.15408 2.9983653,-0.2032 11.7654413,-0.2032 h 11.56224 l 0.08852,-0.381 c 0.04868,-0.20955 1.002059,-6.3627 2.118614,-13.67367 1.116554,-7.31096 2.075471,-13.57841 2.130928,-13.92766 l 0.100829,-0.635 H 23.944976 c -10.839731,0 -13.760181,-0.0451 -13.9939846,-0.21605 -0.2770361,-0.20258 -0.2913516,-0.90758 -0.2295161,-11.303 0.070258,-11.81162 0.063419,-11.70781 0.9373107,-14.22343 1.696886,-4.88471 5.379602,-7.98952 10.868274,-9.16278 1.648606,-0.35241 2.344874,-0.38698 9.567333,-0.47507 l 7.789334,-0.095 0.04348,-12.01305 c 0.02507,-6.92774 -0.02081,-12.07735 -0.108399,-12.16493 -0.264319,-0.26432 -7.469094,-1.17902 -13.227746,-1.67937 -1.359464,-0.11812 -5.024958,-0.21474 -8.212667,-0.21649 -4.699108,-0.003 -6.130825,0.053 -7.789333,0.30254 -11.1441755,1.67656 -19.2687702,6.48329 -24.669775,14.5953 -2.178252,3.27162 -4.148213,8.06949 -5.123756,12.47899 -1.107278,5.00494 -1.273304,7.89993 -1.276516,22.25856 -0.0024,10.51862 -0.02984,11.71866 -0.270469,11.811 -0.147317,0.0565 -5.900417,0.10279 -12.784667,0.10279 H -47.05294 v 14.30759 14.3076 l 12.742333,0.0434 12.742334,0.0434 0.04273,35.46509 c 0.04279,35.51257 0.03917,35.79019 -0.466065,35.72315 -0.04657,-0.006 -1.075266,-0.19824 -2.286,-0.42681 z"
         style="fill:#d3e5fb;stroke-width:0.16933334" />
      <path
         id="path175"
         d="m -23.93894,350.8673 c -20.486592,-3.91539 -38.050106,-12.97596 -52.475506,-27.07081 -13.040152,-12.74134 -21.85075,-27.42134 -26.881124,-44.78867 -3.52424,-12.16739 -4.69929,-26.19023 -3.27066,-39.03133 3.31867,-29.8296 19.631976,-56.51963 44.78129,-73.2662 14.82078,-9.86895 31.809351,-15.51861 50.122667,-16.66864 3.7885841,-0.23791 11.52055067,-0.10182 15.1993732,0.26752 17.2012338,1.72696 32.3447458,7.07541 46.5226268,16.43107 5.75458,3.79732 10.165615,7.43595 15.588623,12.85896 5.215941,5.21595 8.487579,9.13587 12.303896,14.74196 8.906882,13.08403 14.62703,28.19844 16.630142,43.942 0.595884,4.68339 0.688323,6.45161 0.681668,13.03866 -0.0071,6.98542 -0.155736,9.30259 -0.939851,14.64734 -5.939536,40.48556 -36.044095,73.66489 -75.760478,83.49838 -3.548174,0.8785 -8.159026,1.77091 -8.491237,1.64342 -0.1932502,-0.0742 -0.2233628,-5.76262 -0.1874946,-35.41841 l 0.042731,-35.33006 11.6799486,-0.0847 11.679949,-0.0847 0.13231,-0.42334 c 0.110309,-0.35293 4.363126,-27.96576 4.363126,-28.32904 0,-0.0654 -6.19125,-0.12012 -13.758333,-0.12155 -7.567084,-0.001 -13.857174,-0.0653 -13.977979,-0.14192 -0.1773214,-0.11249 -0.2083128,-2.28999 -0.1608402,-11.30041 0.057445,-10.90258 0.067549,-11.19441 0.4362692,-12.60041 0.488013,-1.86088 1.81114,-4.5474 2.888412,-5.86472 2.169075,-2.65241 5.813719,-4.43126 10.174696,-4.966 0.78919,-0.0968 4.61824,-0.17595 8.509,-0.17595 h 7.074108 v -12.26667 c 0,-7.54791 -0.06176,-12.30484 -0.160553,-12.3659 -0.260714,-0.16113 -5.746752,-0.89251 -9.491447,-1.26536 -9.330126,-0.92899 -15.995386,-0.92353 -21.4206666,0.0176 -16.1199305,2.79623 -26.1755224,13.31256 -28.8965514,30.22057 -0.364502,2.26495 -0.380132,2.84179 -0.439488,16.21965 -0.03826,8.6237 -0.124406,13.98864 -0.22771,14.18167 -0.15887,0.29685 -0.723591,0.31048 -12.861159,0.31048 h -12.694993 l 0.04328,14.43567 0.04328,14.43567 12.615334,0.0423 c 11.621204,0.039 12.632012,0.0649 12.827,0.3287 0.278018,0.37612 0.31393,69.81813 0.03638,70.33675 -0.204101,0.38137 -0.100493,0.3829 -2.280043,-0.0337 z"
         style="fill:#abcdf9;stroke-width:0.16933334" />
      <path
         id="path173"
         d="m -24.277607,350.7092 c -23.560689,-4.50271 -44.372352,-16.71004 -59.442936,-34.86696 -5.126558,-6.17644 -9.025652,-12.18507 -12.749307,-19.64708 -6.0171,-12.05798 -9.43462,-24.5783 -10.36863,-37.98627 -0.26339,-3.78112 -0.1152,-13.88066 0.25386,-17.30107 2.1257,-19.70043 9.37973,-37.46268 21.570406,-52.81734 3.155669,-3.97469 7.655203,-8.71772 11.818233,-12.45777 15.320973,-13.7643 35.203699,-22.70089 55.56038,-24.97246 4.283799,-0.47802 6.662931,-0.59976 11.7129183,-0.59935 9.9096457,8.1e-4 17.8290117,1.04511 27.0048197,3.56103 10.030885,2.75036 20.271176,7.43213 29.109702,13.30867 12.950886,8.61076 23.969135,20.40318 31.781514,34.01456 18.008499,31.37596 17.729624,70.62344 -0.722477,101.67986 -11.442599,19.25882 -28.61318,34.02587 -49.34554,42.43813 -5.568075,2.25928 -13.428098,4.54919 -19.157176,5.58117 -2.197436,0.39584 -2.621502,0.43128 -2.7490729,0.22977 -0.086956,-0.13736 -0.1519394,-15.06337 -0.1534346,-35.24198 -0.00256,-34.43521 0.00273,-35.00655 0.3249425,-35.179 0.216511,-0.11587 4.207479,-0.17529 11.77398,-0.17529 9.002854,0 11.463025,-0.0452 11.524102,-0.21166 0.168246,-0.4586 4.420072,-28.50368 4.35142,-28.702 -0.05781,-0.16701 -2.995057,-0.21167 -13.92237,-0.21167 -12.47236,0 -13.859317,-0.0266 -13.9518834,-0.26785 -0.1824753,-0.47552 -0.1128708,-19.2977 0.077681,-21.0066 0.487809,-4.3747 2.201818,-7.8455 4.988305,-10.10113 1.362237,-1.10272 3.695507,-2.23073 5.75323,-2.78138 l 1.693333,-0.45315 7.958667,-0.0541 c 4.377267,-0.0298 8.130117,-0.0925 8.339667,-0.13951 l 0.381,-0.0854 v -12.26748 c 0,-11.51015 -0.01829,-12.27725 -0.296334,-12.42571 -0.600683,-0.32072 -9.453553,-1.37802 -14.520333,-1.73415 -3.789401,-0.26635 -11.231177,-0.27083 -13.377333,-0.008 -8.6493863,1.05906 -15.4450615,3.87474 -20.8280039,8.62974 -5.4679901,4.83014 -9.3184051,11.96657 -10.8412281,20.09336 -0.795543,4.24554 -0.806665,4.47493 -0.911618,18.80074 l -0.100484,13.716 -12.739375,0.0434 -12.739377,0.0434 -0.09188,0.37993 c -0.05053,0.20896 -0.07091,6.74263 -0.04529,14.51926 l 0.04659,14.13934 12.649256,0.0847 c 8.517297,0.057 12.707449,0.14288 12.827403,0.26287 0.123769,0.12381 0.165102,10.90041 0.135411,35.306 l -0.04274,35.1278 -0.423333,0.0292 c -0.232833,0.0161 -1.185333,-0.11647 -2.116667,-0.29445 z"
         style="fill:#8bbaf7;stroke-width:0.16933334" />
      <path
         id="path171"
         d="m -23.854273,350.68955 c -31.464555,-5.63578 -58.726069,-26.19749 -72.793772,-54.90392 -6.609325,-13.48692 -9.960115,-27.30236 -10.291405,-42.43181 -0.4581,-20.92054 5.34474,-40.89151 16.950137,-58.33533 7.24884,-10.89558 17.054797,-20.70153 27.950373,-27.95037 3.84979,-2.56127 6.688953,-4.19888 11.091333,-6.39739 14.840982,-7.41145 30.541751,-10.91848 47.2440003,-10.55275 15.3994627,0.3372 29.3469757,3.77383 43.0106667,10.5977 30.627151,15.29572 51.346947,44.91182 55.274125,79.00681 0.689187,5.98329 0.779391,15.51319 0.200135,21.14423 -1.946723,18.92485 -8.559613,35.99559 -19.720458,50.9071 -5.43135,7.25658 -13.104402,14.92912 -20.344469,20.34312 -12.585617,9.41132 -26.781553,15.62313 -42.333333,18.52406 -1.164167,0.21716 -2.173998,0.33894 -2.24407,0.27063 -0.07007,-0.0683 -0.10817,-15.93172 -0.08467,-35.25201 l 0.04274,-35.1278 11.677687,-0.0847 11.677688,-0.0847 0.132674,-0.508 c 0.337581,-1.29257 4.368756,-28.4296 4.242013,-28.55634 -0.07901,-0.079 -6.350598,-0.16316 -13.93686,-0.18699 l -13.793202,-0.0433 v -11.09133 c 0,-11.05635 0.0012,-11.09614 0.393492,-12.61533 0.216421,-0.8382 0.778044,-2.32107 1.248051,-3.29525 0.752724,-1.56017 1.038787,-1.95447 2.400508,-3.30879 2.117305,-2.10578 4.108101,-3.12569 7.641949,-3.91507 1.15591,-0.2582 2.522357,-0.31617 9.313333,-0.39508 l 7.958667,-0.0925 0.04345,-12.35175 c 0.0239,-6.79346 -0.01421,-12.40848 -0.08467,-12.47782 -0.179512,-0.17664 -5.557319,-0.91005 -9.69545,-1.32223 -9.271933,-0.92355 -16.012807,-0.92278 -21.3359997,0.002 -7.75317894,1.34757 -13.900404,4.32071 -18.8593073,9.1214 -5.501887,5.32636 -8.819542,12.20139 -10.300834,21.34596 -0.355143,2.19243 -0.37274,2.85552 -0.429915,16.19972 -0.0477,11.13321 -0.103489,13.95012 -0.279148,14.09591 -0.151293,0.12556 -4.135869,0.19569 -12.81883,0.22562 l -12.599299,0.0434 v 14.56266 14.56267 l 12.690678,0.0434 c 9.894497,0.0338 12.720142,0.0898 12.824408,0.254 0.07355,0.11582 0.134896,15.9175 0.136322,35.11485 0.0021,27.72526 -0.04094,34.93809 -0.209075,35.06875 -0.139893,0.10873 -0.814561,0.0565 -1.989666,-0.15396 z"
         style="fill:#70aaf5;stroke-width:0.16933334" />
      <path
         id="path169"
         d="m -25.886273,350.22436 c -13.458514,-2.78194 -25.669044,-7.90616 -36.660667,-15.38485 -2.851138,-1.9399 -5.504798,-3.94623 -8.466667,-6.40131 -2.822971,-2.33993 -9.815193,-9.32935 -12.181926,-12.17704 -8.408133,-10.11678 -14.552354,-21.07187 -18.546917,-33.06898 -7.19957,-21.62288 -6.88721,-45.26639 0.87957,-66.5785 9.521332,-26.12662 29.422914,-47.19 55.085127,-58.30083 24.259843,-10.50365 52.4391159,-10.90301 77.126146,-1.09304 10.131862,4.02614 19.179864,9.43184 27.855334,16.64209 2.838754,2.3593 9.828818,9.35016 12.180553,12.18192 8.61551,10.37409 14.515524,20.93414 18.637825,33.35867 6.881013,20.73922 6.85265,42.91826 -0.08153,63.754 -1.631865,4.90345 -3.046018,8.33631 -5.336319,12.954 -10.802587,21.78007 -29.347784,39.11647 -51.816525,48.43905 -3.585165,1.48753 -9.932254,3.58789 -13.716,4.53885 -3.692747,0.92808 -8.466472,1.87023 -8.809413,1.73863 -0.219224,-0.0841 -0.249921,-4.39959 -0.249921,-35.1351 0,-31.79496 0.0248,-35.04871 0.26785,-35.14198 0.147317,-0.0565 5.438083,-0.10278 11.757255,-0.10278 10.7956,0 11.494765,-0.0179 11.57814,-0.29634 0.213382,-0.71261 4.349869,-28.23988 4.303566,-28.63913 l -0.05148,-0.44387 -13.885334,-0.0847 -13.885333,-0.0847 -0.04947,-9.73667 c -0.053012,-10.43303 0.02984,-12.05652 0.740389,-14.50849 1.576851,-5.44138 5.390568,-8.69285 11.501083,-9.80551 1.193932,-0.21741 3.192673,-0.30088 9.228667,-0.38542 l 7.704666,-0.10791 0.04038,-12.27667 c 0.02221,-6.75216 -0.02322,-12.37648 -0.100936,-12.49848 -0.354784,-0.55692 -11.381339,-1.77312 -18.697711,-2.06231 -9.696069,-0.38325 -16.4204408,0.76155 -22.9823953,3.91266 -9.5919237,4.60614 -15.9791217,13.24419 -18.2659037,24.7028 -0.906372,4.54165 -0.917633,4.76033 -0.991828,19.26167 l -0.06953,13.589 h -12.682413 c -12.365423,0 -12.686794,0.008 -12.857704,0.32753 -0.209421,0.39131 -0.244891,28.59537 -0.03638,28.92371 0.104266,0.16419 2.929911,0.22015 12.824408,0.254 l 12.690678,0.0434 0.04273,35.179 0.04274,35.179 -0.466068,-0.009 c -0.256337,-0.005 -1.875767,-0.30035 -3.598733,-0.65651 z"
         style="fill:#4f97f3;stroke-width:0.16933334" />
      <path
         id="path167"
         d="m -23.854273,350.52154 c -29.42122,-5.29162 -54.949732,-23.40788 -69.900158,-49.60455 -1.778766,-3.11682 -4.57115,-8.93519 -5.935724,-12.36801 -6.503125,-16.35975 -8.618155,-34.33143 -6.104945,-51.87449 5.22827,-36.49505 30.226325,-67.38603 64.922827,-80.22742 15.560123,-5.75889 32.8598069,-7.57581 49.445333,-5.19303 15.222083,2.18689 30.213351,8.0499 42.756667,16.72191 19.64905,13.58468 33.882872,33.58738 40.140331,56.409 4.091347,14.92159 4.679256,31.37102 1.661719,46.49487 -2.614896,13.10593 -7.635393,25.2147 -15.074799,36.35848 -13.422477,20.10601 -33.93624,34.93555 -57.07246,41.25805 -3.764268,1.02866 -10.38214,2.43896 -10.675791,2.27504 -0.06985,-0.039 -0.127,-15.83979 -0.127,-35.11289 v -35.04201 h 11.5786 c 9.892292,0 11.608189,-0.0356 11.781771,-0.24481 0.202447,-0.24393 4.626006,-28.5668 4.537104,-29.04986 -0.04095,-0.22251 -1.767725,-0.26449 -13.929777,-0.33866 l -13.883032,-0.0847 -0.04958,-10.24467 c -0.05288,-10.92648 -0.0026,-11.87355 0.75895,-14.30466 1.33995,-4.27734 4.280434,-7.30893 8.434634,-8.69595 2.664501,-0.88964 3.22385,-0.93893 11.768667,-1.03703 l 8.043333,-0.0924 0.04341,-12.55446 c 0.03814,-11.02914 0.01256,-12.56631 -0.210539,-12.65192 -0.456656,-0.17524 -6.190823,-0.9307 -9.738875,-1.28308 -6.963096,-0.69153 -13.38466,-0.87936 -17.441333,-0.51014 -17.007354,1.54792 -28.487551,11.06776 -32.355245,26.83027 -0.274228,1.1176 -0.665036,3.0607 -0.868463,4.318 -0.352164,2.1766 -0.374372,2.95454 -0.464078,16.256 l -0.09421,13.97 -12.784667,0.0847 -12.784666,0.0847 -0.04327,14.68967 c -0.0238,8.07932 -0.0238,14.70751 0,14.72932 0.0238,0.0218 5.796368,0.079 12.827934,0.127 l 12.784667,0.0874 0.04274,34.95846 c 0.02351,19.22715 -0.0146,35.00868 -0.08467,35.07008 -0.07007,0.0614 -0.927504,-0.0323 -1.905404,-0.20816 z"
         style="fill:#3386f2;stroke-width:0.16933334" />
      <path
         id="path165"
         d="m -24.616273,350.28068 c -8.068605,-1.51072 -17.359051,-4.56519 -24.92363,-8.19428 -15.42984,-7.40242 -29.100812,-19.01814 -38.964338,-33.10658 -9.934473,-14.18977 -15.843669,-30.09822 -17.737499,-47.752 -0.37002,-3.4493 -0.51822,-12.88502 -0.26075,-16.60201 0.39438,-5.69358 1.15982,-10.98011 2.31101,-15.96113 3.65438,-15.81189 10.649283,-29.8352 21.175049,-42.45152 2.15306,-2.58069 7.481992,-8.05153 10.140158,-10.41019 14.18442,-12.58621 31.59701,-20.947 50.071524,-24.04223 6.576888,-1.1019 11.376767,-1.43593 18.8398,-1.31111 5.628701,0.0941 8.5136228,0.31291 12.9613423,0.9829 26.5131567,3.99381 50.0812767,18.13887 66.1326087,39.69129 9.603841,12.89528 16.156821,28.55335 18.602536,44.45 1.847512,12.0084 1.523137,24.68438 -0.92947,36.322 -2.596168,12.31889 -7.587573,24.2992 -14.4674,34.72459 -13.965377,21.16251 -35.450739,36.37404 -59.881294,42.39571 -3.651497,0.90002 -7.912644,1.73693 -8.137166,1.59816 -0.07396,-0.0457 -0.134481,-15.77582 -0.134481,-34.95578 v -34.87268 l 11.387666,-0.002 c 6.263217,-10e-4 11.556594,-0.0476 11.763059,-0.10295 0.206466,-0.0553 0.414319,-0.22576 0.461899,-0.37869 0.04758,-0.15293 1.07908,-6.7469 2.292224,-14.65329 1.66132,-10.82723 2.158858,-14.4317 2.015853,-14.60401 -0.156083,-0.18807 -2.649466,-0.23649 -14.01295,-0.2721 l -13.823085,-0.0433 0.0073,-10.49867 c 0.007,-9.98342 0.02458,-10.57765 0.358996,-12.10812 0.681093,-3.11704 1.818859,-5.34344 3.68437,-7.20962 1.422675,-1.42319 3.065123,-2.4201 5.123262,-3.10964 2.750931,-0.92164 3.952602,-1.02385 12.046182,-1.02461 4.730924,-5e-4 7.451074,-0.0629 7.662333,-0.17597 0.3193,-0.17088 0.327541,-0.49054 0.327541,-12.70419 v -12.5289 l -0.392909,-0.14938 c -0.475131,-0.18065 -6.035751,-0.93431 -9.428424,-1.27788 -11.360098,-1.15045 -18.6288,-0.95692 -25.0331546,0.6665 -13.6360205,3.45655 -22.7129084,13.15255 -25.5930584,27.33869 -0.892416,4.39558 -0.904132,4.62634 -0.974432,19.19279 l -0.06599,13.67366 h -12.65615 c -9.617892,0 -12.704927,0.0488 -12.859347,0.2032 -0.154905,0.15491 -0.2032,3.67509 -0.2032,14.81071 0,14.26871 0.0076,14.61158 0.327534,14.7828 0.217321,0.11631 4.547777,0.17529 12.869334,0.17529 h 12.541798 v 34.96734 c 0,27.86835 -0.04297,34.96452 -0.211666,34.95351 -0.116417,-0.008 -1.202267,-0.1993 -2.413,-0.42599 z"
         style="fill:#1776f1;stroke-width:0.16933334" />
    </g>
    <path
       id="path998"
       d="m 67.209934,296.58229 25.518255,0.0751"
       style="fill:none;fill-rule:evenodd;stroke:#f3f3f3;stroke-width:0.26458332px;stroke-linecap:butt;stroke-linejoin:miter;stroke-opacity:1" />
    <path
       transform="matrix(0.26458333,0,0,0.26458333,0,138.2499)"
       id="path1000"
       d="m 256.04867,540.58226 c 0.15507,-31.72321 0.20605,-79.13393 0.11331,-105.35714 l -0.16863,-47.67857 h -27.02929 c -14.86611,0 -31.90182,-0.2109 -37.85714,-0.46867 l -10.82785,-0.46866 v -42.38848 -42.38848 h 37.45784 c 20.60182,0 37.61767,-0.2586 37.81301,-0.57467 0.19535,-0.31607 0.58537,-12.20892 0.86672,-26.42857 l 0.51155,-25.8539 46.13972,-4.5e-4 46.13973,-4.5e-4 -0.22756,24.46797 c -0.14716,15.82445 0.0359,25.16073 0.51804,26.42902 l 0.74559,1.96105 h 41.16654 41.16655 l -0.37831,1.60715 c -0.20807,0.88392 -3.18829,19.95796 -6.62272,42.38675 l -6.24441,40.7796 -34.6707,0.4959 c -19.06889,0.27275 -34.84673,0.67189 -35.06186,0.88698 -0.21514,0.21509 -0.39116,47.61431 -0.39116,105.33159 v 104.9405 l -46.72045,5e-5 -46.72045,5e-5 z"
       style="fill:#ffffff;fill-opacity:1;stroke:#f3f3f3;stroke-width:0.71428573;stroke-opacity:1" />
    <path
       transform="matrix(0.26458333,0,0,0.26458333,0,138.2499)"
       id="path1002"
       d="m 255.68888,276.52259 c 0.21504,-42.46745 0.42225,-55.92707 0.94569,-61.42857 0.58539,-6.15276 2.47345,-15.82413 4.37504,-22.41072 1.67751,-5.81044 4.85741,-14.41828 5.39223,-14.59656 0.11791,-0.0393 -0.11081,0.71769 -0.50827,1.6822 -4.59455,11.14966 -8.27245,25.89068 -9.08096,36.39651 -0.26167,3.4001 -0.53589,19.82322 -0.53819,32.23214 -0.002,10.55263 -0.24763,28.12044 -0.51816,37.05357 -0.0842,2.78174 -0.10963,-0.58336 -0.0674,-8.92857 z"
       style="fill:#ffffff;fill-opacity:1;stroke:#f3f3f3;stroke-width:0.17857143;stroke-opacity:1" />
    <path
       transform="matrix(0.26458333,0,0,0.26458333,0,138.2499)"
       id="path1004"
       d="m 255.85903,263.12973 c 0.0771,-17.79139 0.36949,-39.68673 0.58065,-43.48214 0.0913,-1.64196 0.11857,-0.38919 0.0853,3.92857 -0.0433,5.62343 -0.0313,5.95615 0.10577,2.94643 0.5409,-11.87448 1.78182,-20.67605 4.27999,-30.35714 1.28642,-4.98523 3.69176,-12.12291 5.59646,-16.60715 l 0.60679,-1.42857 40.2937,-0.045 40.29371,-0.045 v 35.24913 35.24913 l -45.43155,0.0638 c -24.98736,0.0351 -45.48029,0.11249 -45.53985,0.17206 -0.0596,0.0596 -0.1667,3.11313 -0.23809,6.78571 l -0.1298,6.67742 -0.0938,-4.64286 c -0.0875,-4.33054 -0.0982,-4.10231 -0.15876,3.39286 -0.0357,4.41964 -0.12252,10.36607 -0.19293,13.21428 -0.0718,2.90561 -0.0971,-1.95382 -0.0576,-11.07143 z m 0.54766,-27.90178 c -0.0276,-2.82366 -0.0502,-0.5134 -0.0502,5.13393 0,5.64732 0.0226,7.95759 0.0502,5.13392 0.0276,-2.82366 0.0276,-7.44419 0,-10.26785 z"
       style="fill:#ffffff;fill-opacity:1;stroke:#f3f3f3;stroke-width:0.17857143;stroke-opacity:1" />
    <path
       transform="matrix(0.26458333,0,0,0.26458333,0,138.2499)"
       id="path1008"
       d="m 357.19014,215.75916 c -0.0141,-0.28784 1.66245,-2.65993 3.00181,-4.24719 3.50008,-4.1479 9.22387,-8.03728 15.42624,-10.48229 1.00675,-0.39686 2.01503,-0.798 2.24063,-0.89141 0.2256,-0.0934 0.54703,-0.16656 0.71429,-0.16255 0.16725,0.004 -0.76102,0.43693 -2.06282,0.96205 -4.6821,1.88867 -8.97899,4.30627 -11.90374,6.69751 -2.28286,1.86644 -5.07664,4.96645 -7.11269,7.89231 -0.16189,0.23264 -0.29857,0.33685 -0.30372,0.23157 z"
       style="fill:#ffffff;fill-opacity:1;stroke:#f3f3f3;stroke-width:0.17857143;stroke-opacity:1" />
    <path
       transform="matrix(0.26458333,0,0,0.26458333,0,138.2499)"
       id="path1010"
       d="m 311.60042,248.58296 -9.59822,-0.0462 v -35.17614 -35.17615 l 17.54465,-0.0464 17.54464,-0.0464 -17.54464,-0.0438 -17.54465,-0.0438 0.002,-20.9375 0.002,-20.9375 0.66743,-0.4359 c 5.66166,-3.6976 13.53415,-7.50823 21.25231,-10.28705 4.69566,-1.6906 12.41995,-3.78947 17.67522,-4.80276 l 2.36723,-0.45643 h 31.85967 31.85966 l 4.79096,0.53829 c 13.1126,1.47326 22.83543,2.89056 23.3566,3.40469 0.28918,0.28527 0.42032,13.82205 0.34671,35.78916 -0.0382,11.39286 -0.0702,24.21776 -0.0712,28.49979 l -0.002,7.7855 -12.00893,0.12308 c -17.06834,0.17494 -30.54303,0.43868 -33.34821,0.65272 -9.24729,0.70561 -18.79048,4.21761 -25.62501,9.43028 -1.50161,1.14527 -4.92018,4.50221 -6.20986,6.09792 -2.83073,3.50241 -5.38478,8.20653 -7.07759,13.03571 -1.13776,3.24578 -1.55822,4.89974 -1.89111,7.43922 -0.28913,2.20555 -0.62066,9.24275 -0.62331,13.23042 l -0.002,2.54465 h -0.80357 c -0.44196,0 -0.80357,-0.07 -0.80357,-0.15552 0,-0.0861 -0.33883,-0.0924 -0.75893,-0.0142 -0.70859,0.13197 -12.64562,0.14352 -35.35714,0.0342 z"
       style="fill:#ffffff;fill-opacity:1;stroke:#f3f3f3;stroke-width:0.17857143;stroke-opacity:1" />
    <path
       transform="matrix(0.26458333,0,0,0.26458333,0,138.2499)"
       id="path1012"
       d="m 267.21879,177.89394 c 0.0874,-0.27555 1.16147,-2.63512 1.89049,-4.15333 2.36868,-4.93287 4.72238,-8.97481 7.62465,-13.09357 3.21938,-4.56879 6.51122,-8.49694 10.52111,-12.55484 l 1.04499,-1.0575 h 5.44605 5.44605 v 15.49953 15.49952 h -16.00886 -16.00886 z"
       style="fill:#ffffff;fill-opacity:1;stroke:#f3f3f3;stroke-width:0.06313454;stroke-opacity:1" />
    <path
       transform="matrix(0.26458333,0,0,0.26458333,0,138.2499)"
       id="path1014"
       d="m 256.07757,242.62966 c 0.31458,-27.69055 2.43325,-41.83018 8.83168,-58.94103 5.40021,-14.4414 12.45182,-25.65484 22.28613,-35.4393 4.99084,-4.96554 8.33524,-7.68307 14.65065,-11.90454 12.76404,-8.53201 28.7475,-14.281 47.51758,-17.09132 6.10665,-0.9143 38.59058,-0.89509 49.28572,0.0292 3.92857,0.33949 7.34375,0.68401 7.58928,0.76558 0.35344,0.11742 0.44643,8.11062 0.44643,38.37381 v 38.2255 l -5.80357,0.006 c -13.07879,0.0127 -20.64629,1.44896 -28.66071,5.43945 -4.33721,2.15955 -7.2394,4.21973 -10.4676,7.43063 -7.98601,7.94322 -12.19175,18.57737 -12.21058,30.87427 -0.003,1.96428 -0.10871,4.6646 -0.23488,6.0007 -0.20618,2.1833 -0.30538,2.4234 -0.97961,2.37119 -0.4126,-0.032 -21.20108,-0.0403 -46.19662,-0.0186 l -45.44643,0.0395 v 4.10715 c 0,2.70067 -0.13197,4.10714 -0.38539,4.10714 -0.27207,0 -0.33737,-4.22651 -0.22208,-14.375 z"
       style="fill:#ffffff;fill-opacity:1;stroke:#f3f3f3;stroke-width:0.35714287;stroke-opacity:1" />
  </g>
</svg>
