<?xml version="1.0" encoding="UTF-8" standalone="no"?>
<svg
   xmlns:dc="http://purl.org/dc/elements/1.1/"
   xmlns:cc="http://creativecommons.org/ns#"
   xmlns:rdf="http://www.w3.org/1999/02/22-rdf-syntax-ns#"
   xmlns:svg="http://www.w3.org/2000/svg"
   xmlns="http://www.w3.org/2000/svg"
   id="svg8"
   version="1.1"
   viewBox="0 0 67.733333 67.733376"
   height="256"
   width="256">
  <defs
     id="defs2" />
  <metadata
     id="metadata5">
    <rdf:RDF>
      <cc:Work
         rdf:about="">
        <dc:format>image/svg+xml</dc:format>
        <dc:type
           rdf:resource="http://purl.org/dc/dcmitype/StillImage" />
        <dc:title></dc:title>
      </cc:Work>
    </rdf:RDF>
  </metadata>
  <g
     transform="translate(0,-229.26657)"
     id="layer1">
    <g
       transform="matrix(1.1771284,0,0,1.1771284,281.34919,33.990966)"
       id="g1167">
      <path
         id="path1181"
         d="m -215.55578,223.12721 c -14.10633,-2.80288 -24.13424,-15.61985 -23.36459,-29.86295 0.70171,-12.98567 9.44873,-23.43869 22.31542,-26.66777 3.35585,-0.8422 9.52402,-0.8422 12.87987,0 12.86669,3.22908 21.61371,13.6821 22.31542,26.66777 0.77733,14.38512 -9.54864,27.40795 -23.69678,29.88573 -2.71825,0.47605 -7.99674,0.46454 -10.44934,-0.0228 z"
         style="fill:#fbcfb2;stroke-width:0.26458332" />
      <path
         id="path1179"
         d="m -214.53064,223.29337 c -3.92331,-0.6316 -8.37214,-2.3883 -11.77152,-4.6482 -2.41879,-1.60802 -5.96527,-5.16853 -7.6355,-7.66574 -6.3581,-9.50615 -6.71633,-21.37562 -0.93829,-31.08919 3.95528,-6.64927 10.35812,-11.3079 18.271,-13.29375 3.35585,-0.8422 9.52402,-0.8422 12.87987,0 7.91288,1.98585 14.31572,6.64448 18.271,13.29375 6.83181,11.48507 4.98862,25.88078 -4.52341,35.32879 -3.70029,3.67539 -7.99911,6.13686 -12.98932,7.43758 -2.03507,0.53045 -3.36417,0.68808 -6.40446,0.75955 -2.11005,0.0496 -4.43177,-0.006 -5.15937,-0.12279 z m 7.08904,-13.10826 c 1.21092,-0.57462 1.53819,-1.37995 1.33822,-3.29307 -0.2163,-2.06949 -0.0204,-2.70611 1.0207,-3.31629 1.29311,-0.75791 3.79459,-3.22141 4.69349,-4.62223 0.43393,-0.67621 0.9534,-1.88039 1.15439,-2.67597 0.31836,-1.26018 0.49848,-1.5169 1.39834,-1.993 1.20626,-0.63821 1.68504,-1.44259 1.69046,-2.84008 0.003,-0.86648 -0.59762,-2.56655 -0.90729,-2.56655 -0.0571,0 -0.27594,-0.066 -0.48625,-0.14673 -0.2823,-0.10833 -0.42951,0.14794 -0.56241,0.97906 -0.22418,1.40192 -0.55535,1.81351 -1.45921,1.81351 -1.0603,0 -1.34278,-0.46791 -1.34975,-2.23573 -0.006,-1.46423 -0.32004,-3.47049 -0.58516,-3.7356 -0.0597,-0.0597 -0.50683,-0.18823 -0.99358,-0.28558 -0.79705,-0.15941 -0.86453,-0.12681 -0.67892,0.32797 0.7294,1.78722 -0.74901,1.86377 -4.68134,0.2424 -0.37139,-0.15313 -0.46302,-0.0544 -0.46302,0.49885 0,0.51787 -0.1345,0.68977 -0.53971,0.68977 -0.58464,0 -2.32935,-0.81868 -3.49519,-1.64007 -0.73264,-0.51618 -0.828,-0.46663 -0.74113,0.3851 0.11527,1.13033 -1.41248,0.80957 -3.62024,-0.76009 -0.69263,-0.49245 -1.34568,-0.89536 -1.45122,-0.89536 -0.34217,0 -0.98947,2.72092 -1.19595,5.02709 l -0.20135,2.24895 -0.97489,0.0811 c -1.09259,0.0909 -1.34662,-0.1969 -1.64811,-1.86702 -0.20264,-1.12259 -0.37602,-1.19435 -1.22488,-0.50698 -0.45712,0.37015 -0.62863,0.83997 -0.72327,1.98121 -0.14762,1.78011 0.28956,2.63216 1.64009,3.19644 0.77069,0.32202 0.95671,0.58865 1.33923,1.91961 0.24433,0.85011 0.79375,2.095 1.22094,2.76642 0.88343,1.38849 3.38475,3.85362 4.68126,4.61352 1.04106,0.61018 1.237,1.2468 1.0207,3.31629 -0.24143,2.30987 0.34783,3.16272 2.60643,3.77233 0.89467,0.24149 3.22236,-0.0255 4.17862,-0.47926 z"
         style="fill:#a2d7ec;stroke-width:0.26458332" />
      <path
         id="path1177"
         d="m -214.86538,222.89508 c -6.43395,-1.22495 -10.95313,-3.62667 -15.28256,-8.12193 -3.92768,-4.07811 -6.30031,-8.26541 -7.6091,-13.42877 -0.83424,-3.29121 -0.83424,-10.00004 0,-13.29125 1.32529,-5.22847 3.76415,-9.51199 7.59928,-13.34712 3.83513,-3.83513 8.11865,-6.27399 13.34712,-7.59928 3.29121,-0.83424 10.00004,-0.83424 13.29125,0 5.22847,1.32529 9.51199,3.76415 13.34712,7.59928 2.7845,2.7845 4.55968,5.35723 5.99725,8.6917 1.7523,4.0645 2.17995,6.28147 2.17995,11.30104 0,5.01958 -0.42765,7.23655 -2.17995,11.30105 -1.50643,3.49419 -3.23976,5.94026 -6.52436,9.2071 -4.0236,4.00185 -7.43887,5.93299 -12.88987,7.28848 -2.8769,0.71539 -8.55994,0.91684 -11.27613,0.3997 z m 7.43603,-12.71579 c 1.16873,-0.5546 1.60201,-1.587 1.62979,-3.88346 0.0119,-0.98165 0.0763,-1.82705 0.14317,-1.87868 0.0669,-0.0516 0.73852,-0.53714 1.49255,-1.07893 2.76249,-1.98488 4.96229,-4.99789 5.5046,-7.53952 0.14275,-0.66904 0.4035,-0.97418 1.07065,-1.25293 1.25686,-0.52515 1.71107,-1.31136 1.71107,-2.96173 0,-1.93923 -0.7362,-3.23528 -1.83775,-3.23528 -0.11384,0 -0.28286,0.55353 -0.37559,1.23007 -0.20526,1.4976 -0.54343,1.94493 -1.4703,1.94493 -1.0603,0 -1.34278,-0.46791 -1.34975,-2.23573 -0.006,-1.46423 -0.32004,-3.47049 -0.58516,-3.7356 -0.0597,-0.0597 -0.50683,-0.18823 -0.99358,-0.28558 -0.79705,-0.15941 -0.86453,-0.12681 -0.67892,0.32797 0.7294,1.78722 -0.74901,1.86377 -4.68134,0.2424 -0.37139,-0.15313 -0.46302,-0.0544 -0.46302,0.49885 0,0.51787 -0.1345,0.68977 -0.53971,0.68977 -0.58464,0 -2.32935,-0.81868 -3.49519,-1.64007 -0.73264,-0.51618 -0.828,-0.46663 -0.74113,0.3851 0.11527,1.13033 -1.41248,0.80957 -3.62024,-0.76009 -0.69263,-0.49245 -1.34568,-0.89536 -1.45122,-0.89536 -0.34217,0 -0.98947,2.72092 -1.19595,5.02709 l -0.20135,2.24895 -0.97489,0.0811 c -1.11588,0.0928 -1.36688,-0.20887 -1.66348,-1.99932 -0.21655,-1.30729 -0.64739,-1.43465 -1.60699,-0.47504 -0.40631,0.40631 -0.65993,0.97584 -0.67747,1.52135 -0.0816,2.5381 0.29626,3.42337 1.71412,4.01579 0.7385,0.30856 0.93414,0.57774 1.20287,1.65502 0.61292,2.45703 2.97387,5.5529 5.57771,7.31392 0.65485,0.44288 1.24534,0.85058 1.31221,0.90599 0.0669,0.0554 0.1313,0.90392 0.14317,1.88557 0.0341,2.82032 0.6611,3.76148 2.91025,4.36854 0.89917,0.2427 3.22435,-0.0264 4.19087,-0.48508 z"
         style="fill:#26a9e0;stroke-width:0.26458332" />
      <path
         id="path1175"
         d="m -214.86538,222.87755 c -4.24643,-0.76975 -8.31996,-2.43235 -11.57151,-4.72288 -1.08247,-0.76254 -1.61622,-1.32561 -1.67777,-1.76993 -0.0497,-0.35838 -0.26996,-0.85279 -0.48958,-1.09867 -0.3567,-0.39935 -0.35025,-0.59703 0.0604,-1.85209 1.66406,-5.0859 4.93655,-7.35814 10.5972,-7.35814 2.79309,0 3.17847,-0.30489 1.51252,-1.19661 -1.34441,-0.71961 -4.33273,-3.7352 -4.97568,-5.0211 -0.29104,-0.58208 -0.60121,-1.11786 -0.68926,-1.19063 -0.31168,-0.25754 -0.81676,-2.15834 -0.69611,-2.6197 0.0947,-0.36224 -0.008,-0.44325 -0.45224,-0.35823 -0.37675,0.072 -0.86546,-0.1618 -1.41904,-0.67893 -0.77494,-0.7239 -0.84898,-0.93782 -0.90028,-2.60085 -0.1088,-3.52729 -0.098,-3.57316 1.08375,-4.62191 0.92888,-0.82431 1.08881,-1.1199 1.08881,-2.01244 0,-1.27957 0.86505,-4.75211 1.48008,-5.94145 0.31161,-0.60258 0.43428,-1.39803 0.39634,-2.57003 -0.0609,-1.88106 0.11386,-2.13375 1.48025,-2.14032 0.75683,-0.004 0.85162,-0.0921 0.92604,-0.86395 l 0.0829,-0.85989 1.76117,-0.0777 c 0.96864,-0.0427 2.51645,0.0897 3.43958,0.29436 0.92313,0.20463 2.15586,0.31909 2.73939,0.25438 1.65002,-0.18299 5.65959,0.35356 7.33974,0.98218 2.06162,0.77135 4.1935,2.75523 5.21323,4.85132 0.95444,1.96188 1.5996,4.36248 1.5996,5.95205 0,1.03484 0.12373,1.27503 1.10574,2.14648 l 1.10573,0.98126 0.0583,2.22969 c 0.0652,2.49229 -0.30192,3.63941 -1.39354,4.35467 -0.36612,0.23989 -0.86188,0.38523 -1.10169,0.32298 -0.34876,-0.0905 -0.43877,0.0953 -0.44982,0.92859 -0.009,0.69427 -0.16365,1.12561 -0.46302,1.29315 -0.24706,0.13827 -0.44921,0.53004 -0.44921,0.8706 0,1.30526 -3.69203,5.35191 -5.75469,6.30741 -0.32742,0.15168 -0.59531,0.43526 -0.59531,0.63018 0,0.27101 0.58496,0.35441 2.48567,0.35441 5.23121,0 8.71056,2.16752 10.24803,6.38418 0.31151,0.85432 0.64038,1.55332 0.73084,1.55332 0.0905,0 0.51192,-0.41672 0.93659,-0.92604 0.42467,-0.50933 0.93002,-0.92605 1.123,-0.92605 0.19787,0 0.35087,-0.28842 0.35087,-0.66145 0,-0.48507 0.14111,-0.66146 0.52917,-0.66146 0.29104,0 0.52916,0.0931 0.52916,0.20699 0,0.11384 -0.94125,1.22233 -2.09168,2.4633 -1.15042,1.24097 -2.13269,2.54239 -2.18281,2.89202 -0.17444,1.21685 -5.45039,4.34218 -9.33934,5.53237 -4.29501,1.31447 -9.30832,1.67019 -13.31153,0.94453 z m 7.43603,-12.69826 c 1.16873,-0.5546 1.60201,-1.587 1.62979,-3.88346 0.0119,-0.98165 0.0763,-1.82705 0.14317,-1.87868 0.0669,-0.0516 0.73852,-0.53714 1.49255,-1.07893 2.76249,-1.98488 4.96229,-4.99789 5.5046,-7.53952 0.14275,-0.66904 0.4035,-0.97418 1.07065,-1.25293 1.25686,-0.52515 1.71107,-1.31136 1.71107,-2.96173 0,-1.93923 -0.7362,-3.23528 -1.83775,-3.23528 -0.11384,0 -0.28286,0.55353 -0.37559,1.23007 -0.20526,1.4976 -0.54343,1.94493 -1.4703,1.94493 -1.0603,0 -1.34278,-0.46791 -1.34975,-2.23573 -0.006,-1.46423 -0.32004,-3.47049 -0.58516,-3.7356 -0.0597,-0.0597 -0.50683,-0.18823 -0.99358,-0.28558 -0.79705,-0.15941 -0.86453,-0.12681 -0.67892,0.32797 0.7294,1.78722 -0.74901,1.86377 -4.68134,0.2424 -0.37139,-0.15313 -0.46302,-0.0544 -0.46302,0.49885 0,0.51787 -0.1345,0.68977 -0.53971,0.68977 -0.58464,0 -2.32935,-0.81868 -3.49519,-1.64007 -0.73264,-0.51618 -0.828,-0.46663 -0.74113,0.3851 0.11527,1.13033 -1.41248,0.80957 -3.62024,-0.76009 -0.69263,-0.49245 -1.34568,-0.89536 -1.45122,-0.89536 -0.34217,0 -0.98947,2.72092 -1.19595,5.02709 l -0.20135,2.24895 -0.97489,0.0811 c -1.11588,0.0928 -1.36688,-0.20887 -1.66348,-1.99932 -0.21655,-1.30729 -0.64739,-1.43465 -1.60699,-0.47504 -0.40631,0.40631 -0.65993,0.97584 -0.67747,1.52135 -0.0816,2.5381 0.29626,3.42337 1.71412,4.01579 0.7385,0.30856 0.93414,0.57774 1.20287,1.65502 0.61292,2.45703 2.97387,5.5529 5.57771,7.31392 0.65485,0.44288 1.24534,0.85058 1.31221,0.90599 0.0669,0.0554 0.1313,0.90392 0.14317,1.88557 0.0341,2.82032 0.6611,3.76148 2.91025,4.36854 0.89917,0.2427 3.22435,-0.0264 4.19087,-0.48508 z m -11.80316,-3.46956 c -0.0879,-0.0879 -0.31612,-0.0973 -0.50711,-0.0209 -0.21107,0.0845 -0.14838,0.14715 0.15985,0.15985 0.27891,0.0115 0.43518,-0.0511 0.34726,-0.13896 z m 18.78542,0 c -0.0879,-0.0879 -0.31612,-0.0973 -0.50712,-0.0209 -0.21106,0.0845 -0.14837,0.14715 0.15986,0.15985 0.27891,0.0115 0.43518,-0.0511 0.34726,-0.13896 z m 3.16543,-19.87729 c -0.0671,-0.25743 -0.12638,-0.11087 -0.13178,0.32569 -0.005,0.43656 0.0495,0.64719 0.12198,0.46806 0.0725,-0.17913 0.0769,-0.53632 0.01,-0.79375 z m -25.40261,-1.44371 c -0.0845,-0.21107 -0.14716,-0.14837 -0.15986,0.15985 -0.0115,0.27892 0.0511,0.43519 0.13897,0.34727 0.0879,-0.0879 0.0973,-0.31612 0.0209,-0.50712 z m 13.64373,-10.99204 c -0.61846,-0.0557 -1.63049,-0.0557 -2.24895,0 -0.61847,0.0557 -0.11245,0.10128 1.12448,0.10128 1.23692,0 1.74294,-0.0456 1.12447,-0.10128 z m -6.75238,-0.49529 c -0.0879,-0.0879 -0.31613,-0.0973 -0.50712,-0.0209 -0.21107,0.0845 -0.14837,0.14716 0.15985,0.15986 0.27892,0.0115 0.43519,-0.0511 0.34727,-0.13897 z m -14.48021,39.65525 c -0.35581,-0.45234 -0.45591,-0.75843 -0.26848,-0.82091 0.38141,-0.12713 1.3266,0.71811 1.3266,1.18631 0,0.56799 -0.44472,0.41441 -1.05812,-0.3654 z m -1.35243,-1.59383 c -0.39483,-0.48635 -1.32078,-1.81719 -1.65818,-2.38326 -0.15726,-0.26385 -0.0579,-0.26875 0.48,-0.0237 0.37307,0.16999 0.67831,0.52808 0.67831,0.79576 0,0.26768 0.11034,0.4867 0.2452,0.4867 0.13487,0 0.4234,0.35719 0.64118,0.79375 0.43404,0.87005 0.20821,1.06329 -0.38651,0.33073 z m 43.95013,-2.33401 c 0,-0.48256 0.62015,-1.17172 1.05439,-1.17172 0.18366,0 0.1181,0.30528 -0.17044,0.79375 -0.51326,0.86887 -0.88395,1.02738 -0.88395,0.37797 z m -46.28996,-1.14906 c -0.16253,-0.3037 -0.1849,-0.55183 -0.0497,-0.55183 0.27193,0 0.64734,0.80139 0.46216,0.98657 -0.0644,0.0644 -0.24999,-0.13124 -0.41242,-0.43474 z m 47.61287,-0.64415 c 0,-0.26105 0.16862,-0.64326 0.37471,-0.84935 0.2061,-0.20609 0.65258,-1.26831 0.99219,-2.36048 0.61381,-1.97395 1.23354,-2.75471 0.91252,-1.14962 -0.17763,0.88815 -1.30991,3.43371 -1.91811,4.31221 -0.32991,0.47654 -0.36131,0.48065 -0.36131,0.0472 z m -48.26451,-0.66592 c -0.11397,-0.18441 -0.13577,-0.40675 -0.0484,-0.49408 0.2368,-0.2368 0.49498,0.11146 0.36708,0.49515 -0.0896,0.26886 -0.15194,0.26865 -0.31864,-0.001 z m -0.90175,-1.75948 c -0.18184,-0.39911 -0.27629,-0.78 -0.20987,-0.84642 0.17963,-0.17963 0.74214,0.96717 0.63381,1.29215 -0.0513,0.15396 -0.24209,-0.0466 -0.42394,-0.44573 z m -0.76535,-1.8479 c -0.51859,-1.27743 -0.92787,-3.21333 -0.79139,-3.74329 0.0861,-0.33434 0.13596,-0.25886 0.1569,0.23756 0.0169,0.40018 0.13428,0.7276 0.26089,0.7276 0.31741,0 0.89525,2.16111 0.78549,2.93768 -0.0867,0.61358 -0.10012,0.6084 -0.41189,-0.15955 z m 52.61464,-2.51355 c 0,-0.3638 0.10232,-0.89958 0.22739,-1.19062 0.20727,-0.48235 0.22739,-0.47064 0.22739,0.13229 0,0.3638 -0.10232,0.89958 -0.22739,1.19063 -0.20727,0.48234 -0.22739,0.47064 -0.22739,-0.1323 z m -53.85201,-2.80086 c -0.0886,-0.23079 -0.0454,-0.61774 0.0959,-0.85989 0.20439,-0.35022 0.2586,-0.26438 0.265,0.41961 0.009,0.94154 -0.11203,1.08894 -0.36094,0.44028 z m 54.34803,-0.83716 c 0.003,-0.56698 0.0607,-0.63999 0.26054,-0.33073 0.33454,0.51767 0.33454,1.05834 0,1.05834 -0.14552,0 -0.26276,-0.32742 -0.26054,-0.72761 z m -0.004,-6.54843 c 0,-0.65485 -0.10247,-1.19063 -0.22773,-1.19063 -0.12525,0 -0.29538,-0.56554 -0.37808,-1.25677 -0.0827,-0.69122 -0.22734,-1.49489 -0.32142,-1.78594 -0.14622,-0.45233 -0.12989,-0.46561 0.1125,-0.0914 0.61003,0.94172 1.515,5.51539 1.09131,5.51539 -0.15212,0 -0.27658,-0.53578 -0.27658,-1.19062 z m -54.37187,0.39687 c 0.0899,-0.14552 0.21603,-0.26458 0.2802,-0.26458 0.0642,0 0.11668,0.11906 0.11668,0.26458 0,0.14552 -0.12609,0.26459 -0.2802,0.26459 -0.15411,0 -0.20662,-0.11907 -0.11668,-0.26459 z m 0.41776,-1.47725 c 0.0127,-0.30823 0.0754,-0.37092 0.15986,-0.15986 0.0764,0.191 0.067,0.4192 -0.0209,0.50712 -0.0879,0.0879 -0.15045,-0.0683 -0.13897,-0.34726 z m 0.17633,-0.97014 c -0.0682,-0.1819 -0.0298,-0.56886 0.0854,-0.8599 0.1705,-0.43092 0.21282,-0.36951 0.22797,0.33073 0.0193,0.89422 -0.10059,1.09674 -0.31336,0.52917 z m 0.49282,-1.73971 c -0.34069,-0.55124 1.49085,-4.69676 3.16097,-7.15456 l 0.64691,-0.95201 v 0.72288 c 0,0.44149 -0.14346,0.72288 -0.36856,0.72288 -0.40456,0 -0.68977,0.55596 -0.68977,1.34455 0,0.27914 -0.14883,0.50885 -0.33073,0.51046 -0.35635,0.003 -1.78331,3.10144 -1.78999,3.88649 -0.006,0.6666 -0.41509,1.26515 -0.62883,0.91931 z m 51.69746,-1.78164 c 0,-0.22687 0.11907,-0.3389 0.26459,-0.24897 0.14552,0.0899 0.26458,0.27556 0.26458,0.41249 0,0.13694 -0.11906,0.24897 -0.26458,0.24897 -0.14552,0 -0.26459,-0.18562 -0.26459,-0.41249 z m -1.32291,-2.91041 c 0,-0.22687 0.11906,-0.33891 0.26458,-0.24897 0.14552,0.0899 0.26458,0.27555 0.26458,0.41249 0,0.13693 -0.11906,0.24897 -0.26458,0.24897 -0.14552,0 -0.26458,-0.18562 -0.26458,-0.41249 z m -1.12448,-1.99081 c -0.25466,-0.27892 -0.46302,-0.62618 -0.46302,-0.7717 0,-0.14553 -0.11907,-0.26459 -0.26459,-0.26459 -0.14552,0 -0.26458,-0.17859 -0.26458,-0.39687 0,-0.21828 -0.11906,-0.39688 -0.26458,-0.39688 -0.14552,0 -0.26567,-0.14883 -0.26699,-0.33073 -0.001,-0.1819 -0.35851,-0.61202 -0.79375,-0.95582 -0.43524,-0.3438 -0.79135,-0.79029 -0.79135,-0.99219 0,-0.2019 -0.17859,-0.36709 -0.39687,-0.36709 -0.21828,0 -0.39688,-0.17859 -0.39688,-0.39688 0,-0.21828 0.0689,-0.39687 0.15304,-0.39687 0.42781,0 3.29289,3.53841 4.44539,5.4901 0.29634,0.50184 -0.17173,0.35352 -0.69582,-0.22048 z m -44.84506,-2.38174 c 0.57947,-0.94906 3.23016,-3.68163 3.57132,-3.68163 0.72936,0 0.47759,0.35046 -1.58876,2.21156 -0.5457,0.4915 -0.99219,1.00929 -0.99219,1.15065 0,0.14136 -0.29684,0.39227 -0.65964,0.55757 -0.62146,0.28316 -0.6406,0.26937 -0.33073,-0.23815 z m 39.48725,-3.90644 c -0.80133,-0.26056 -1.7198,-0.92548 -1.7198,-1.24504 0,-0.15632 -0.41671,-0.48295 -0.92604,-0.72582 -0.50932,-0.24288 -0.92604,-0.56565 -0.92604,-0.71726 0,-0.4636 3.30041,1.53815 3.86495,2.34415 0.21912,0.31283 0.36187,0.55691 0.31724,0.54241 -0.0446,-0.0145 -0.31927,-0.10381 -0.61031,-0.19844 z m -35.32188,-0.30436 c 0,-0.14552 0.12609,-0.26458 0.2802,-0.26458 0.15411,0 0.20661,0.11906 0.11668,0.26458 -0.0899,0.14552 -0.21603,0.26459 -0.2802,0.26459 -0.0642,0 -0.11668,-0.11907 -0.11668,-0.26459 z m 1.57751,-1.33367 c 1.0248,-0.87595 1.33291,-0.96637 1.33291,-0.39116 0,0.21551 -0.29766,0.46654 -0.66146,0.55785 -0.3638,0.0913 -0.66146,0.27217 -0.66146,0.40192 0,0.12974 -0.20836,0.23106 -0.46302,0.22514 -0.34392,-0.008 -0.2274,-0.21215 0.45303,-0.79375 z m 2.12666,-1.32046 c 0,-0.14096 0.17859,-0.25628 0.39687,-0.25628 0.21829,0 0.39688,0.0468 0.39688,0.10398 0,0.0572 -0.17859,0.17252 -0.39688,0.25628 -0.21828,0.0838 -0.39687,0.037 -0.39687,-0.10398 z m 26.25989,-0.38747 c -0.72698,-0.82572 0.0755,-0.9366 1.02903,-0.1422 l 0.62462,0.52036 -0.66146,-0.001 c -0.3638,-6.8e-4 -0.81029,-0.1703 -0.99219,-0.3769 z m -24.5401,-0.66256 c 0.0899,-0.14552 0.33509,-0.26459 0.54478,-0.26459 0.2097,0 0.38126,0.11907 0.38126,0.26459 0,0.14552 -0.24515,0.26458 -0.54478,0.26458 -0.29963,0 -0.4712,-0.11906 -0.38126,-0.26458 z m 1.19063,-0.41038 c 0,-0.21808 1.76474,-0.91314 2.3066,-0.90849 0.40121,0.003 0.41234,0.0423 0.0746,0.26053 -0.21829,0.14107 -0.66477,0.25831 -0.99219,0.26053 -0.32742,0.002 -0.59531,0.12312 -0.59531,0.26864 0,0.14552 -0.1786,0.26458 -0.39688,0.26458 -0.21828,0 -0.39687,-0.0656 -0.39687,-0.14579 z m 20.93785,-0.26144 c -0.48965,-0.21258 -1.11473,-0.38652 -1.38907,-0.38652 -0.27433,0 -0.49879,-0.11906 -0.49879,-0.26458 0,-0.14552 0.14883,-0.26449 0.33073,-0.26437 0.41747,2.7e-4 2.75633,0.88198 3.0085,1.13415 0.31518,0.31518 -0.50709,0.19129 -1.45137,-0.21868 z m -3.60765,-1.16144 c -0.29104,-0.11672 -1.3626,-0.30207 -2.38125,-0.41187 -1.49075,-0.1607 -1.73117,-0.24518 -1.23233,-0.43299 0.34086,-0.12833 0.72837,-0.16619 0.86113,-0.0841 0.13276,0.082 0.78467,0.19345 1.44868,0.24756 0.66402,0.0541 1.34807,0.21252 1.52012,0.35203 0.17205,0.1395 0.55094,0.31217 0.84199,0.38371 l 0.52916,0.13007 -0.52916,0.0139 c -0.29105,0.008 -0.7673,-0.0816 -1.05834,-0.1983 z m -11.77395,-0.38739 c 0,-0.251 0.79199,-0.37749 0.93318,-0.14905 0.086,0.13917 -0.0888,0.25303 -0.3884,0.25303 -0.29963,0 -0.54478,-0.0468 -0.54478,-0.10398 z"
         style="fill:#26a8de;stroke-width:0.26458332" />
      <path
         id="path1173"
         d="m -214.86538,222.87755 c -4.20217,-0.76172 -8.00374,-2.29789 -11.40855,-4.61005 -1.784,-1.2115 -1.86473,-1.43854 -1.24155,-3.49177 1.54626,-5.09459 5.35429,-7.77632 10.77279,-7.58654 1.97069,0.069 2.21516,0.13376 2.29011,0.60644 0.32593,2.05537 1.56904,2.89462 4.28757,2.89462 2.71852,0 3.96163,-0.83925 4.28756,-2.89462 0.075,-0.47268 0.31942,-0.53742 2.29011,-0.60644 5.4185,-0.18978 9.22653,2.49195 10.77279,7.58654 0.62318,2.05323 0.54245,2.28027 -1.24155,3.49177 -6.06461,4.11839 -13.9205,5.85878 -20.80928,4.61005 z m -6.98482,-31.93417 c -0.21581,-0.38428 -0.34468,-1.58998 -0.34803,-3.25608 -0.006,-3.0411 0.63361,-5.51673 1.96805,-7.61596 0.94755,-1.49061 0.98034,-1.77339 0.27558,-2.37682 -0.94868,-0.81229 -0.58814,-1.26894 1.19063,-1.50798 0.97137,-0.13055 1.05133,-0.20205 0.97312,-0.87016 -0.11794,-1.00751 0.39197,-1.12806 2.63186,-0.62223 1.09885,0.24816 3.07334,0.42544 4.73827,0.42544 3.40016,0 5.45682,0.54356 7.57406,2.00176 3.28164,2.26015 5.51942,8.086 4.76991,12.41803 -0.27782,1.60577 -0.56104,1.98438 -1.48441,1.98438 -1.0603,0 -1.34278,-0.46791 -1.34975,-2.23573 -0.006,-1.46423 -0.32004,-3.47049 -0.58516,-3.7356 -0.0597,-0.0597 -0.50683,-0.18823 -0.99358,-0.28558 -0.79705,-0.15941 -0.86453,-0.12681 -0.67892,0.32797 0.7294,1.78722 -0.74901,1.86377 -4.68134,0.2424 -0.37139,-0.15313 -0.46302,-0.0544 -0.46302,0.49885 0,0.51787 -0.1345,0.68977 -0.53971,0.68977 -0.58464,0 -2.32935,-0.81868 -3.49519,-1.64007 -0.73264,-0.51618 -0.828,-0.46663 -0.74113,0.3851 0.11527,1.13033 -1.41248,0.80957 -3.62024,-0.76009 -0.69263,-0.49245 -1.34568,-0.89536 -1.45122,-0.89536 -0.34217,0 -0.98947,2.72092 -1.19595,5.02709 l -0.20135,2.24895 -0.97489,0.0811 c -0.78987,0.0657 -1.03992,-0.0347 -1.31759,-0.52917 z"
         style="fill:#2d6f94;stroke-width:0.26458332" />
      <path
         id="path1171"
         d="m -214.86538,222.89508 c -1.05723,-0.20128 -2.77776,-0.62583 -3.8234,-0.94343 -3.34726,-1.0167 -8.93873,-4.12603 -8.93873,-4.97069 0,-0.94168 1.11605,-4.02238 1.86902,-5.15916 0.98896,-1.49305 1.99511,-2.36939 3.79109,-3.30197 1.18303,-0.61431 1.73377,-0.71468 4.42178,-0.80583 l 3.07043,-0.10413 0.16005,0.80024 c 0.22634,1.13168 1.09401,1.8285 2.73377,2.19547 2.65405,0.59395 5.21023,-0.41423 5.56648,-2.19547 l 0.16005,-0.80024 3.07043,0.10413 c 2.68802,0.0911 3.23875,0.19152 4.42178,0.80583 1.79598,0.93258 2.80213,1.80892 3.79109,3.30197 0.75533,1.14035 1.86902,4.21833 1.86902,5.16555 0,1.02837 -6.43509,4.34344 -10.45104,5.3839 -3.2889,0.85209 -8.71333,1.09471 -11.71182,0.52383 z m -6.93676,-31.892 c -0.96385,-1.80097 0.34758,-8.64311 2.12759,-11.10035 0.91851,-1.26797 0.95803,-1.62804 0.24912,-2.2696 -0.78544,-0.71081 -0.66778,-0.86304 0.85989,-1.11253 1.30757,-0.21354 1.3846,-0.26905 1.31291,-0.94622 -0.0671,-0.63383 0.0144,-0.71937 0.68555,-0.71937 0.41894,0 1.31748,0.16726 1.99676,0.37169 0.83709,0.25193 1.91219,0.32528 3.33659,0.22765 3.78059,-0.25913 6.7883,0.65895 9.03086,2.7566 2.23866,2.094 3.09203,3.98647 3.81023,8.44967 0.57068,3.54641 0.25429,4.86314 -1.16852,4.86314 -1.0603,0 -1.34278,-0.46791 -1.34975,-2.23573 -0.006,-1.46423 -0.32004,-3.47049 -0.58516,-3.7356 -0.0597,-0.0597 -0.50683,-0.18823 -0.99358,-0.28558 -0.79705,-0.15941 -0.86453,-0.12681 -0.67892,0.32797 0.7294,1.78722 -0.74901,1.86377 -4.68134,0.2424 -0.37139,-0.15313 -0.46302,-0.0544 -0.46302,0.49885 0,0.51787 -0.1345,0.68977 -0.53971,0.68977 -0.58464,0 -2.32935,-0.81868 -3.49519,-1.64007 -0.73264,-0.51618 -0.828,-0.46663 -0.74113,0.3851 0.11527,1.13033 -1.41248,0.80957 -3.62024,-0.76009 -0.69263,-0.49245 -1.34568,-0.89536 -1.45122,-0.89536 -0.34217,0 -0.98947,2.72092 -1.19595,5.02709 l -0.20135,2.24895 -0.97489,0.0811 c -0.76644,0.0637 -1.03788,-0.0366 -1.26953,-0.46947 z"
         style="fill:#57515d;stroke-width:0.26458332" />
      <path
         id="path1169"
         d="m -215.98585,222.22931 c -3.67234,-0.78061 -8.43668,-2.90809 -10.94613,-4.8879 -1.12553,-0.88799 0.43782,-4.9984 2.70298,-7.10677 1.83055,-1.70384 3.4132,-2.37334 5.69684,-2.40989 l 1.81931,-0.0291 0.33765,1.13147 c 0.52377,1.75514 1.10447,2.43309 2.72687,3.18355 2.11583,0.97869 4.8508,0.97869 6.96663,0 1.6224,-0.75046 2.2031,-1.42841 2.72687,-3.18355 l 0.33765,-1.13147 1.81931,0.0291 c 2.31548,0.0371 3.89673,0.71908 5.76599,2.48695 1.5388,1.45533 2.69497,3.6401 2.95741,5.58851 l 0.15569,1.15584 -1.67781,1.09152 c -3.28354,2.13616 -6.60281,3.48747 -10.27964,4.18495 -2.95899,0.56131 -8.21303,0.5125 -11.10962,-0.10321 z m -5.1998,-31.36414 c -0.42385,-0.31017 -0.48797,-0.73809 -0.48297,-3.22297 0.007,-3.28056 0.56512,-5.34764 2.10337,-7.7846 l 0.90309,-1.43072 -0.64992,-0.6798 c -0.7253,-0.75865 -0.61981,-1.03825 0.39377,-1.0436 0.37593,-0.002 0.9629,-0.0784 1.30438,-0.16984 0.51963,-0.13912 0.59621,-0.28953 0.46964,-0.92243 -0.18221,-0.91104 0.0662,-0.94654 2.35962,-0.3373 1.06626,0.28325 2.10144,0.36768 3.19652,0.26071 2.14149,-0.20918 5.17894,0.24244 6.88565,1.02379 3.91006,1.79009 6.17153,6.01377 6.17119,11.52576 -1.6e-4,2.53203 -0.17475,2.99546 -1.08029,2.86742 -0.5934,-0.0839 -0.64437,-0.23312 -0.84397,-2.47054 -0.11683,-1.30969 -0.37277,-2.62672 -0.56876,-2.92673 -0.45105,-0.69048 -2.46643,-1.33982 -2.87874,-0.92751 -0.20702,0.20702 -0.1628,0.49875 0.15786,1.04158 0.24498,0.41472 0.38315,0.81629 0.30706,0.89239 -0.23355,0.23355 -2.22566,-0.31163 -3.71743,-1.01735 -1.5667,-0.74117 -2.03424,-0.66077 -1.7911,0.308 0.11237,0.44772 0.0519,0.64377 -0.19746,0.64045 -0.3605,-0.005 -2.39224,-1.06735 -3.70835,-1.93936 -0.81447,-0.53963 -1.15909,-0.24672 -0.90427,0.76856 0.0955,0.38068 0.0471,0.64643 -0.11792,0.64643 -0.46257,0 -2.24884,-0.98572 -3.13019,-1.72732 -0.4538,-0.38185 -1.03382,-0.65407 -1.28893,-0.60494 -0.57559,0.11085 -1.27075,2.53344 -1.53444,5.34747 -0.19576,2.08908 -0.49949,2.51028 -1.35741,1.88245 z"
         style="fill:#252133;stroke-width:0.26458332" />
    </g>
  </g>
</svg>
