<?xml version="1.0" encoding="UTF-8" standalone="no"?>
<svg
   xmlns:dc="http://purl.org/dc/elements/1.1/"
   xmlns:cc="http://creativecommons.org/ns#"
   xmlns:rdf="http://www.w3.org/1999/02/22-rdf-syntax-ns#"
   xmlns:svg="http://www.w3.org/2000/svg"
   xmlns="http://www.w3.org/2000/svg"
   id="svg8"
   version="1.1"
   viewBox="0 0 158.75 158.7501"
   height="600"
   width="600">
  <defs
     id="defs2" />
  <metadata
     id="metadata5">
    <rdf:RDF>
      <cc:Work
         rdf:about="">
        <dc:format>image/svg+xml</dc:format>
        <dc:type
           rdf:resource="http://purl.org/dc/dcmitype/StillImage" />
        <dc:title></dc:title>
      </cc:Work>
    </rdf:RDF>
  </metadata>
  <g
     transform="translate(0,-138.2499)"
     id="layer1">
    <g
       transform="matrix(0.29628726,0,0,0.28835191,277.70626,118.60081)"
       id="g1102">
      <path
         id="path1116"
         d="m -677.27213,615.14669 c -24.50751,-1.29871 -50.49361,-6.54267 -74.02056,-14.93726 -73.55413,-26.24466 -132.10995,-82.73021 -161.48486,-155.77552 -10.74073,-26.7085 -16.75201,-53.31645 -18.87275,-83.53713 -0.43598,-6.21266 -0.43598,-26.33109 0,-32.54375 1.87015,-26.64968 6.7121,-50.22353 15.13485,-73.68646 3.78509,-10.544 7.16623,-18.50893 12.41094,-29.23645 18.66806,-38.18355 46.07248,-71.42898 80.19199,-97.28415 21.44435,-16.25017 44.83451,-29.003899 70.51145,-38.447105 20.89685,-7.685233 44.97256,-13.080527 67.20417,-15.060251 15.12392,-1.346785 40.4714,-1.174729 55.16562,0.374457 50.39579,5.313141 96.16913,24.042647 135.20207,55.321889 7.78423,6.23794 15.875,13.40256 15.875,14.0578 0,0.41837 -76.74363,77.2009 -77.16178,77.2009 -0.16483,0 -1.65441,-1.22039 -3.31023,-2.71198 -21.35526,-19.23735 -46.9439,-31.37799 -75.36756,-35.75842 -16.87642,-2.60086 -33.77816,-2.5612 -50.27083,0.11797 -40.21417,6.53265 -76.87358,29.09411 -102.08463,62.82639 -18.23289,24.39553 -29.23331,52.78081 -32.50407,83.87291 -0.6605,6.27874 -0.66075,23.43028 -5.3e-4,29.76562 1.61349,15.48056 4.92152,29.347 10.40651,43.62151 17.73701,46.16003 55.37533,82.28192 101.29617,97.215 14.76363,4.80103 29.13873,7.19577 45.11145,7.51509 32.72621,0.65429 63.86349,-7.23892 89.16458,-22.60298 6.41369,-3.89469 7.64326,-4.70217 11.02363,-7.23921 22.18804,-16.65256 37.82909,-38.7505 45.58427,-64.40212 1.59752,-5.28413 3.0663,-11.54898 2.84366,-12.12919 -0.15613,-0.40682 -5.42671,-0.43852 -72.93769,-0.43852 h -72.76938 l 0.0668,-50.86614 0.0668,-50.86614 127.33628,-0.0664 127.33625,-0.0664 0.24948,0.59558 c 0.56716,1.354 2.59006,17.54387 3.29771,26.39246 1.31982,16.50384 1.22315,36.31168 -0.26088,53.44583 -3.5125,40.55436 -14.94504,78.92341 -33.26876,111.65416 -11.82153,21.11616 -26.04089,39.41723 -44.14763,56.82015 -24.28552,23.34156 -55.17051,41.7214 -89.2612,53.11983 -19.57806,6.54603 -40.80304,10.95304 -62.43735,12.96403 -12.0428,1.11943 -32.27898,1.46505 -45.31913,0.77404 z"
         style="fill:#f3a39d;stroke-width:0.26458332" />
      <path
         id="path1114"
         d="m -670.98336,615.38071 c -57.83223,-2.10883 -113.1877,-22.69699 -158.58274,-58.98107 -18.67356,-14.92573 -35.8479,-32.8653 -49.87635,-52.0987 -9.66801,-13.25513 -17.65313,-26.57052 -24.56939,-40.97018 -16.55362,-34.46459 -24.86374,-65.90849 -27.3514,-103.49232 -0.67949,-10.26588 -0.36643,-27.67566 0.71128,-39.5552 2.99226,-32.98354 12.08958,-64.9396 27.11597,-95.25 19.11435,-38.5564 46.49509,-71.57854 80.54951,-97.14554 28.84983,-21.65956 61.68464,-37.329852 96.30833,-45.962785 18.4109,-4.590501 35.72283,-7.054776 56.22395,-8.003226 6.66816,-0.30849 20.25341,-0.146104 25.86318,0.309147 14.18021,1.150769 18.91522,1.653807 26.25974,2.789784 34.03192,5.263727 65.43921,16.605246 94.45902,34.11021 14.38151,8.67503 30.51056,20.82308 41.89973,31.55801 l 1.81814,1.7137 -38.33029,38.33097 c -21.08166,21.08204 -38.48833,38.33098 -38.68147,38.33098 -0.19315,0 -1.44346,-1.0046 -2.77847,-2.23245 -3.3645,-3.09443 -6.00477,-5.26664 -10.62937,-8.74496 -21.02154,-15.81103 -45.39896,-25.34854 -72.32552,-28.29693 -13.05997,-1.43003 -27.94436,-1.1864 -40.64891,0.66537 -29.83402,4.34849 -57.76216,17.35879 -81.36202,37.90241 -4.34754,3.78452 -12.54449,12.08101 -16.48457,16.68477 -23.19945,27.10714 -37.11073,60.7129 -39.87938,96.33741 -0.36857,4.74237 -0.37116,17.98852 -0.004,22.62187 0.86034,10.86964 2.25357,19.3511 4.75916,28.97188 1.09793,4.21574 3.34763,11.44772 3.70185,11.90014 0.11656,0.14888 0.48314,1.10413 0.81463,2.12277 0.33148,1.01865 1.4615,3.99521 2.51115,6.61459 6.89301,17.2013 16.33158,32.67884 28.80082,47.22812 3.2608,3.80473 13.65825,14.14222 17.36826,17.26808 22.75693,19.17377 48.28898,31.20165 76.46646,36.02252 22.95459,3.92729 50.04863,2.43255 73.66547,-4.06397 22.56155,-6.20623 42.90047,-17.08042 58.8005,-31.43758 17.39987,-15.71152 29.72501,-34.98982 36.32337,-56.81509 1.59753,-5.28413 3.06631,-11.54898 2.84366,-12.12919 -0.15613,-0.40682 -5.42671,-0.43852 -72.93768,-0.43852 h -72.76938 l 0.0668,-50.86614 0.0668,-50.86614 127.33628,-0.0664 127.33625,-0.0664 0.24947,0.59558 c 0.56717,1.354 2.59006,17.54387 3.29772,26.39246 1.31982,16.50384 1.22314,36.31168 -0.26088,53.44583 -1.6505,19.05622 -5.37795,39.22086 -10.53978,57.01771 -15.14761,52.22555 -44.68069,96.1277 -85.66822,127.34938 -36.25625,27.61768 -80.01037,44.44031 -129.09343,49.63397 -13.72706,1.45251 -29.81555,2.04026 -42.84387,1.56517 z"
         style="fill:#f9ba04;stroke-width:0.26458332" />
      <path
         id="path1112"
         d="m -670.98336,615.38071 c -57.83223,-2.10883 -113.1877,-22.69699 -158.58274,-58.98107 -15.81999,-12.64489 -30.92238,-27.81951 -43.55594,-43.76436 -10.34941,-13.062 -21.57468,-30.47068 -28.29673,-43.88392 -1.29226,-2.57857 -1.34529,-2.76156 -0.89366,-3.08377 0.26407,-0.18838 20.42204,-15.82872 44.7955,-34.75633 34.20084,-26.55916 44.38424,-34.33992 44.61704,-34.09018 0.16592,0.17798 0.57115,1.15705 0.90054,2.17569 0.32938,1.01865 1.45768,3.99521 2.50733,6.61459 6.89301,17.2013 16.33157,32.67884 28.80082,47.22812 3.26079,3.80473 13.65825,14.14222 17.36826,17.26808 22.75693,19.17377 48.28897,31.20165 76.46646,36.02252 22.95458,3.92729 50.04863,2.43255 73.66547,-4.06397 22.56155,-6.20623 42.90047,-17.08042 58.80049,-31.43758 17.39988,-15.71152 29.72501,-34.98982 36.32338,-56.81509 1.59753,-5.28413 3.06631,-11.54898 2.84366,-12.12919 -0.15613,-0.40682 -5.42671,-0.43852 -72.93768,-0.43852 h -72.76939 l 0.0668,-50.86614 0.0668,-50.86614 127.33628,-0.0664 127.33626,-0.0664 0.24947,0.59558 c 0.56716,1.354 2.59006,17.54387 3.29772,26.39246 1.31982,16.50384 1.22314,36.31168 -0.26088,53.44583 -1.6505,19.05622 -5.37795,39.22086 -10.53979,57.01771 -15.1476,52.22555 -44.68068,96.1277 -85.66821,127.34938 -36.25625,27.61768 -80.01037,44.44031 -129.09343,49.63397 -13.72706,1.45251 -29.81555,2.04026 -42.84387,1.56517 z M -854.07502,260.97877 c -22.48297,-17.46247 -42.62313,-33.09411 -44.75591,-34.73699 l -3.87779,-2.98704 2.12322,-4.07169 c 18.47826,-35.43557 45.42888,-67.143 77.59902,-91.29535 28.84983,-21.65956 61.68464,-37.329852 96.30833,-45.962785 18.4109,-4.590501 35.72283,-7.054776 56.22395,-8.003226 6.66816,-0.30849 20.25341,-0.146104 25.86318,0.309147 14.18021,1.150769 18.91522,1.653807 26.25974,2.789784 34.03192,5.263727 65.43921,16.605246 94.45902,34.11021 14.38151,8.67503 30.51056,20.82308 41.89973,31.55801 l 1.81814,1.7137 -38.33029,38.33097 c -21.08166,21.08204 -38.48833,38.33098 -38.68147,38.33098 -0.19315,0 -1.44346,-1.0046 -2.77847,-2.23245 -3.3645,-3.09443 -6.00477,-5.26664 -10.62937,-8.74496 -21.02154,-15.81103 -45.39896,-25.34854 -72.32552,-28.29693 -13.05997,-1.43003 -27.94436,-1.1864 -40.64891,0.66537 -29.83402,4.34849 -57.76216,17.35879 -81.36202,37.90241 -4.34754,3.78452 -12.54449,12.08101 -16.48457,16.68477 -13.3934,15.64937 -24.36867,34.63487 -30.76018,53.21033 -0.40057,1.16417 -0.79883,2.19745 -0.88501,2.29618 -0.0862,0.0987 -18.55185,-14.10797 -41.03482,-31.57044 z"
         style="fill:#4184f2;stroke-width:0.26458332" />
      <path
         id="path1110"
         d="m -670.98336,615.38071 c -57.83223,-2.10883 -113.1877,-22.69699 -158.58274,-58.98107 -15.81999,-12.64489 -30.92238,-27.81951 -43.55594,-43.76436 -10.34941,-13.062 -21.57468,-30.47068 -28.29673,-43.88392 -1.29226,-2.57857 -1.34529,-2.76156 -0.89366,-3.08377 0.26407,-0.18838 20.42204,-15.82872 44.7955,-34.75633 34.20084,-26.55916 44.38424,-34.33992 44.61704,-34.09018 0.16592,0.17798 0.57115,1.15705 0.90054,2.17569 0.32938,1.01865 1.45768,3.99521 2.50733,6.61459 6.89301,17.2013 16.33157,32.67884 28.80082,47.22812 3.26079,3.80473 13.65825,14.14222 17.36826,17.26808 18.07338,15.22767 37.68872,25.85207 59.16333,32.04509 19.52894,5.6319 39.52016,7.36984 61.15556,5.31657 26.34814,-2.5005 50.19006,-10.36233 70.77377,-23.33747 1.92823,-1.2155 3.23259,-1.88076 3.43958,-1.75427 0.18335,0.11205 19.79083,15.32491 43.57219,33.80629 l 43.23881,33.60253 -2.09611,1.96191 c -2.99219,2.80062 -10.435,8.98316 -14.97025,12.43542 -36.30507,27.63549 -80.00889,44.43809 -129.09343,49.63191 -13.72706,1.45251 -29.81555,2.04026 -42.84387,1.56517 z M -854.07502,260.97877 c -22.48297,-17.46247 -42.62313,-33.09411 -44.75591,-34.73699 l -3.87779,-2.98704 2.12322,-4.07169 c 18.47826,-35.43557 45.42888,-67.143 77.59902,-91.29535 28.84983,-21.65956 61.68464,-37.329852 96.30833,-45.962785 18.4109,-4.590501 35.72283,-7.054776 56.22395,-8.003226 6.66816,-0.30849 20.25341,-0.146104 25.86318,0.309147 14.18021,1.150769 18.91522,1.653807 26.25974,2.789784 34.03192,5.263727 65.43921,16.605246 94.45902,34.11021 14.38151,8.67503 30.51056,20.82308 41.89973,31.55801 l 1.81814,1.7137 -38.33029,38.33097 c -21.08166,21.08204 -38.48833,38.33098 -38.68147,38.33098 -0.19315,0 -1.44346,-1.0046 -2.77847,-2.23245 -3.3645,-3.09443 -6.00477,-5.26664 -10.62937,-8.74496 -21.02154,-15.81103 -45.39896,-25.34854 -72.32552,-28.29693 -13.05997,-1.43003 -27.94436,-1.1864 -40.64891,0.66537 -29.83402,4.34849 -57.76216,17.35879 -81.36202,37.90241 -4.34754,3.78452 -12.54449,12.08101 -16.48457,16.68477 -13.3934,15.64937 -24.36867,34.63487 -30.76018,53.21033 -0.40057,1.16417 -0.79883,2.19745 -0.88501,2.29618 -0.0862,0.0987 -18.55185,-14.10797 -41.03482,-31.57044 z"
         style="fill:#ec6156;stroke-width:0.26458332" />
      <path
         id="path1108"
         d="m -670.98336,615.38071 c -57.83223,-2.10883 -113.1877,-22.69699 -158.58274,-58.98107 -15.81999,-12.64489 -30.92238,-27.81951 -43.55594,-43.76436 -10.34941,-13.062 -21.57468,-30.47068 -28.29673,-43.88392 -1.29226,-2.57857 -1.34529,-2.76156 -0.89366,-3.08377 0.26407,-0.18838 20.42204,-15.82872 44.7955,-34.75633 34.20084,-26.55916 44.38424,-34.33992 44.61704,-34.09018 0.16592,0.17798 0.57115,1.15705 0.90054,2.17569 0.32938,1.01865 1.45768,3.99521 2.50733,6.61459 6.89301,17.2013 16.33157,32.67884 28.80082,47.22812 3.26079,3.80473 13.65825,14.14222 17.36826,17.26808 18.07338,15.22767 37.68872,25.85207 59.16333,32.04509 19.52894,5.6319 39.52016,7.36984 61.15556,5.31657 26.34814,-2.5005 50.19006,-10.36233 70.77377,-23.33747 1.92823,-1.2155 3.23259,-1.88076 3.43958,-1.75427 0.18335,0.11205 19.79083,15.32491 43.57219,33.80629 l 43.23881,33.60253 -2.09611,1.96191 c -2.99219,2.80062 -10.435,8.98316 -14.97025,12.43542 -36.30507,27.63549 -80.00889,44.43809 -129.09343,49.63191 -13.72706,1.45251 -29.81555,2.04026 -42.84387,1.56517 z M -857.79208,258.09055 c -24.36765,-18.91622 -44.34046,-34.55399 -44.38402,-34.75061 -0.0436,-0.19662 0.9531,-2.30707 2.2148,-4.6899 16.67193,-31.48638 39.3492,-59.49521 66.39149,-82.00051 39.66754,-33.01236 87.20964,-53.7698 138.1487,-60.317344 5.76173,-0.740594 14.72245,-1.543172 19.80754,-1.774085 2.48676,-0.112924 3.79669,-0.25343 3.175,-0.340557 -0.58208,-0.08158 1.63369,-0.214351 4.92397,-0.295055 6.83154,-0.167565 20.21541,0.06025 18.62394,0.317007 -0.82198,0.132612 -0.58562,0.179192 1.05834,0.208569 7.33861,0.13114 21.94144,1.649245 32.41145,3.369482 44.16584,7.256503 84.59219,25.252413 119.32708,53.118793 5.34763,4.29019 15.34583,12.99932 15.34583,13.36729 0,0.0906 -17.19577,17.36015 -38.21287,38.37685 l -38.21284,38.21217 -2.33455,-2.11301 c -21.96216,-19.87814 -48.40083,-32.32182 -77.74077,-36.58963 -8.59412,-1.2501 -11.91935,-1.45576 -23.54792,-1.45635 -11.91177,-5.3e-4 -14.8667,0.1961 -23.94479,1.59404 -44.17235,6.80216 -83.98246,32.6767 -109.37439,71.08778 -4.11918,6.2312 -6.83664,10.94066 -10.18746,17.65526 -3.18709,6.38652 -4.61048,9.65162 -7.18482,16.48117 -0.97589,2.58897 -1.82487,4.75774 -1.88662,4.81948 -0.0617,0.0617 -20.04943,-15.36463 -44.41709,-34.28084 z"
         style="fill:#50b267;stroke-width:0.26458332" />
      <path
         id="path1106"
         d="m -667.54378,615.30764 c -3.1287,-0.0892 -5.0337,-0.20622 -4.23333,-0.25998 0.86399,-0.058 -0.21093,-0.18238 -2.64584,-0.30602 -48.9354,-2.48502 -95.81716,-17.99765 -136.26041,-45.08701 -28.48102,-19.07691 -52.72982,-42.95351 -72.41833,-71.30682 -6.30014,-9.0728 -13.62599,-21.29491 -18.0359,-30.09027 l -1.09139,-2.17675 1.38896,-1.0981 c 7.85174,-6.20749 87.2755,-67.73465 87.43307,-67.73172 0.11553,0.003 1.05823,2.24132 2.09489,4.97589 10.23684,27.00372 26.22888,49.82448 47.98912,68.48091 9.92086,8.50577 21.29893,15.96856 33.46979,21.95251 18.47858,9.08526 37.33452,14.22098 57.81145,15.7459 7.1886,0.53534 20.38236,0.34404 28.83959,-0.41817 25.86971,-2.33146 50.3674,-10.3759 71.00561,-23.31648 2.82271,-1.76991 3.24326,-1.95803 3.71634,-1.66259 0.77586,0.48453 84.57697,65.58523 85.29153,66.25854 l 0.60203,0.56727 -2.80916,2.49118 c -34.97469,31.0157 -77.92378,50.96891 -126.71242,58.8678 -11.7294,1.899 -27.3999,3.44591 -36.64566,3.61747 l -2.51807,0.0467 1.85209,0.17114 c 1.21047,0.11183 -0.16441,0.18811 -3.96875,0.22016 -3.20146,0.027 -6.41615,0.0876 -7.14375,0.13483 -0.72761,0.0472 -3.88276,0.0127 -7.01146,-0.0764 z m -190.2483,-357.21709 c -24.36765,-18.91622 -44.34046,-34.55399 -44.38402,-34.75061 -0.0436,-0.19662 0.9531,-2.30707 2.2148,-4.6899 16.67193,-31.48638 39.3492,-59.49521 66.39149,-82.00051 39.66754,-33.01236 87.20964,-53.7698 138.1487,-60.317344 5.76173,-0.740594 14.72245,-1.543172 19.80754,-1.774085 2.48676,-0.112924 3.79669,-0.25343 3.175,-0.340557 -0.58208,-0.08158 1.63369,-0.214351 4.92397,-0.295055 6.83154,-0.167565 20.21541,0.06025 18.62394,0.317007 -0.82198,0.132612 -0.58562,0.179192 1.05834,0.208569 7.33861,0.13114 21.94144,1.649245 32.41145,3.369482 44.16584,7.256503 84.59219,25.252413 119.32708,53.118793 5.34763,4.29019 15.34583,12.99932 15.34583,13.36729 0,0.0906 -17.19577,17.36015 -38.21287,38.37685 l -38.21284,38.21217 -2.33455,-2.11301 c -21.96216,-19.87814 -48.40083,-32.32182 -77.74077,-36.58963 -8.59412,-1.2501 -11.91935,-1.45576 -23.54792,-1.45635 -11.91177,-5.3e-4 -14.8667,0.1961 -23.94479,1.59404 -44.17235,6.80216 -83.98246,32.6767 -109.37439,71.08778 -4.11918,6.2312 -6.83664,10.94066 -10.18746,17.65526 -3.18709,6.38652 -4.61048,9.65162 -7.18482,16.48117 -0.97589,2.58897 -1.82487,4.75774 -1.88662,4.81948 -0.0617,0.0617 -20.04943,-15.36463 -44.41709,-34.28084 z"
         style="fill:#e94234;stroke-width:0.26458332" />
      <path
         id="path1104"
         d="m -667.54378,615.30764 c -3.1287,-0.0892 -5.0337,-0.20622 -4.23333,-0.25998 0.86399,-0.058 -0.21093,-0.18238 -2.64584,-0.30602 -48.9354,-2.48502 -95.81716,-17.99765 -136.26041,-45.08701 -28.48102,-19.07691 -52.72982,-42.95351 -72.41833,-71.30682 -6.30014,-9.0728 -13.62599,-21.29491 -18.0359,-30.09027 l -1.09139,-2.17675 1.38896,-1.0981 c 7.85174,-6.20749 87.2755,-67.73465 87.43307,-67.73172 0.11553,0.003 1.05823,2.24132 2.09489,4.97589 10.23684,27.00372 26.22888,49.82448 47.98912,68.48091 9.92086,8.50577 21.29893,15.96856 33.46979,21.95251 18.47858,9.08526 37.33452,14.22098 57.81145,15.7459 7.1886,0.53534 20.38236,0.34404 28.83959,-0.41817 25.86971,-2.33146 50.3674,-10.3759 71.00561,-23.31648 2.82271,-1.76991 3.24326,-1.95803 3.71634,-1.66259 0.77586,0.48453 84.57697,65.58523 85.29153,66.25854 l 0.60203,0.56727 -2.80916,2.49118 c -34.97469,31.0157 -77.92378,50.96891 -126.71242,58.8678 -11.7294,1.899 -27.3999,3.44591 -36.64566,3.61747 l -2.51807,0.0467 1.85209,0.17114 c 1.21047,0.11183 -0.16441,0.18811 -3.96875,0.22016 -3.20146,0.027 -6.41615,0.0876 -7.14375,0.13483 -0.72761,0.0472 -3.88276,0.0127 -7.01146,-0.0764 z"
         style="fill:#33a752;stroke-width:0.26458332" />
    </g>
  </g>
</svg>
