<?xml version="1.0" encoding="UTF-8" standalone="no"?>
<svg
   xmlns:dc="http://purl.org/dc/elements/1.1/"
   xmlns:cc="http://creativecommons.org/ns#"
   xmlns:rdf="http://www.w3.org/1999/02/22-rdf-syntax-ns#"
   xmlns:svg="http://www.w3.org/2000/svg"
   xmlns="http://www.w3.org/2000/svg"
   id="svg8"
   version="1.1"
   viewBox="0 0 185.20833 185.20845"
   height="700"
   width="700">
  <defs
     id="defs2" />
  <metadata
     id="metadata5">
    <rdf:RDF>
      <cc:Work
         rdf:about="">
        <dc:format>image/svg+xml</dc:format>
        <dc:type
           rdf:resource="http://purl.org/dc/dcmitype/StillImage" />
        <dc:title></dc:title>
      </cc:Work>
    </rdf:RDF>
  </metadata>
  <g
     transform="translate(0,-111.79157)"
     id="layer1">
    <g
       transform="matrix(0.50408162,0,0,0.50408162,294.25899,82.072732)"
       id="g1046">
      <path
         id="path1060"
         d="M -583.6571,244.04799 V 58.839664 h 185.20833 185.20833 V 244.04799 429.25632 H -398.44877 -583.6571 Z m 261.7608,133.81302 c -0.0899,-0.47294 -0.31916,-1.17001 -0.50946,-1.54903 -0.31516,-0.62775 -6.42866,-17.669 -12.28199,-34.23586 -1.28537,-3.63802 -3.60402,-10.18646 -5.15255,-14.55209 -1.54852,-4.36562 -4.58096,-12.93812 -6.73876,-19.05 -18.15114,-51.41261 -27.14024,-76.76682 -27.81335,-78.44895 -0.70264,-1.75597 -6.63552,-18.46712 -32.17226,-90.61979 -3.70827,-10.4775 -7.57739,-21.43125 -8.59806,-24.34167 -1.02067,-2.91042 -1.9784,-5.44049 -2.12829,-5.62239 -0.21467,-0.2605 -5.8001,-0.33073 -26.3016,-0.33073 h -26.02907 v 0.65457 c 0,0.36001 0.3434,1.52087 0.76311,2.57969 0.75492,1.90447 4.68292,12.78726 7.57069,20.97511 0.82118,2.32833 3.14198,8.87677 5.15733,14.55208 4.32365,12.17556 6.66572,18.78945 12.83591,36.24792 2.52007,7.13052 7.6992,21.77521 11.50916,32.54375 3.80996,10.76854 8.63255,24.41061 10.71686,30.31571 2.08431,5.9051 4.08583,11.44151 4.44781,12.30313 0.36198,0.86161 2.50694,6.80533 4.76658,13.20824 2.25964,6.40292 7.16221,20.2737 10.89461,30.82396 3.73239,10.55026 9.0395,25.55213 11.79357,33.3375 2.75407,7.78536 6.88205,19.45349 9.17328,25.92917 l 4.16588,11.77395 4.23334,0.18341 c 14.49969,0.62823 34.29876,2.29709 46.30208,3.90277 0.87313,0.11678 2.03101,0.22746 2.57307,0.2459 0.97375,0.0331 0.98362,0.0233 0.82211,-0.82635 z"
         style="fill:#b0040d;stroke-width:0.26458332" />
      <path
         id="path1058"
         d="M -583.6571,244.04799 V 58.839664 h 185.20833 185.20833 V 244.04799 429.25632 H -398.44877 -583.6571 Z m 261.84534,133.15156 c -0.0928,-0.98226 -0.16951,-61.6446 -0.17055,-134.8052 l -0.002,-133.01927 h -25.92916 -25.92917 v 32.94062 c 0,29.10417 0.0462,32.94063 0.39687,32.94063 0.25374,0 0.40109,0.26242 0.40856,0.7276 0.0144,0.89849 0.55357,2.91066 0.98785,3.68678 0.17787,0.31785 0.32339,0.71579 0.32339,0.8843 0,0.16852 0.23812,0.60912 0.52916,0.97912 0.29104,0.37 0.52917,1.02514 0.52917,1.45587 0,1.17012 1.06193,4.44075 1.62451,5.00334 0.27069,0.27069 0.49216,0.77523 0.49216,1.12122 0,0.34598 0.1699,0.77007 0.37756,0.94241 0.21214,0.17606 0.45912,1.07485 0.56369,2.0513 0.11739,1.09611 0.35604,1.90786 0.64625,2.19806 0.29217,0.29217 0.52936,1.1067 0.64982,2.23152 0.12238,1.14275 0.32243,1.82233 0.56369,1.91491 0.20569,0.0789 0.37399,0.43942 0.37399,0.80108 0,0.36166 0.23812,0.96029 0.52916,1.33029 0.29104,0.37 0.52917,0.93975 0.52917,1.26611 0,0.32636 0.17859,0.7416 0.39687,0.92275 0.21829,0.18116 0.39688,0.64818 0.39688,1.03782 0,0.38964 0.1333,0.84173 0.29622,1.00465 0.32607,0.32607 0.64848,1.63346 1.0874,4.40945 0.22209,1.40459 0.40023,1.85106 0.77802,1.94985 0.26949,0.0705 0.55234,0.44133 0.62855,0.82412 0.0762,0.38279 0.24559,1.05318 0.37639,1.48974 0.13079,0.43656 0.3194,1.48174 0.41912,2.32261 0.13072,1.10222 0.32021,1.6032 0.67906,1.79525 0.31195,0.16695 0.49774,0.55335 0.49774,1.03521 0,0.42285 0.10502,0.83373 0.23336,0.91305 0.12836,0.0793 0.31677,0.94956 0.41871,1.93385 0.10194,0.98428 0.35411,2.05331 0.56039,2.37562 0.20627,0.3223 0.37504,0.86403 0.37504,1.20385 0,0.33982 0.1333,0.75115 0.29622,0.91407 0.325,0.325 0.64766,1.63014 1.08411,4.38513 0.20315,1.28231 0.42527,1.87259 0.77512,2.05983 0.30474,0.16308 0.49038,0.5535 0.49038,1.03127 0,0.42285 0.11907,0.84241 0.26459,0.93234 0.14552,0.0899 0.26458,0.49592 0.26458,0.90218 0,0.40626 0.10423,1.08384 0.23162,1.50574 0.12739,0.42189 0.38085,1.42193 0.56325,2.22229 0.1824,0.80037 0.45175,1.60621 0.59855,1.79077 0.31212,0.39242 0.6487,1.83959 1.02961,4.42694 0.14997,1.01864 0.38051,1.96519 0.51232,2.10344 0.1318,0.13824 0.23965,0.56091 0.23965,0.93927 0,0.37835 0.1333,0.82121 0.29622,0.98413 0.37318,0.37319 0.75678,2.07118 0.98547,4.36226 0.0974,0.97599 0.32515,1.92253 0.50606,2.10344 0.1809,0.1809 0.3327,0.63253 0.33733,1.0036 0.005,0.37108 0.17049,0.88839 0.36857,1.14958 0.19809,0.26118 0.50925,1.68993 0.69146,3.175 0.18222,1.48506 0.43308,2.81322 0.55747,2.95147 0.12439,0.13824 0.22617,0.53001 0.22617,0.8706 0,0.3406 0.2313,0.94186 0.51401,1.33615 0.35337,0.49286 0.60907,1.54373 0.81822,3.36273 0.16732,1.4552 0.39619,2.76489 0.50859,2.91041 0.11241,0.14552 0.2775,0.74084 0.36688,1.32292 0.0894,0.58208 0.2786,1.53458 0.42051,2.11667 0.14191,0.58208 0.38964,1.59411 0.55052,2.24895 0.16087,0.65485 0.45059,2.0836 0.6438,3.175 0.67992,3.84062 0.984,5.16583 1.33735,5.82815 0.19623,0.36783 0.44314,1.43939 0.54869,2.38125 0.10556,0.94186 0.33853,1.9506 0.51772,2.24164 0.1792,0.29105 0.40089,1.06495 0.49265,1.7198 0.24076,1.71817 0.70848,3.76387 0.98219,4.29589 0.13,0.25268 0.23637,0.79442 0.23637,1.20385 0,0.40943 0.10687,0.85753 0.23748,0.99578 0.22924,0.24263 0.29756,0.61172 0.80562,4.35239 0.12847,0.94589 0.36691,2.25558 0.52987,2.91042 0.16295,0.65484 0.36774,1.69937 0.45508,2.32118 0.0873,0.6218 0.26207,1.19438 0.38829,1.27239 0.12622,0.078 0.22949,0.48496 0.22949,0.90435 0,0.41938 0.11906,0.8361 0.26459,0.92604 0.14552,0.0899 0.26458,0.48719 0.26458,0.88278 0,0.3956 0.16251,0.95412 0.36113,1.24116 0.19862,0.28704 0.44467,1.23627 0.54677,2.10939 0.10209,0.87313 0.2881,1.94469 0.41335,2.38125 0.12524,0.43656 0.43165,1.92484 0.68091,3.30729 0.24926,1.38245 0.55559,2.62665 0.68073,2.7649 0.12514,0.13824 0.22753,0.69604 0.22753,1.23954 0,0.54351 0.13023,1.32337 0.28941,1.73303 0.15918,0.40965 0.32689,1.10201 0.3727,1.53857 0.0458,0.43657 0.22524,1.32954 0.39874,1.98438 0.37325,1.40875 0.63301,2.52132 1.05013,4.49792 0.32384,1.53458 0.97835,4.52839 1.3304,6.08541 0.11516,0.50933 0.34918,1.46183 0.52006,2.11667 0.17087,0.65484 0.39807,1.72641 0.50489,2.38125 0.10682,0.65484 0.31972,1.42875 0.47312,1.71979 0.15339,0.29104 0.35379,1.12448 0.44533,1.85208 0.18591,1.47768 1.16555,5.79716 1.50016,6.61459 0.11914,0.29104 0.28141,0.94588 0.3606,1.45521 0.24345,1.56577 1.99047,9.80064 2.12557,10.01924 0.07,0.11324 0.25146,0.91157 0.40327,1.77405 0.15181,0.86249 0.39603,2.15345 0.5427,2.86883 0.14666,0.71535 0.21699,1.35033 0.15627,1.41105 -0.33332,0.33332 -4.99128,-12.52165 -22.64942,-62.50755 -2.00487,-5.67531 -8.13493,-22.9989 -13.62235,-38.49687 -5.48743,-15.49797 -10.72828,-30.32125 -11.64634,-32.94063 -3.28006,-9.3585 -4.09508,-11.58775 -4.34785,-11.89232 -0.14098,-0.16987 -4.00021,-10.89858 -8.57607,-23.8416 -4.57587,-12.94301 -12.44792,-35.20087 -17.49346,-49.46191 -5.04554,-14.26104 -10.66462,-30.15588 -12.48685,-35.32187 -1.82222,-5.16599 -3.47355,-9.77967 -3.66961,-10.25261 l -0.35649,-0.85989 h -26.37416 -26.37415 l 0.16399,0.99218 c 0.0902,0.54571 0.16531,61.1852 0.16691,134.75443 l 0.003,133.76225 3.90261,-0.4713 c 8.68599,-1.04894 21.66608,-2.3218 29.17031,-2.86046 3.89083,-0.2793 17.38295,-1.06461 18.29045,-1.06461 0.48075,0 0.49496,-0.88966 0.49496,-30.97186 0,-20.58054 -0.0888,-30.917 -0.26458,-30.80835 -0.15251,0.0943 -0.26458,-0.15272 -0.26458,-0.5831 0,-0.5205 -0.1803,-0.82572 -0.59531,-1.0078 -0.50144,-0.21999 -0.62729,-0.5507 -0.79805,-2.09718 -0.11151,-1.0098 -0.3794,-2.03121 -0.59532,-2.26979 -0.21591,-0.23859 -0.39257,-0.61672 -0.39257,-0.8403 0,-0.22358 -0.22172,-0.69045 -0.4927,-1.0375 -0.27618,-0.3537 -0.57623,-1.32862 -0.68278,-2.21849 -0.10455,-0.87313 -0.35908,-1.8512 -0.56564,-2.17351 -0.20655,-0.3223 -0.37555,-0.76878 -0.37555,-0.99218 0,-0.2234 -0.22489,-0.63109 -0.49977,-0.90596 -0.32526,-0.32526 -0.56788,-1.08748 -0.6948,-2.18282 -0.11473,-0.99018 -0.39913,-1.94279 -0.69085,-2.31403 -0.2727,-0.34704 -0.49583,-0.91632 -0.49583,-1.26507 0,-0.34874 -0.16735,-0.6983 -0.3719,-0.77679 -0.24283,-0.0932 -0.43623,-0.78325 -0.55725,-1.98838 -0.15219,-1.51541 -0.29377,-1.9167 -0.79123,-2.24265 -0.33719,-0.22093 -0.67217,-0.7728 -0.75538,-1.24446 -0.64127,-3.63493 -0.88966,-4.63379 -1.29455,-5.20584 -0.25466,-0.3598 -0.46302,-0.91076 -0.46302,-1.22437 0,-0.3136 -0.16991,-0.7112 -0.37757,-0.88354 -0.21223,-0.17614 -0.45917,-1.07538 -0.56393,-2.05353 -0.10249,-0.9571 -0.34857,-2.05106 -0.54684,-2.43102 -0.19826,-0.37997 -0.36122,-0.8754 -0.36211,-1.10096 -8e-4,-0.22555 -0.13493,-0.5434 -0.29785,-0.70632 -0.325,-0.325 -0.64766,-1.63013 -1.08411,-4.38512 -0.20315,-1.28232 -0.42527,-1.8726 -0.77513,-2.05984 -0.30473,-0.16308 -0.49038,-0.5535 -0.49038,-1.03126 0,-0.42286 -0.10501,-0.83373 -0.23336,-0.91306 -0.12835,-0.0793 -0.31677,-0.94955 -0.41871,-1.93384 -0.10194,-0.98429 -0.35411,-2.05332 -0.56038,-2.37562 -0.20628,-0.3223 -0.37505,-0.88366 -0.37505,-1.24746 0,-0.3638 -0.21109,-0.77444 -0.46909,-0.91251 -0.36834,-0.19713 -0.54054,-0.86688 -0.80172,-3.11817 -0.26905,-2.3192 -0.43222,-2.93648 -0.85382,-3.23011 -0.30944,-0.21551 -0.5212,-0.66604 -0.5212,-1.10886 0,-0.41023 -0.10898,-0.81322 -0.24218,-0.89554 -0.13319,-0.0823 -0.32593,-1.04356 -0.42831,-2.1361 -0.10238,-1.09253 -0.29106,-2.05126 -0.41929,-2.13051 -0.12822,-0.0793 -0.23314,-0.45511 -0.23314,-0.83525 0,-0.38013 -0.20296,-0.91542 -0.45102,-1.18952 -0.28119,-0.31072 -0.63455,-1.61371 -0.93844,-3.46042 -0.69815,-4.24266 -0.75502,-4.47397 -1.28064,-5.20891 -0.30886,-0.43185 -0.57976,-1.58744 -0.7758,-3.30939 -0.16567,-1.45521 -0.41062,-2.75894 -0.54432,-2.89718 -0.13371,-0.13825 -0.24836,-0.55497 -0.25479,-0.92605 -0.0156,-0.90247 -0.58673,-3.02389 -0.93741,-3.48204 -0.15477,-0.2022 -0.42743,-1.58913 -0.6059,-3.08206 -0.17847,-1.49293 -0.48389,-3.04074 -0.67869,-3.43958 -0.48937,-1.00192 -1.24276,-4.0848 -1.50272,-6.14913 -0.40117,-3.18558 -0.55181,-3.97144 -0.78946,-4.11831 -0.13015,-0.0804 -0.23664,-0.44107 -0.23664,-0.8014 0,-0.36034 -0.169,-0.91886 -0.37555,-1.24116 -0.20655,-0.3223 -0.45257,-1.30038 -0.54672,-2.1735 -0.0941,-0.87313 -0.27617,-1.82563 -0.40452,-2.11667 -0.19844,-0.44997 -0.541,-1.89746 -1.22101,-5.15938 -0.0758,-0.3638 -0.23902,-0.89958 -0.36262,-1.19062 -0.12359,-0.29104 -0.29962,-0.88635 -0.39116,-1.32292 -0.0915,-0.43656 -0.28512,-1.32953 -0.43018,-1.98437 -0.14506,-0.65485 -0.33264,-1.96453 -0.41684,-2.91042 -0.0968,-1.08758 -0.33507,-1.95175 -0.64809,-2.35078 -0.37329,-0.47587 -0.49498,-1.07371 -0.49498,-2.43178 0,-0.99044 -0.10221,-1.86397 -0.22715,-1.94118 -0.12493,-0.0772 -0.29304,-0.86694 -0.37356,-1.75495 -0.0805,-0.88802 -0.31938,-1.81413 -0.5308,-2.05804 -0.36727,-0.42371 -0.53902,-1.09523 -0.95934,-3.75077 -0.10365,-0.65484 -0.33045,-1.45069 -0.50401,-1.76854 -0.17355,-0.31786 -0.31555,-1.1145 -0.31555,-1.77032 0,-0.65583 -0.10591,-1.25786 -0.23535,-1.33786 -0.12944,-0.08 -0.30093,-0.53351 -0.38107,-1.0078 -0.0802,-0.4743 -0.39631,-2.11251 -0.70258,-3.64048 -0.30627,-1.52797 -0.65823,-3.38798 -0.78214,-4.13336 -0.12391,-0.74538 -0.33776,-1.57882 -0.47522,-1.85208 -0.13746,-0.27327 -0.39692,-1.38982 -0.57658,-2.48122 -0.49677,-3.01789 -1.6597,-7.93726 -1.91341,-8.09407 -0.12393,-0.0766 -0.22532,-0.53986 -0.22532,-1.02949 0,-1.1854 -0.43823,-3.25874 -1.21534,-5.75002 -0.35021,-1.12271 -0.64021,-2.37287 -0.64445,-2.77812 -0.004,-0.40527 -0.24332,-1.57028 -0.5313,-2.58893 -0.57763,-2.04319 -0.5892,-2.09378 -2.11653,-9.26042 -0.58925,-2.76489 -1.29788,-5.92005 -1.57473,-7.01145 -0.27686,-1.09141 -0.63511,-2.75828 -0.79611,-3.70417 -0.16101,-0.94589 -0.35948,-1.95792 -0.44104,-2.24896 -0.10133,-0.36156 -0.0613,-0.44536 0.12625,-0.26458 0.54902,0.52907 2.17687,4.94016 11.47276,31.08854 2.04347,5.74807 4.34552,12.23698 5.11568,14.41979 0.77015,2.18281 6.18482,17.48234 12.03259,33.99896 16.50604,46.62014 19.78372,55.8883 21.4419,60.63034 0.84744,2.42351 1.83864,5.04289 2.20267,5.82083 0.36403,0.77795 4.19632,11.4157 8.5162,23.63945 21.12325,59.77144 32.05486,90.66874 32.26569,91.19629 0.21311,0.53327 0.86806,0.5991 10.05722,1.01047 10.82409,0.48459 25.6062,1.75512 38.23229,3.28607 2.83765,0.3441 5.38495,0.63858 5.66065,0.6544 0.46086,0.0265 0.48768,-0.11523 0.33261,-1.75713 z"
         style="fill:#aa040d;stroke-width:0.26458332" />
      <path
         id="path1056"
         d="M -583.6571,244.04799 V 58.839664 h 185.20833 185.20833 V 244.04799 429.25632 H -398.44877 -583.6571 Z m 262.04333,134.47448 c -0.0145,-0.1819 -0.0443,-60.81448 -0.0661,-134.73906 l -0.0397,-134.40833 h -26.19375 -26.19375 l 2.1e-4,26.92135 c 2.6e-4,31.397 0.27011,62.39747 0.53937,61.9618 0.10334,-0.16721 0.33062,0.33373 0.50507,1.11319 0.17444,0.77946 0.62454,2.12807 1.0002,2.99691 0.37567,0.86884 0.77317,1.9404 0.88335,2.38125 0.3538,1.41561 1.47513,4.48247 2.01039,5.49844 0.211,0.40048 0.31525,0.83879 0.23168,0.97401 -0.0836,0.13523 0.0169,0.641 0.2233,1.12394 1.09072,2.55216 1.75259,4.37495 1.75992,4.84682 0.005,0.29104 0.23826,1.00541 0.51942,1.5875 0.28117,0.58208 0.51525,1.33018 0.52019,1.66244 0.005,0.33226 0.30664,1.1915 0.67044,1.90943 0.3638,0.71793 0.66146,1.59991 0.66146,1.95997 0,0.36005 0.10299,0.71829 0.22888,0.79609 0.12588,0.0778 0.29339,0.6224 0.37223,1.21021 0.0788,0.58782 0.40922,1.57299 0.73416,2.18926 0.32495,0.61628 0.63383,1.4777 0.6864,1.91426 0.0526,0.43657 0.27405,1.24265 0.49217,1.7913 0.21811,0.54864 0.39657,1.18471 0.39657,1.41347 0,0.22876 0.2244,0.70121 0.49866,1.04988 0.27426,0.34867 0.58306,1.20088 0.68622,1.89381 0.19085,1.28198 0.95343,3.79263 1.58814,5.22863 0.19296,0.43656 0.49888,1.44859 0.67981,2.24895 0.18093,0.80037 0.47865,1.8124 0.66159,2.24896 0.18296,0.43656 0.47742,1.32953 0.65436,1.98438 0.17695,0.65484 0.48605,1.63952 0.68689,2.18816 0.20084,0.54865 0.36799,1.32256 0.37145,1.7198 0.003,0.39723 0.30056,1.43662 0.66023,2.30975 0.35967,0.87312 0.6545,1.85092 0.65518,2.17288 7.9e-4,0.32197 0.22978,1.21494 0.50912,1.98438 0.27934,0.76944 0.58662,1.8157 0.68283,2.32503 0.0962,0.50932 0.38944,1.64041 0.65162,2.51354 0.26217,0.87312 0.66209,2.30187 0.8887,3.175 0.22661,0.87312 0.58429,2.12328 0.79484,2.77812 0.21055,0.65485 0.58561,2.0836 0.83346,3.175 0.24784,1.09141 0.58275,2.33425 0.74424,2.76188 0.16149,0.42762 0.31437,0.9634 0.33974,1.19062 0.0609,0.5458 0.60304,2.67385 1.18365,4.64646 0.25698,0.87313 0.54088,1.88516 0.63087,2.24896 0.09,0.3638 0.33031,1.25677 0.53405,1.98437 0.20374,0.72761 0.72454,2.63261 1.15734,4.23334 0.77991,2.88458 2.59676,9.35967 3.34078,11.90625 0.21258,0.7276 0.51368,1.91823 0.66912,2.64583 0.30004,1.40452 0.77565,3.15046 1.62172,5.95313 0.84843,2.81051 2.89143,10.27413 7.42344,27.11979 0.43064,1.60073 1.12118,4.2201 1.53452,5.82083 0.41334,1.60073 1.3053,4.93448 1.98213,7.40833 0.67682,2.47386 1.58149,5.92667 2.01037,7.67292 0.42888,1.74625 1.20445,4.72281 1.7235,6.61458 0.99875,3.64017 1.3295,5.11197 1.09997,4.8948 -0.2684,-0.25395 -3.44701,-8.91869 -8.78404,-23.9448 -13.34543,-37.57334 -17.41325,-49.04984 -23.82037,-67.20416 -0.77037,-2.18281 -3.8034,-10.75531 -6.74007,-19.05 -2.93667,-8.29469 -6.47311,-18.29594 -7.85877,-22.225 -1.38565,-3.92906 -2.8568,-7.85813 -3.26922,-8.73125 -0.41242,-0.87313 -1.87907,-4.80219 -3.25921,-8.73125 -1.38015,-3.92906 -6.25826,-17.74031 -10.84024,-30.69167 -4.58198,-12.95135 -12.81339,-36.22502 -18.29202,-51.71927 -5.47864,-15.49425 -10.06237,-28.23394 -10.18608,-28.31042 -0.12372,-0.0765 -11.99376,-0.10815 -26.37787,-0.0704 l -26.15294,0.0687 0.0684,134.71678 c 0.0376,74.09423 0.11227,134.76063 0.16585,134.8142 0.0536,0.0536 4.48763,-0.38327 9.85344,-0.97078 5.36581,-0.58751 10.35133,-1.13112 11.07893,-1.20801 4.36857,-0.46167 14.94786,-1.22833 22.42344,-1.62496 l 8.6651,-0.45977 V 335.8482 c 0,-36.1782 -0.13178,-47.59506 -0.53125,-46.02729 -0.13877,0.54459 -0.20443,0.42773 -0.37162,-0.66146 -0.11169,-0.7276 -0.41364,-1.8587 -0.67101,-2.51354 -0.67251,-1.71114 -1.07195,-3.01648 -1.07195,-3.50307 0,-0.23254 -0.16912,-0.75987 -0.37582,-1.17184 -0.20669,-0.41198 -0.57336,-1.28483 -0.81481,-1.93967 -0.24145,-0.65485 -0.60811,-1.5277 -0.81481,-1.93967 -0.2067,-0.41198 -0.37581,-0.8997 -0.37581,-1.08383 0,-0.18413 -0.1723,-0.6805 -0.38289,-1.10304 -0.2106,-0.42254 -0.64734,-1.83982 -0.97055,-3.1495 -0.32321,-1.30969 -0.72578,-2.55985 -0.8946,-2.77813 -0.36043,-0.46603 -1.19155,-3.03564 -1.19155,-3.68398 0,-0.24652 -0.1748,-0.67933 -0.38846,-0.9618 -0.21365,-0.28248 -0.39224,-0.67419 -0.39687,-0.87048 -0.005,-0.19629 -0.17158,-0.73207 -0.37101,-1.19063 -0.19943,-0.45855 -0.48941,-1.30998 -0.64441,-1.89207 -0.93306,-3.50419 -1.58264,-5.58973 -2.54617,-8.17478 -0.37409,-1.00362 -0.68016,-2.06215 -0.68016,-2.35227 0,-0.29012 -0.22288,-1.01678 -0.4953,-1.6148 -0.63307,-1.38977 -1.0922,-2.84357 -1.0922,-3.45837 0,-0.26477 -0.22576,-0.97069 -0.50168,-1.56871 -0.27593,-0.59803 -0.64815,-1.6231 -0.82715,-2.27794 -0.179,-0.65485 -0.54855,-1.87571 -0.82123,-2.71303 -0.27267,-0.83733 -0.49577,-1.75602 -0.49577,-2.04155 0,-0.28553 -0.16715,-0.91013 -0.37145,-1.38801 -0.20429,-0.47788 -0.50742,-1.40465 -0.67362,-2.0595 -0.16619,-0.65484 -0.58369,-2.14312 -0.92778,-3.30729 -0.34409,-1.16416 -0.77037,-2.65245 -0.94728,-3.30729 -0.17691,-0.65484 -0.54476,-1.87571 -0.81743,-2.71303 -0.27268,-0.83733 -0.49578,-1.76983 -0.49578,-2.07223 0,-0.3024 -0.28638,-1.40325 -0.63641,-2.44634 -0.35003,-1.04309 -0.71261,-2.34301 -0.80574,-2.88871 -0.0931,-0.5457 -0.27925,-0.99219 -0.41361,-0.99219 -0.13436,0 -0.17933,-0.16929 -0.0999,-0.3762 0.0794,-0.20691 0.0153,-0.61728 -0.14236,-0.91193 -0.15769,-0.29466 -0.39875,-1.2267 -0.53568,-2.0712 -0.28852,-1.77942 -1.43955,-6.15729 -1.80619,-6.86976 -0.22298,-0.43329 -0.89387,-3.00045 -1.68293,-6.43966 -0.15024,-0.65484 -0.44061,-1.60734 -0.64528,-2.11667 -0.20466,-0.50932 -0.5422,-1.64041 -0.75008,-2.51354 -0.20788,-0.87312 -0.57148,-2.24234 -0.80799,-3.04271 -0.57221,-1.93633 -2.33015,-8.47646 -3.16476,-11.77395 -0.36832,-1.45521 -0.85722,-3.21636 -1.08645,-3.91367 -0.38943,-1.18462 -2.38613,-8.21107 -2.63135,-9.25983 -0.0609,-0.26043 -0.3644,-1.39152 -0.67445,-2.51355 -0.31004,-1.12202 -1.09085,-4.0641 -1.73513,-6.53795 -1.4309,-5.49433 -2.97081,-11.21641 -4.34342,-16.13959 -0.56802,-2.03729 -1.74582,-6.50213 -2.61735,-9.92187 -2.28821,-8.97859 -2.5891,-10.11605 -3.19421,-12.07517 -0.5181,-1.67742 -0.55436,-2.7264 -0.048,-1.38913 2.51603,6.6449 6.39198,17.42802 15.30108,42.56847 3.27461,9.24057 6.61017,18.64651 7.41234,20.90208 2.52647,7.10396 13.24481,37.39745 15.82076,44.71458 7.6321,21.67935 11.57049,32.65166 11.90265,33.16067 0.20592,0.31554 2.75119,7.30074 5.65617,15.52266 2.90498,8.22193 10.48271,29.65318 16.83942,47.625 6.3567,17.97183 13.0501,36.90276 14.87423,42.06875 1.82412,5.16599 3.43527,9.54154 3.58032,9.72344 0.17785,0.22302 1.09327,0.33165 2.81103,0.33359 8.36427,0.009 36.22303,2.29044 48.32021,3.95642 2.08926,0.28773 3.18143,0.22219 3.14854,-0.18897 z"
         style="fill:#98020c;stroke-width:0.26458332" />
      <path
         id="path1054"
         d="M -583.6571,244.04799 V 58.839664 h 185.20833 185.20833 V 244.04799 429.25632 H -398.44877 -583.6571 Z m 121.44375,134.0162 c 13.76914,-1.56872 22.01616,-2.27807 35.4042,-3.0452 4.99298,-0.28609 9.18994,-0.58928 9.32656,-0.67371 0.54153,-0.33467 0.11899,-101.5584 -0.42549,-101.93103 -0.15119,-0.10347 -0.55502,-1.0811 -0.8974,-2.17251 -0.34238,-1.0914 -0.95597,-2.87734 -1.36354,-3.96875 -0.40757,-1.0914 -1.16957,-3.1745 -1.69334,-4.62909 -0.52377,-1.4546 -1.06592,-2.75833 -1.20477,-2.89719 -0.13886,-0.13886 -0.25188,-0.55608 -0.25116,-0.92715 0.002,-0.80776 -0.62212,-2.82399 -1.43637,-4.64344 -0.64487,-1.44097 -1.12871,-2.73189 -1.4875,-3.96875 -0.61214,-2.11027 -2.65751,-7.91197 -2.88668,-8.18811 -0.14266,-0.1719 -0.43193,-1.05215 -0.6428,-1.9561 -0.21088,-0.90396 -0.79546,-2.68225 -1.29907,-3.95176 -1.09747,-2.76651 -3.63611,-10.5999 -3.63018,-11.20149 0.002,-0.23465 -0.36105,-1.30621 -0.80747,-2.38125 -1.06107,-2.55523 -2.22522,-6.05336 -3.0158,-9.06216 -0.34936,-1.32961 -1.01114,-3.60809 -1.47062,-5.0633 -1.15548,-3.65948 -1.80998,-5.8337 -2.26994,-7.54062 -0.21567,-0.80037 -0.8601,-2.88396 -1.43206,-4.63021 -0.57196,-1.74625 -1.81973,-5.85391 -2.77282,-9.12812 -2.51486,-8.63948 -2.95702,-10.13006 -3.96342,-13.36146 -0.93288,-2.99533 -1.50353,-4.88996 -2.51029,-8.33438 -0.63825,-2.18363 -1.49558,-5.02812 -3.26956,-10.84791 -0.64319,-2.11006 -1.31919,-4.49131 -1.50223,-5.29167 -0.18304,-0.80037 -0.48718,-1.8124 -0.67587,-2.24896 -0.18869,-0.43656 -0.60464,-1.68672 -0.92434,-2.77812 -0.3197,-1.09141 -1.0271,-3.41313 -1.57201,-5.15938 -1.10661,-3.54633 -1.46674,-4.98364 -1.09383,-4.36562 0.25779,0.42723 2.98565,7.79839 4.40618,11.90625 0.47806,1.38244 1.60234,4.5376 2.49841,7.01145 2.65207,7.32182 20.28967,57.05877 24.91078,70.24688 1.45323,4.14734 2.92741,8.31453 3.27595,9.26041 0.34854,0.94589 1.66163,4.63683 2.91796,8.20209 5.29643,15.03032 6.53928,18.43145 7.01953,19.20934 0.2787,0.45144 2.82038,7.35706 5.64817,15.34583 8.11019,22.91205 17.9175,50.64196 26.89349,76.04066 4.55134,12.87859 8.37263,23.48111 8.49177,23.56114 0.11913,0.08 3.40325,0.2934 7.29806,0.47411 11.84682,0.5497 23.70061,1.5131 36.71479,2.98395 3.92906,0.44405 7.90651,0.8745 8.83878,0.95654 l 1.69503,0.14918 -0.17368,-1.26709 c -0.0955,-0.69692 -0.17367,-61.43658 -0.17367,-134.97705 V 109.1105 h -26.21642 -26.21642 l 0.0936,52.85052 c 0.0936,52.82089 0.0939,52.85126 0.6439,54.17343 0.30266,0.72761 0.702,1.73964 0.88743,2.24896 0.18543,0.50932 0.8635,2.35479 1.50681,4.10104 0.64332,1.74625 1.38634,3.88938 1.65117,4.7625 0.26483,0.87313 0.81661,2.42094 1.22618,3.43959 0.40958,1.01864 1.01246,2.68552 1.33975,3.70416 0.32728,1.01865 1.20897,3.57849 1.9593,5.68854 0.75033,2.11006 1.60163,4.61037 1.89178,5.55625 0.29015,0.94589 1.1614,3.4462 1.93613,5.55625 0.77472,2.11006 1.89607,5.32474 2.4919,7.14375 0.59582,1.81901 1.26121,3.84308 1.47865,4.49792 0.21744,0.65484 0.97974,3.03609 1.69399,5.29167 0.71426,2.25557 1.62233,5.11307 2.01793,6.35 0.39561,1.23692 1.05296,3.43958 1.4608,4.89479 0.84411,3.01191 2.67721,9.14144 4.07501,13.62604 0.52161,1.67349 1.30013,4.1738 1.73005,5.55625 0.42992,1.38245 1.32262,4.44014 1.98378,6.79488 0.66117,2.35474 1.4304,4.91459 1.70941,5.68854 0.70727,1.96192 2.11583,6.58423 3.85545,12.652 1.81589,6.33378 2.67531,9.21673 3.31269,11.1125 0.26909,0.80036 0.93196,3.00302 1.47304,4.89479 0.91813,3.21 3.02287,10.03948 3.9731,12.8919 0.53797,1.61491 0.32879,2.29293 -0.22498,0.72922 -0.23095,-0.65215 -1.21654,-3.38836 -2.19021,-6.0805 -0.97366,-2.69213 -2.34315,-6.50213 -3.0433,-8.46666 -0.70015,-1.96454 -2.77947,-7.7986 -4.62071,-12.96459 -4.85287,-13.61576 -22.02504,-62.09821 -28.47442,-80.39228 -3.0445,-8.63592 -5.82111,-16.19639 -6.17025,-16.80104 -0.34913,-0.60466 -2.06285,-5.14751 -3.80826,-10.09522 -1.74541,-4.94771 -7.65882,-21.67599 -13.14091,-37.17395 -5.48209,-15.49797 -13.41109,-37.9198 -17.62,-49.82628 -4.20891,-11.90648 -7.77587,-21.87854 -7.92657,-22.16014 -0.26849,-0.50168 -0.80241,-0.51062 -26.52391,-0.44455 l -26.2499,0.0674 -0.0676,134.67292 c -0.0372,74.0701 -0.009,134.82743 0.0627,135.01629 0.0873,0.23008 0.41516,0.29411 0.99368,0.1941 0.47485,-0.0821 3.4232,-0.44088 6.5519,-0.79732 z m -0.3357,-245.38457 c -0.11509,-0.44009 -0.0807,-0.54339 0.11568,-0.34705 0.15375,0.15374 0.22749,0.43572 0.16386,0.6266 -0.066,0.19816 -0.18598,0.0782 -0.27954,-0.27955 z"
         style="fill:#87010b;stroke-width:0.26458332" />
      <path
         id="path1052"
         d="M -583.6571,244.04799 V 58.839664 h 185.20833 185.20833 V 244.04799 429.25632 H -398.44877 -583.6571 Z m 262.13619,0.14807 c 0.053,-107.76424 -2.2e-4,-134.96343 -0.26458,-135.12895 -0.18205,-0.11398 -11.95384,-0.21149 -26.15956,-0.21669 -23.04186,-0.008 -25.86538,0.0349 -26.16978,0.40168 -0.27736,0.3342 -0.31217,11.52622 -0.186,59.79831 0.0858,32.84271 0.0541,59.38717 -0.0711,59.38717 -0.32669,0 2.2316,7.16057 -29.6821,-83.07917 -9.70502,-27.4421 -12.52615,-35.39526 -12.78782,-36.05074 -0.17523,-0.43897 -1.63024,-0.46062 -26.68103,-0.39688 l -26.49568,0.0674 0.007,3.57188 c 0.004,1.96453 0.0337,62.73339 0.0661,135.0419 l 0.0589,131.47003 1.65365,-0.16185 c 0.9095,-0.089 4.8088,-0.518 8.6651,-0.95329 12.46866,-1.40742 22.03063,-2.19512 36.5125,-3.00778 l 5.68854,-0.31922 V 317.1391 c 0,-31.61441 0.0851,-57.48074 0.18913,-57.48073 0.40752,6e-5 -1.16673,-4.39765 31.19441,87.14248 5.08565,14.38582 9.4103,26.54774 9.61035,27.0265 l 0.36371,0.87048 2.73683,0.15444 c 1.50525,0.0849 5.29666,0.28321 8.42536,0.44061 10.80901,0.5438 26.30545,1.90918 37.30625,3.28702 2.69214,0.33719 5.13292,0.59616 5.42396,0.57547 0.52833,-0.0375 0.52927,-0.25024 0.59557,-134.95932 z"
         style="fill:#620208;stroke-width:0.26458332" />
      <path
         id="path1050"
         d="M -583.6571,244.04799 V 58.839664 h 185.20833 185.20833 V 244.04799 429.25632 H -398.44877 -583.6571 Z m 262.40077,0.0377 -0.0664,-135.10753 -26.51912,-0.0674 -26.51912,-0.0674 -0.1807,0.71997 c -0.0994,0.39599 -0.0972,27.15445 0.005,59.46325 0.13231,41.91249 0.10391,58.66175 -0.0991,58.45871 -0.1565,-0.15651 -4.45089,-12.06136 -9.54307,-26.45521 -5.09218,-14.39385 -11.45016,-32.36189 -14.12883,-39.92897 -2.67868,-7.56708 -7.9208,-22.38764 -11.64915,-32.93456 -3.72836,-10.54693 -6.9207,-19.26676 -7.0941,-19.37742 -0.1734,-0.11065 -12.16199,-0.17291 -26.64131,-0.13835 l -26.32604,0.0628 -0.0664,135.26823 c -0.0661,134.60706 -0.0639,135.26822 0.45687,135.26822 0.28781,0 4.12769,-0.41042 8.53307,-0.91201 14.096,-1.60502 24.73466,-2.49233 36.71708,-3.06229 3.41974,-0.16267 6.4856,-0.3493 6.81302,-0.41474 l 0.59532,-0.11895 v -57.06559 c 0,-37.12111 0.0903,-56.9753 0.25831,-56.80726 0.14208,0.14207 1.20167,2.93409 2.35464,6.20448 1.15297,3.27039 4.18125,11.83975 6.72951,19.04303 2.54826,7.20328 9.1174,25.77703 14.59808,41.275 5.48068,15.49797 11.46066,32.40485 13.28885,37.57084 1.82819,5.16598 3.42657,9.52367 3.55197,9.68374 0.14002,0.17876 2.04027,0.36259 4.92487,0.47647 12.81424,0.50585 31.1495,2.0252 44.64897,3.69977 2.61938,0.32494 4.91145,0.54129 5.09349,0.48075 0.26447,-0.0879 0.31764,-27.26346 0.26458,-135.21758 z"
         style="fill:#310104;stroke-width:0.26458332" />
      <path
         id="path1048"
         d="M -583.6571,244.04799 V 58.839664 h 185.20833 185.20833 V 244.04799 429.25632 H -398.44877 -583.6571 Z m 262.43452,135.37311 c 0.21927,-0.26421 0.27982,-35.81815 0.23084,-135.53282 l -0.0664,-135.17466 -26.7837,-0.0674 -26.78371,-0.0674 -0.16116,0.64212 c -0.0886,0.35316 -0.12081,26.78561 -0.0715,58.73877 0.0493,31.95317 0.0265,58.09666 -0.0507,58.09665 -0.0772,-1e-5 -0.57295,-1.22041 -1.10171,-2.712 -3.94877,-11.13901 -13.77883,-38.90814 -17.67841,-49.9401 -9.38247,-26.54313 -15.36328,-43.45665 -19.03527,-53.83105 -2.05799,-5.81441 -3.87015,-10.72631 -4.02701,-10.91532 -0.23112,-0.27847 -5.3347,-0.33087 -26.90854,-0.27625 l -26.62332,0.0674 -0.0664,135.53281 -0.0664,135.53281 h 0.77028 c 0.42366,0 3.90635,-0.35436 7.73932,-0.78745 15.14984,-1.71186 23.45315,-2.42322 35.94091,-3.07923 4.72943,-0.24841 8.74752,-0.56597 8.92909,-0.70564 0.26158,-0.20124 0.34397,-11.98949 0.39687,-56.77676 l 0.0668,-56.52279 1.36659,3.83645 c 1.46352,4.10858 8.68924,24.52096 17.4206,49.2125 2.95888,8.36745 7.78237,22.00011 10.71888,30.29479 2.9365,8.29469 6.34954,17.93875 7.58452,21.43125 1.23497,3.4925 2.42519,6.8566 2.64492,7.47581 0.27116,0.76411 0.58262,1.16281 0.9695,1.24102 0.31349,0.0634 2.53452,0.18574 4.93562,0.27192 12.05963,0.43288 31.58992,2.06147 44.3177,3.69559 2.61938,0.33631 4.83722,0.62624 4.92855,0.64429 0.0913,0.018 0.29979,-0.12833 0.46327,-0.32531 z"
         style="fill:#000000;stroke-width:0.26458332" />
    </g>
    <path
       transform="matrix(0.26458333,0,0,0.26458333,0,111.79157)"
       id="path1070"
       d="m 490.38419,607.3895 c -0.66125,-0.66126 -22.00271,-2.81869 -47.42547,-4.79429 l -46.22321,-3.59206 -24.2398,-68.77711 C 344.69349,451.34101 223.2033,109.17446 220.43546,101.9616 c -1.67967,-4.377164 2.42276,-4.798417 46.7301,-4.798417 43.60223,0 48.77325,0.511535 50.54415,4.999997 1.08499,2.75 39.91615,111.71429 86.29146,242.14286 46.37531,130.42857 86.12515,242.12594 88.33297,248.21637 2.20782,6.09043 4.01422,12.19757 4.01422,13.57143 0,2.58063 -3.84411,3.41571 -5.96417,1.29566 z"
       style="fill:#ff0000;fill-opacity:1;stroke:#f3f3f3;stroke-width:2.85714293;stroke-opacity:1" />
  </g>
</svg>
